{"glyphs":{"0":{"ha":1076,"x_min":39,"x_max":1038,"o":"m 39 489 q 78 683 39 593 q 185 839 117 772 q 343 944 253 906 q 538 982 433 982 q 733 944 642 982 q 891 839 824 906 q 998 683 958 772 q 1038 489 1038 593 q 998 294 1038 385 q 891 138 958 204 q 733 33 824 71 q 538 -6 642 -6 q 343 33 433 -6 q 185 138 253 71 q 78 294 117 204 q 39 489 39 385 m 313 485 q 331 397 313 438 q 379 327 349 357 q 451 281 410 297 q 539 264 492 264 q 627 281 586 264 q 699 327 668 297 q 749 397 731 357 q 767 485 767 438 q 749 573 767 532 q 699 644 731 614 q 627 690 668 674 q 539 707 586 707 q 451 690 492 707 q 379 644 410 674 q 331 573 349 614 q 313 485 313 532 z "},"1":{"ha":529,"x_min":11,"x_max":472,"o":"m 472 129 q 433 28 472 63 q 338 -6 393 -6 q 244 29 285 -6 q 204 129 204 64 l 204 519 q 136 503 171 503 q 85 514 108 503 q 46 543 63 525 q 20 585 29 561 q 11 636 11 610 q 22 693 11 665 q 57 744 33 721 l 242 926 q 357 982 297 982 q 441 942 410 982 q 472 832 472 903 l 472 129 z "},"2":{"ha":901,"x_min":54,"x_max":851,"o":"m 89 0 q 54 40 54 0 l 54 311 q 118 531 54 463 q 328 599 182 599 l 546 599 q 615 651 615 599 q 546 706 615 706 l 211 706 q 81 842 81 706 q 210 978 81 978 l 544 978 q 851 664 851 978 q 838 534 851 589 q 794 442 825 479 q 710 388 763 406 q 582 371 658 371 l 353 371 q 289 319 289 371 l 289 271 l 710 271 q 819 238 786 271 q 851 136 851 204 q 708 0 851 0 l 89 0 z "},"3":{"ha":850,"x_min":39,"x_max":815,"o":"m 39 136 q 169 271 39 271 l 501 271 q 544 289 531 271 q 557 326 557 307 q 544 365 557 347 q 501 382 531 382 l 203 382 q 108 482 108 382 q 200 579 108 579 l 501 579 q 543 600 529 579 q 557 647 557 621 q 544 688 557 669 q 501 706 531 706 l 163 706 q 39 842 39 706 q 161 978 39 978 l 590 978 q 681 956 642 978 q 746 899 719 935 q 785 818 772 864 q 799 725 799 772 q 763 578 799 642 q 653 499 728 515 q 720 474 690 494 q 771 419 750 453 q 803 343 792 386 q 815 253 815 300 q 801 156 815 201 q 758 75 788 110 q 683 20 729 40 q 572 0 636 0 l 167 0 q 39 136 39 0 z "},"4":{"ha":851,"x_min":35,"x_max":793,"o":"m 793 129 q 753 28 793 63 q 658 -6 714 -6 q 564 28 604 -6 q 524 129 524 63 l 524 353 l 171 353 q 35 489 35 353 l 35 849 q 76 949 35 915 q 171 982 117 982 q 265 949 225 982 q 306 849 306 915 l 306 599 l 524 599 l 524 849 q 564 949 524 915 q 658 982 604 982 q 753 949 714 982 q 793 849 793 915 l 793 129 z "},"5":{"ha":885,"x_min":57,"x_max":840,"o":"m 840 313 q 536 0 840 0 l 203 0 q 57 136 57 0 q 95 238 57 204 q 204 271 133 271 l 529 271 q 604 326 604 271 q 529 383 604 383 l 119 383 q 80 399 94 383 q 65 446 65 415 l 65 938 q 81 968 65 958 q 117 978 97 978 l 697 978 q 825 842 825 978 q 694 706 825 706 l 324 706 l 324 607 l 553 607 q 768 535 696 607 q 840 313 840 464 z "},"6":{"ha":879,"x_min":50,"x_max":831,"o":"m 831 311 q 525 0 831 0 l 338 0 q 118 77 186 0 q 50 318 50 154 l 50 668 q 358 978 50 978 l 661 978 q 790 842 790 978 q 756 740 790 774 q 660 706 722 706 l 371 706 q 331 691 346 706 q 315 647 315 676 l 315 599 q 343 608 328 606 q 374 611 358 611 l 542 611 q 831 311 831 611 m 529 271 q 588 340 588 271 q 529 411 588 411 l 369 411 q 315 340 315 411 q 369 271 315 271 l 529 271 z "},"7":{"ha":835,"x_min":26,"x_max":819,"o":"m 361 67 q 304 10 336 26 q 242 -6 272 -6 q 191 4 215 -6 q 148 31 167 14 q 118 72 129 49 q 107 122 107 94 q 113 157 107 135 q 133 201 118 179 l 463 706 l 163 706 q 61 746 96 706 q 26 842 26 786 q 61 938 26 897 q 163 978 96 978 l 693 978 q 784 946 749 978 q 819 856 819 914 q 814 814 819 836 q 794 769 808 792 l 361 67 z "},"8":{"ha":896,"x_min":49,"x_max":844,"o":"m 292 0 q 180 20 226 0 q 104 76 133 40 q 62 160 75 111 q 49 264 49 208 q 60 348 49 307 q 93 421 72 389 q 144 474 114 453 q 211 499 174 494 q 101 578 136 515 q 65 725 65 642 q 78 826 65 779 q 118 906 92 872 q 183 959 144 940 q 272 978 222 978 l 621 978 q 710 958 672 978 q 775 905 749 939 q 815 824 801 871 q 828 725 828 778 q 793 578 828 642 q 683 499 758 515 q 751 474 721 494 q 801 421 781 453 q 833 348 822 389 q 844 263 844 307 q 831 159 844 207 q 789 76 818 111 q 714 20 760 40 q 603 0 668 0 l 292 0 m 361 706 q 320 688 333 706 q 307 647 307 669 q 321 600 307 621 q 361 579 335 579 l 532 579 q 572 600 558 579 q 586 647 586 621 q 574 688 586 669 q 532 706 561 706 l 361 706 m 361 382 q 320 365 333 382 q 307 326 307 347 q 320 289 307 307 q 361 271 333 271 l 532 271 q 574 289 561 271 q 586 326 586 307 q 574 365 586 347 q 532 382 561 382 l 361 382 z "},"9":{"ha":881,"x_min":49,"x_max":828,"o":"m 49 664 q 353 978 49 978 l 540 978 q 760 900 692 978 q 828 658 828 822 l 828 308 q 521 0 828 0 l 218 0 q 89 136 89 0 q 123 238 89 204 q 219 271 157 271 l 508 271 q 548 285 532 271 q 564 328 564 300 l 564 376 q 535 369 551 371 q 506 367 519 367 l 336 367 q 49 664 49 367 m 350 706 q 292 638 292 706 q 350 565 292 565 l 510 565 q 564 638 564 565 q 510 706 564 706 l 350 706 z "},"\u0017":{"ha":325,"x_min":0,"x_max":0,"o":""}," ":{"ha":325,"x_min":0,"x_max":0,"o":""},"!":{"ha":375,"x_min":51,"x_max":324,"o":"m 319 492 q 308 435 319 460 q 278 392 297 410 q 235 366 260 375 q 186 357 211 357 q 92 392 132 357 q 51 492 51 428 l 51 847 q 92 948 51 914 q 186 982 132 982 q 281 948 242 982 q 319 847 319 914 l 319 492 m 324 131 q 313 78 324 103 q 284 35 303 54 q 241 6 265 17 q 189 -6 217 -6 q 137 6 161 -6 q 94 35 113 17 q 65 78 75 54 q 54 131 54 103 q 65 182 54 157 q 94 226 75 207 q 137 256 113 244 q 189 267 161 267 q 241 256 217 267 q 284 226 265 244 q 313 182 303 207 q 324 131 324 157 z "},"\"":{"ha":622,"x_min":33,"x_max":588,"o":"m 269 735 q 235 647 269 676 q 153 618 200 618 q 69 647 104 618 q 33 735 33 676 l 33 922 q 69 1012 33 981 q 153 1043 104 1043 q 235 1012 200 1043 q 269 922 269 981 l 269 735 m 588 735 q 553 647 588 676 q 471 618 518 618 q 387 647 422 618 q 351 735 351 676 l 351 922 q 387 1012 351 981 q 471 1043 422 1043 q 553 1012 518 1043 q 588 922 588 981 l 588 735 z "},"#":{"ha":982,"x_min":33,"x_max":956,"o":"m 418 982 q 488 958 456 982 q 521 893 521 933 q 519 876 521 883 q 515 861 517 868 l 485 753 l 635 753 l 679 913 q 761 982 699 982 q 831 958 799 982 q 864 893 864 933 q 862 876 864 883 q 858 861 860 868 l 828 753 l 864 753 q 931 725 907 753 q 956 660 956 697 q 931 597 956 624 q 864 569 907 569 l 776 569 l 742 443 l 824 443 q 891 415 867 443 q 915 351 915 388 q 891 288 915 315 q 824 260 867 260 l 689 260 l 635 65 q 601 12 624 29 q 553 -6 579 -6 q 480 19 513 -6 q 447 81 447 43 q 449 101 447 93 q 453 115 450 108 l 496 260 l 346 260 l 292 65 q 258 12 281 29 q 210 -6 236 -6 q 137 19 169 -6 q 104 81 104 43 q 106 101 104 93 q 110 115 107 108 l 153 260 l 122 260 q 57 288 81 260 q 33 351 33 315 q 57 415 33 388 q 122 443 81 443 l 204 443 l 239 569 l 164 569 q 97 597 121 569 q 74 660 74 624 q 97 725 74 697 q 164 753 121 753 l 292 753 l 336 913 q 418 982 356 982 m 399 443 l 547 443 l 581 569 l 433 569 l 399 443 z "},"$":{"ha":871,"x_min":38,"x_max":835,"o":"m 835 311 q 531 0 835 0 l 501 0 l 501 -22 q 481 -72 501 -56 q 436 -89 460 -89 q 391 -72 411 -89 q 371 -22 371 -56 l 371 0 l 181 0 q 51 131 51 0 l 51 136 q 182 271 56 271 l 371 271 l 371 353 l 325 353 q 108 433 178 353 q 38 664 38 513 q 344 978 38 978 l 371 978 l 371 997 q 391 1049 371 1033 q 436 1064 411 1064 q 481 1049 460 1064 q 501 997 501 1033 l 501 978 l 643 978 q 771 847 771 978 l 771 842 q 640 706 768 706 l 501 706 l 501 624 l 547 624 q 835 311 835 624 m 546 271 q 599 311 599 271 q 546 353 599 353 l 501 353 l 501 271 l 546 271 m 326 706 q 272 664 272 706 q 326 624 272 624 l 371 624 l 371 706 l 326 706 z "},"%":{"ha":1076,"x_min":64,"x_max":981,"o":"m 818 982 q 854 974 836 982 q 887 953 872 967 q 910 923 901 940 q 919 888 919 906 q 899 831 919 857 l 304 35 q 232 -6 274 -6 q 193 3 211 -6 q 162 24 175 11 q 140 55 149 38 q 132 90 132 72 q 154 147 132 117 l 749 940 q 818 982 779 982 m 463 782 q 447 708 463 743 q 405 645 432 672 q 342 601 378 618 q 264 585 306 585 q 183 600 219 585 q 120 642 147 615 q 78 705 93 669 q 64 782 64 740 q 80 860 64 824 q 123 924 96 897 q 186 967 150 951 q 264 983 222 983 q 342 967 306 983 q 405 924 378 951 q 447 860 432 896 q 463 782 463 824 m 188 782 q 210 728 188 750 q 264 707 232 707 q 319 728 296 707 q 342 782 342 750 q 319 838 342 815 q 264 860 296 860 q 210 838 232 860 q 188 782 188 815 m 981 192 q 965 116 981 151 q 923 53 950 81 q 860 10 896 26 q 782 -6 824 -6 q 701 10 738 -6 q 637 51 664 25 q 595 114 610 78 q 581 192 581 150 q 597 270 581 233 q 640 334 613 307 q 703 377 667 361 q 782 393 740 393 q 860 377 824 393 q 923 333 896 361 q 965 269 950 306 q 981 192 981 232 m 706 192 q 728 138 706 160 q 782 115 750 115 q 836 138 814 115 q 858 192 858 160 q 836 246 858 224 q 782 268 814 268 q 728 246 750 268 q 706 192 706 224 z "},"&":{"ha":997,"x_min":50,"x_max":974,"o":"m 824 136 q 811 74 824 100 q 778 32 799 49 q 731 8 757 15 q 675 0 704 0 l 294 0 q 183 19 229 0 q 108 72 138 38 q 64 152 78 106 q 50 256 50 199 q 100 413 50 351 q 242 489 150 475 q 100 563 150 503 q 50 718 50 622 q 64 822 50 774 q 108 904 78 869 q 185 958 138 939 q 297 978 232 978 l 419 978 q 542 842 542 978 q 418 706 542 706 l 392 706 q 338 664 338 706 q 392 624 338 624 l 554 624 l 554 646 q 594 746 554 713 q 689 779 633 779 q 783 746 743 779 q 824 646 824 713 l 824 624 l 847 624 q 974 489 974 624 q 844 353 974 353 l 824 353 l 824 136 m 392 353 q 338 311 338 353 q 392 271 338 271 l 554 271 l 554 353 l 392 353 z "},"'":{"ha":304,"x_min":33,"x_max":269,"o":"m 269 735 q 235 647 269 676 q 153 618 200 618 q 69 647 104 618 q 33 735 33 676 l 33 922 q 69 1012 33 981 q 153 1043 104 1043 q 235 1012 200 1043 q 269 922 269 981 l 269 735 z "},"(":{"ha":483,"x_min":107,"x_max":465,"o":"m 403 1047 q 278 971 278 1047 l 278 68 q 403 -33 278 -33 q 465 -101 465 -33 q 403 -171 465 -171 l 382 -171 q 107 65 107 -171 l 107 971 q 374 1186 107 1186 l 403 1186 q 465 1118 465 1186 q 403 1047 465 1047 z "},")":{"ha":483,"x_min":106,"x_max":464,"o":"m 169 1047 q 106 1118 106 1047 q 169 1186 106 1186 l 199 1186 q 464 971 464 1186 l 464 65 q 189 -171 464 -171 l 169 -171 q 106 -101 106 -171 q 169 -33 106 -33 q 294 68 294 -33 l 294 971 q 169 1047 294 1047 z "},"*":{"ha":606,"x_min":19,"x_max":585,"o":"m 371 957 q 415 982 381 982 q 453 969 436 982 q 471 932 471 956 q 468 921 471 926 q 463 907 465 915 l 393 786 l 536 786 q 573 771 561 786 q 585 736 585 756 q 573 702 585 718 q 536 686 561 686 l 393 686 l 463 567 q 468 552 465 558 q 471 540 471 546 q 453 504 471 517 q 415 492 436 492 q 371 515 382 492 l 303 636 l 235 515 q 189 492 222 492 q 151 504 169 492 q 133 540 133 517 q 136 552 133 546 q 142 567 139 558 l 211 686 l 68 686 q 31 702 43 686 q 19 736 19 718 q 31 771 19 756 q 68 786 43 786 l 211 786 l 142 907 q 136 921 139 915 q 133 932 133 926 q 151 969 133 956 q 189 982 169 982 q 235 957 219 982 l 303 839 l 371 957 z "},"+":{"ha":806,"x_min":46,"x_max":758,"o":"m 288 374 l 158 374 q 76 407 106 374 q 46 485 46 440 q 76 567 46 532 q 158 601 106 601 l 288 601 l 288 729 q 322 813 288 782 q 400 843 356 843 q 481 813 447 843 q 515 729 515 782 l 515 601 l 646 601 q 728 567 699 601 q 758 485 758 532 q 728 407 758 440 q 646 374 699 374 l 515 374 l 515 243 q 481 160 515 190 q 400 131 447 131 q 322 160 356 131 q 288 243 288 190 l 288 374 z "},",":{"ha":367,"x_min":42,"x_max":329,"o":"m 278 -150 q 235 -217 265 -196 q 169 -239 206 -239 q 79 -208 117 -239 q 42 -129 42 -178 q 47 -93 42 -103 l 97 92 q 207 182 122 182 q 299 144 269 182 q 329 53 329 107 q 326 33 329 47 l 278 -150 z "},"-":{"ha":483,"x_min":26,"x_max":457,"o":"m 139 374 q 56 407 86 374 q 26 485 26 440 q 56 567 26 532 q 139 601 86 601 l 344 601 q 427 567 397 601 q 457 485 457 532 q 427 407 457 440 q 344 374 397 374 l 139 374 z "},".":{"ha":350,"x_min":39,"x_max":310,"o":"m 310 129 q 299 77 310 101 q 269 35 288 53 q 225 6 250 17 q 174 -6 200 -6 q 122 6 146 -6 q 79 35 97 17 q 50 77 61 53 q 39 129 39 101 q 50 181 39 157 q 79 224 61 206 q 122 253 97 243 q 174 264 146 264 q 225 253 200 264 q 269 224 250 243 q 299 181 288 206 q 310 129 310 157 z "},"/":{"ha":511,"x_min":15,"x_max":514,"o":"m 411 1149 q 482 1124 450 1149 q 514 1060 514 1100 q 513 1044 514 1051 q 510 1029 511 1036 l 201 -57 q 119 -128 181 -128 q 47 -104 79 -128 q 15 -42 15 -81 q 19 -7 15 -24 l 329 1079 q 411 1149 350 1149 z "},":":{"ha":400,"x_min":68,"x_max":340,"o":"m 340 129 q 329 77 340 101 q 299 34 318 53 q 256 5 281 15 q 204 -6 231 -6 q 152 5 176 -6 q 109 34 128 15 q 79 77 90 53 q 68 129 68 101 q 79 181 68 157 q 109 224 90 206 q 152 253 128 243 q 204 264 176 264 q 256 253 231 264 q 299 224 281 243 q 329 181 318 206 q 340 129 340 157 m 338 656 q 299 559 338 597 q 204 521 260 521 q 152 531 176 521 q 109 560 128 542 q 79 602 90 578 q 68 656 68 626 q 79 707 68 682 q 109 751 90 732 q 152 781 128 769 q 204 792 176 792 q 256 781 232 792 q 299 751 281 769 q 327 707 317 732 q 338 656 338 682 z "},";":{"ha":375,"x_min":28,"x_max":328,"o":"m 328 653 q 289 556 328 594 q 194 517 250 517 q 142 527 167 517 q 99 556 118 538 q 69 599 81 574 q 58 653 58 624 q 69 704 58 679 q 99 748 81 729 q 142 778 118 767 q 194 789 167 789 q 247 778 222 789 q 289 748 271 767 q 317 704 307 729 q 328 653 328 679 m 263 -150 q 220 -217 250 -196 q 154 -239 190 -239 q 65 -208 101 -239 q 28 -129 28 -178 q 29 -109 28 -118 q 33 -93 31 -100 l 82 92 q 193 182 106 182 q 280 149 244 182 q 315 67 315 115 q 311 33 315 47 l 263 -150 z "},"<":{"ha":693,"x_min":96,"x_max":557,"o":"m 528 300 q 551 265 544 283 q 557 229 557 247 q 527 158 557 188 q 457 129 497 129 q 386 158 415 129 l 128 418 q 103 453 110 436 q 96 489 96 469 q 103 524 96 508 q 128 558 110 540 l 386 818 q 457 850 418 850 q 496 842 478 850 q 527 819 514 833 q 549 786 540 804 q 557 749 557 768 q 528 678 557 707 l 338 489 l 528 300 z "},"=":{"ha":806,"x_min":46,"x_max":758,"o":"m 158 176 q 76 210 106 176 q 46 289 46 244 q 76 371 46 336 q 158 406 106 406 l 646 406 q 728 371 699 406 q 758 289 758 336 q 728 210 758 244 q 646 176 699 176 l 158 176 m 158 569 q 76 603 106 569 q 46 681 46 636 q 76 763 46 728 q 158 797 106 797 l 646 797 q 728 763 699 797 q 758 681 758 728 q 728 603 758 636 q 646 569 699 569 l 158 569 z "},">":{"ha":693,"x_min":144,"x_max":606,"o":"m 363 489 l 172 678 q 144 749 144 706 q 152 786 144 768 q 174 819 160 804 q 205 842 188 833 q 243 850 222 850 q 281 842 264 850 q 313 818 297 833 l 574 558 q 606 489 606 526 q 574 418 606 450 l 313 158 q 247 129 283 129 q 175 157 206 129 q 144 229 144 185 q 172 300 144 272 l 363 489 z "},"?":{"ha":883,"x_min":50,"x_max":833,"o":"m 528 131 q 517 78 528 103 q 487 35 506 54 q 443 6 468 17 q 392 -6 418 -6 q 340 6 364 -6 q 297 35 315 17 q 267 78 278 54 q 256 131 256 103 q 267 183 256 158 q 297 226 278 207 q 340 255 315 244 q 392 265 364 265 q 443 255 418 265 q 487 226 468 244 q 517 183 506 207 q 528 131 528 158 m 406 353 q 263 489 263 353 q 403 624 263 624 l 544 624 q 597 664 597 624 q 544 706 597 706 l 190 706 q 50 842 53 706 l 50 847 q 189 978 50 978 l 529 978 q 833 664 833 978 q 531 353 833 353 l 406 353 z "},"@":{"ha":1010,"x_min":42,"x_max":967,"o":"m 574 504 q 541 523 560 515 q 504 531 522 531 q 419 454 419 531 q 497 385 419 385 q 574 417 542 385 l 574 504 m 688 410 q 707 367 688 379 q 754 354 726 354 q 810 386 788 354 q 832 506 832 418 q 814 646 832 582 q 757 756 796 710 q 656 828 718 803 q 506 854 593 854 q 376 831 436 854 q 272 760 317 807 q 202 645 228 714 q 176 486 176 576 q 199 326 176 392 q 263 217 222 261 q 361 147 304 172 q 488 108 418 121 q 536 87 519 101 q 553 40 553 72 q 482 -21 553 -21 q 293 24 375 -21 q 155 140 211 68 q 70 302 99 211 q 42 488 42 393 q 80 697 42 606 q 183 852 118 789 q 331 949 247 915 q 506 982 415 982 q 698 953 613 982 q 843 865 783 924 q 935 716 903 806 q 967 504 967 626 q 957 424 967 469 q 923 336 947 378 q 856 266 899 294 q 749 238 814 238 q 663 256 700 238 q 606 304 625 275 q 549 279 578 286 q 489 272 519 272 q 418 284 451 272 q 360 319 385 296 q 320 376 335 343 q 306 454 306 410 q 353 594 306 546 q 488 642 400 642 q 538 637 515 642 q 579 621 560 632 q 635 642 593 642 q 688 585 688 642 l 688 410 z "},"A":{"ha":964,"x_min":25,"x_max":935,"o":"m 925 178 q 933 150 931 164 q 935 125 935 136 q 922 70 935 94 q 889 29 910 46 q 842 3 868 13 q 788 -6 815 -6 q 672 82 708 -6 l 653 129 l 310 129 l 288 82 q 168 -6 246 -6 q 115 4 140 -6 q 69 32 89 14 q 38 74 50 50 q 25 128 25 99 q 26 153 25 140 q 33 178 26 165 l 182 507 q 232 574 201 551 q 300 596 263 596 q 355 586 329 596 q 401 558 381 576 q 433 517 421 540 q 444 467 444 493 q 435 413 444 436 l 419 376 l 551 376 l 375 797 q 367 825 368 813 q 365 850 365 838 q 377 903 365 879 q 409 944 389 926 q 454 972 429 963 q 507 982 479 982 q 577 960 546 982 q 628 893 608 938 l 925 178 z "},"B":{"ha":883,"x_min":57,"x_max":831,"o":"m 315 706 l 315 579 l 517 579 q 558 600 544 579 q 572 647 572 621 q 559 688 572 669 q 517 706 546 706 l 315 706 m 315 382 l 315 271 l 517 271 q 559 289 546 271 q 572 326 572 307 q 559 365 572 347 q 517 382 546 382 l 315 382 m 57 842 q 179 978 57 978 l 606 978 q 696 956 657 978 q 761 899 735 935 q 801 818 788 864 q 814 725 814 772 q 778 578 814 642 q 668 499 743 515 q 735 474 706 494 q 786 419 765 453 q 819 343 807 386 q 831 253 831 300 q 817 156 831 201 q 774 75 803 110 q 698 20 744 40 q 588 0 651 0 l 186 0 q 57 138 57 0 l 57 842 z "},"C":{"ha":1003,"x_min":49,"x_max":967,"o":"m 351 0 q 125 78 201 0 q 49 315 49 157 l 49 663 q 125 899 49 821 q 351 978 201 978 l 801 978 q 928 944 889 978 q 967 839 967 910 q 928 736 967 768 q 801 704 889 704 l 358 704 q 318 667 319 704 l 318 315 q 358 275 318 275 l 806 275 q 930 241 893 275 q 967 138 967 207 q 930 33 967 67 q 806 0 893 0 l 351 0 z "},"D":{"ha":938,"x_min":56,"x_max":932,"o":"m 325 272 l 432 272 q 520 288 479 272 q 592 331 561 303 q 640 399 622 358 q 657 489 657 439 q 640 578 657 539 q 593 647 624 618 q 522 690 563 675 q 431 704 481 704 l 325 704 l 325 272 m 56 842 q 66 891 56 867 q 95 935 76 915 q 140 966 114 954 q 196 978 165 978 l 410 978 q 627 939 531 978 q 791 833 724 900 q 895 678 858 767 q 932 492 932 590 q 894 299 932 388 q 790 147 857 211 q 631 44 724 82 q 431 0 539 6 l 196 0 q 92 36 129 0 q 56 136 56 72 l 56 842 z "},"E":{"ha":919,"x_min":56,"x_max":865,"o":"m 190 0 q 56 136 56 0 l 56 842 q 190 978 56 978 l 729 978 q 829 938 793 978 q 865 842 865 899 q 829 747 865 788 q 729 707 793 707 l 324 707 l 324 624 l 729 624 q 829 584 793 624 q 865 489 865 544 q 829 394 865 433 q 729 354 793 354 l 324 354 l 324 272 l 729 272 q 829 232 793 272 q 865 136 865 192 q 829 40 865 79 q 729 0 793 0 l 190 0 z "},"F":{"ha":882,"x_min":56,"x_max":865,"o":"m 324 354 l 324 129 q 283 29 324 64 q 190 -6 243 -6 q 96 28 136 -6 q 56 129 56 63 l 56 842 q 190 978 56 978 l 729 978 q 829 938 793 978 q 865 842 865 899 q 829 747 865 788 q 729 707 793 707 l 324 707 l 324 624 l 729 624 q 829 584 793 624 q 865 489 865 544 q 829 394 865 433 q 729 354 793 354 l 324 354 z "},"G":{"ha":1021,"x_min":49,"x_max":967,"o":"m 967 135 q 928 35 967 68 q 793 1 889 1 l 351 1 q 125 80 201 1 q 49 317 49 158 l 49 663 q 125 899 49 821 q 351 978 201 978 l 804 978 q 926 944 886 978 q 967 840 967 911 q 804 704 967 704 l 358 704 q 329 695 340 704 q 318 667 318 686 l 318 317 q 358 276 318 276 l 699 276 l 699 467 q 738 567 699 533 q 835 600 778 600 q 927 567 888 600 q 967 467 967 533 l 967 135 z "},"H":{"ha":1035,"x_min":56,"x_max":978,"o":"m 978 129 q 938 28 978 63 q 843 -6 897 -6 q 748 28 788 -6 q 708 129 708 63 l 708 354 l 325 354 l 325 129 q 285 28 325 63 q 190 -6 246 -6 q 96 28 136 -6 q 56 129 56 63 l 56 847 q 96 948 56 914 q 190 982 136 982 q 285 948 246 982 q 325 847 325 914 l 325 624 l 708 624 l 708 847 q 748 948 708 914 q 843 982 788 982 q 938 948 897 982 q 978 847 978 914 l 978 129 z "},"I":{"ha":381,"x_min":54,"x_max":324,"o":"m 324 129 q 283 28 324 63 q 189 -6 243 -6 q 94 28 133 -6 q 54 129 54 63 l 54 849 q 94 947 54 913 q 189 982 133 982 q 283 947 243 982 q 324 849 324 913 l 324 129 z "},"J":{"ha":704,"x_min":11,"x_max":656,"o":"m 656 488 q 628 286 656 376 q 544 132 600 196 q 406 34 489 68 q 211 0 322 0 l 147 0 q 47 40 83 0 q 11 136 11 81 q 47 231 11 192 q 147 271 83 271 l 188 271 q 274 281 236 271 q 337 313 311 290 q 376 375 363 336 q 389 471 389 414 l 389 849 q 428 947 389 913 q 522 982 468 982 q 616 947 576 982 q 656 849 656 913 l 656 488 z "},"K":{"ha":826,"x_min":56,"x_max":793,"o":"m 325 129 q 285 28 325 63 q 190 -6 244 -6 q 95 28 135 -6 q 56 129 56 63 l 56 849 q 95 947 56 913 q 190 982 135 982 q 285 947 244 982 q 325 849 325 913 l 325 618 l 546 931 q 588 969 564 957 q 650 982 613 982 q 753 944 717 982 q 790 847 790 906 q 760 763 790 797 l 533 507 l 761 215 q 793 131 793 175 q 754 31 793 68 q 653 -6 715 -6 q 595 7 622 -6 q 549 47 568 19 l 325 360 l 325 129 z "},"L":{"ha":743,"x_min":56,"x_max":726,"o":"m 190 0 q 56 136 56 0 l 56 847 q 96 948 56 914 q 190 982 136 982 q 283 947 243 982 q 324 847 324 913 l 324 272 l 599 272 q 694 232 661 272 q 726 136 726 192 q 694 40 726 79 q 599 0 661 0 l 190 0 z "},"M":{"ha":1196,"x_min":57,"x_max":1167,"o":"m 57 892 q 143 978 57 978 l 825 978 q 910 956 871 978 q 964 875 949 935 l 1163 164 q 1166 144 1165 153 q 1167 124 1167 135 q 1128 30 1167 65 q 1033 -6 1089 -6 q 950 19 985 -6 q 901 94 915 44 l 731 707 l 660 707 l 660 129 q 620 28 660 63 q 525 -6 581 -6 q 429 28 469 -6 q 389 129 389 63 l 389 707 l 325 707 l 325 129 q 285 28 325 63 q 192 -6 246 -6 q 97 28 136 -6 q 57 129 57 63 l 57 892 z "},"N":{"ha":1049,"x_min":56,"x_max":992,"o":"m 360 704 q 324 668 324 704 l 324 136 q 292 27 324 61 q 190 -7 261 -7 q 56 136 56 -7 l 56 892 q 139 978 56 978 l 906 978 q 992 892 992 978 l 992 136 q 857 -6 992 -6 q 722 136 722 -6 l 722 668 q 688 704 722 704 l 360 704 z "},"O":{"ha":1038,"x_min":49,"x_max":986,"o":"m 986 315 q 910 78 986 157 q 683 0 833 0 l 351 0 q 125 78 201 0 q 49 315 49 157 l 49 663 q 125 899 49 821 q 351 978 201 978 l 683 978 q 910 899 833 978 q 986 663 986 821 l 986 315 m 360 704 q 329 695 340 704 q 318 667 318 686 l 318 315 q 360 275 318 275 l 675 275 q 715 315 715 275 l 715 663 q 675 704 715 704 l 360 704 z "},"P":{"ha":857,"x_min":57,"x_max":840,"o":"m 326 133 q 192 -6 326 -6 q 91 28 122 -6 q 60 133 60 63 l 60 460 q 96 583 60 543 q 211 624 132 624 l 551 624 q 606 665 606 624 q 551 707 606 707 l 189 707 q 91 741 125 707 q 57 846 57 775 q 186 978 57 978 l 536 978 q 840 665 840 978 q 539 354 840 354 l 326 354 l 326 133 z "},"Q":{"ha":1038,"x_min":49,"x_max":986,"o":"m 986 315 q 910 78 986 157 q 683 0 833 0 l 660 0 l 660 -118 q 648 -178 660 -153 q 617 -222 636 -204 q 574 -248 599 -239 q 525 -257 550 -257 q 476 -248 500 -257 q 433 -222 451 -239 q 402 -178 414 -204 q 390 -118 390 -153 l 390 0 l 351 0 q 125 78 201 0 q 49 315 49 157 l 49 663 q 125 899 49 821 q 351 978 201 978 l 683 978 q 910 899 833 978 q 986 663 986 821 l 986 315 m 360 704 q 329 695 340 704 q 318 667 318 686 l 318 315 q 360 275 318 275 l 675 275 q 715 315 715 275 l 715 663 q 675 704 715 704 l 360 704 z "},"R":{"ha":857,"x_min":35,"x_max":819,"o":"m 819 665 q 532 354 819 360 l 504 354 l 619 244 q 660 190 647 218 q 672 136 672 161 q 664 88 672 113 q 639 42 656 63 q 599 8 622 21 q 546 -6 575 -6 q 485 6 517 -6 q 426 46 454 18 l 103 364 q 74 392 86 379 q 53 420 61 406 q 42 451 46 435 q 38 492 38 468 q 71 588 38 551 q 175 624 104 624 l 531 624 q 583 665 583 624 q 531 707 583 707 l 167 707 q 69 741 103 707 q 35 846 35 775 q 165 978 35 978 l 515 978 q 819 665 819 978 z "},"S":{"ha":793,"x_min":40,"x_max":756,"o":"m 756 311 q 451 0 756 0 l 183 0 q 125 12 150 0 q 83 42 100 24 q 58 85 67 61 q 50 136 50 110 q 58 185 50 161 q 84 228 67 210 q 127 259 101 247 q 186 271 153 271 l 467 271 q 508 287 494 271 q 521 321 521 303 q 508 357 521 340 q 467 374 494 374 l 328 374 q 113 443 185 374 q 40 664 40 513 q 347 978 40 978 l 564 978 q 625 966 599 978 q 669 935 651 954 q 697 892 688 917 q 706 843 706 868 q 697 793 706 818 q 669 749 688 768 q 624 717 651 729 q 563 706 597 706 l 329 706 q 289 690 301 706 q 276 654 276 674 q 289 620 276 636 q 329 604 301 604 l 468 604 q 685 533 615 604 q 756 311 756 463 z "},"T":{"ha":775,"x_min":22,"x_max":749,"o":"m 521 129 q 481 28 521 63 q 385 -6 440 -6 q 291 28 331 -6 q 251 129 251 63 l 251 706 l 157 706 q 58 746 93 706 q 22 842 22 786 q 58 938 22 897 q 157 978 93 978 l 613 978 q 713 938 676 978 q 749 842 749 897 q 713 746 749 786 q 613 706 676 706 l 521 706 l 521 129 z "},"U":{"ha":1050,"x_min":56,"x_max":993,"o":"m 689 274 q 722 304 722 274 l 722 839 q 754 948 722 914 q 856 982 786 982 q 993 839 993 982 l 993 86 q 910 0 993 0 l 140 0 q 56 86 56 0 l 56 839 q 190 981 56 981 q 325 839 325 981 l 325 310 q 360 274 325 274 l 689 274 z "},"V":{"ha":932,"x_min":19,"x_max":914,"o":"m 454 407 l 647 896 q 699 961 665 940 q 768 982 732 982 q 874 947 835 982 q 914 854 914 913 q 901 800 914 826 l 578 79 q 533 19 561 43 q 450 -6 504 -6 q 369 19 396 -6 q 328 81 343 43 l 32 800 q 23 826 26 813 q 19 854 19 839 q 59 946 19 910 q 165 982 99 982 q 238 961 206 982 q 285 896 269 940 l 454 407 z "},"W":{"ha":1199,"x_min":57,"x_max":1169,"o":"m 57 847 q 97 948 57 914 q 193 982 136 982 q 286 947 246 982 q 326 847 326 913 l 326 272 l 411 272 l 411 847 q 451 948 411 914 q 546 982 490 982 q 640 948 600 982 q 679 847 679 914 l 679 272 l 731 272 l 903 882 q 951 958 918 933 q 1025 982 985 982 q 1079 973 1053 982 q 1126 947 1106 964 q 1158 907 1146 931 q 1169 854 1169 883 q 1163 813 1169 836 l 964 103 q 940 51 956 71 q 904 20 924 32 q 864 4 885 8 q 825 0 843 0 l 193 0 q 57 136 57 0 l 57 847 z "},"X":{"ha":822,"x_min":50,"x_max":771,"o":"m 515 913 q 628 982 556 982 q 737 947 703 982 q 771 864 771 913 q 765 812 771 831 q 749 776 760 793 l 553 488 l 749 199 q 771 129 771 165 q 733 34 771 74 q 636 -6 696 -6 q 563 12 592 -6 q 515 64 535 29 l 410 250 l 306 64 q 254 11 285 28 q 178 -6 224 -6 q 88 29 125 -6 q 50 122 50 64 q 56 160 50 139 q 74 199 63 181 l 268 488 l 74 776 q 57 806 64 790 q 50 850 50 822 q 85 943 50 904 q 194 982 119 982 q 306 913 267 982 l 410 725 l 515 913 z "},"Y":{"ha":800,"x_min":25,"x_max":775,"o":"m 521 913 q 573 965 542 949 q 636 982 604 982 q 688 972 663 982 q 732 944 713 961 q 763 902 751 926 q 775 850 775 878 q 753 776 775 813 l 536 424 l 536 129 q 496 28 536 63 q 401 -6 456 -6 q 306 28 346 -6 q 267 129 267 63 l 267 424 l 47 778 q 25 846 25 813 q 37 899 25 874 q 68 942 49 924 q 113 972 88 961 q 165 982 138 982 q 226 966 194 982 q 279 914 258 950 l 400 703 l 521 913 z "},"Z":{"ha":860,"x_min":40,"x_max":822,"o":"m 686 271 q 786 231 750 271 q 822 136 822 192 q 786 40 822 81 q 686 0 750 0 l 172 0 q 73 35 106 0 q 40 117 40 71 q 48 172 40 144 q 78 228 56 199 l 443 706 l 179 706 q 80 746 115 706 q 44 842 44 786 q 80 938 44 897 q 179 978 115 978 l 686 978 q 744 968 719 978 q 785 942 769 958 q 808 904 800 925 q 815 863 815 883 q 807 806 815 828 q 783 765 799 785 l 428 271 l 686 271 z "},"[":{"ha":482,"x_min":129,"x_max":454,"o":"m 301 1047 l 301 -33 l 385 -33 q 454 -101 454 -33 q 385 -171 454 -171 l 182 -171 q 143 -160 157 -171 q 129 -112 129 -149 l 129 1128 q 140 1175 129 1164 q 182 1186 151 1186 l 389 1186 q 454 1121 454 1186 q 389 1047 454 1047 l 301 1047 z "},"\\":{"ha":511,"x_min":15,"x_max":514,"o":"m 117 1149 q 165 1131 143 1149 q 199 1079 188 1114 l 510 -7 q 514 -42 514 -24 q 482 -104 514 -81 q 410 -128 450 -128 q 328 -57 349 -128 l 19 1029 q 15 1060 15 1043 q 47 1124 15 1100 q 117 1149 79 1149 z "},"]":{"ha":482,"x_min":128,"x_max":451,"o":"m 193 1047 q 128 1121 128 1047 q 193 1186 128 1186 l 399 1186 q 441 1175 431 1186 q 451 1128 451 1164 l 451 -112 q 438 -160 451 -149 q 399 -171 425 -171 l 196 -171 q 128 -101 128 -171 q 196 -33 128 -33 l 281 -33 l 281 1047 l 193 1047 z "},"^":{"ha":768,"x_min":25,"x_max":744,"o":"m 194 549 q 124 519 158 519 q 54 549 83 519 q 25 619 25 579 q 54 689 25 660 l 313 949 q 383 982 346 982 q 454 949 421 982 l 714 689 q 744 619 744 658 q 736 581 744 599 q 714 549 728 563 q 682 528 700 536 q 644 519 664 519 q 574 549 603 519 l 383 738 l 194 549 z "},"_":{"ha":976,"x_min":0,"x_max":976,"o":"m 135 -297 q 36 -258 72 -297 q 0 -164 0 -218 q 36 -70 0 -110 q 135 -31 72 -31 l 840 -31 q 942 -70 907 -31 q 976 -164 976 -110 q 942 -258 976 -218 q 840 -297 907 -297 l 135 -297 z "},"`":{"ha":357,"x_min":39,"x_max":317,"o":"m 58 1201 q 43 1224 47 1213 q 39 1247 39 1236 q 60 1296 39 1275 q 110 1317 82 1317 q 154 1296 135 1317 l 297 1149 q 317 1103 317 1129 q 296 1053 317 1075 q 247 1032 275 1032 q 199 1054 221 1032 l 58 1201 z "},"a":{"ha":964,"x_min":25,"x_max":935,"o":"m 25 0 m 925 178 q 933 150 931 164 q 935 125 935 136 q 922 70 935 94 q 889 29 910 46 q 842 3 868 13 q 788 -6 815 -6 q 672 82 708 -6 l 653 129 l 310 129 l 288 82 q 168 -6 246 -6 q 115 4 140 -6 q 69 32 89 14 q 38 74 50 50 q 25 128 25 99 q 26 153 25 140 q 33 178 26 165 l 182 507 q 232 574 201 551 q 300 596 263 596 q 355 586 329 596 q 401 558 381 576 q 433 517 421 540 q 444 467 444 493 q 435 413 444 436 l 419 376 l 551 376 l 375 797 q 367 825 368 813 q 365 850 365 838 q 377 903 365 879 q 409 944 389 926 q 454 972 429 963 q 507 982 479 982 q 577 960 546 982 q 628 893 608 938 l 925 178 z "},"b":{"ha":883,"x_min":57,"x_max":831,"o":"m 57 0 m 315 706 l 315 579 l 517 579 q 558 600 544 579 q 572 647 572 621 q 559 688 572 669 q 517 706 546 706 l 315 706 m 315 382 l 315 271 l 517 271 q 559 289 546 271 q 572 326 572 307 q 559 365 572 347 q 517 382 546 382 l 315 382 m 57 842 q 179 978 57 978 l 606 978 q 696 956 657 978 q 761 899 735 935 q 801 818 788 864 q 814 725 814 772 q 778 578 814 642 q 668 499 743 515 q 735 474 706 494 q 786 419 765 453 q 819 343 807 386 q 831 253 831 300 q 817 156 831 201 q 774 75 803 110 q 698 20 744 40 q 588 0 651 0 l 186 0 q 57 138 57 0 l 57 842 z "},"c":{"ha":1003,"x_min":49,"x_max":967,"o":"m 49 0 m 351 0 q 125 78 201 0 q 49 315 49 157 l 49 663 q 125 899 49 821 q 351 978 201 978 l 801 978 q 928 944 889 978 q 967 839 967 910 q 928 736 967 768 q 801 704 889 704 l 358 704 q 318 667 319 704 l 318 315 q 358 275 318 275 l 806 275 q 930 241 893 275 q 967 138 967 207 q 930 33 967 67 q 806 0 893 0 l 351 0 z "},"d":{"ha":938,"x_min":56,"x_max":932,"o":"m 56 0 m 325 272 l 432 272 q 520 288 479 272 q 592 331 561 303 q 640 399 622 358 q 657 489 657 439 q 640 578 657 539 q 593 647 624 618 q 522 690 563 675 q 431 704 481 704 l 325 704 l 325 272 m 56 842 q 66 891 56 867 q 95 935 76 915 q 140 966 114 954 q 196 978 165 978 l 410 978 q 627 939 531 978 q 791 833 724 900 q 895 678 858 767 q 932 492 932 590 q 894 299 932 388 q 790 147 857 211 q 631 44 724 82 q 431 0 539 6 l 196 0 q 92 36 129 0 q 56 136 56 72 l 56 842 z "},"e":{"ha":919,"x_min":56,"x_max":865,"o":"m 56 0 m 190 0 q 56 136 56 0 l 56 842 q 190 978 56 978 l 729 978 q 829 938 793 978 q 865 842 865 899 q 829 747 865 788 q 729 707 793 707 l 324 707 l 324 624 l 729 624 q 829 584 793 624 q 865 489 865 544 q 829 394 865 433 q 729 354 793 354 l 324 354 l 324 272 l 729 272 q 829 232 793 272 q 865 136 865 192 q 829 40 865 79 q 729 0 793 0 l 190 0 z "},"f":{"ha":882,"x_min":56,"x_max":865,"o":"m 56 0 m 324 354 l 324 129 q 283 29 324 64 q 190 -6 243 -6 q 96 28 136 -6 q 56 129 56 63 l 56 842 q 190 978 56 978 l 729 978 q 829 938 793 978 q 865 842 865 899 q 829 747 865 788 q 729 707 793 707 l 324 707 l 324 624 l 729 624 q 829 584 793 624 q 865 489 865 544 q 829 394 865 433 q 729 354 793 354 l 324 354 z "},"g":{"ha":1021,"x_min":49,"x_max":967,"o":"m 49 1 m 967 135 q 928 35 967 68 q 793 1 889 1 l 351 1 q 125 80 201 1 q 49 317 49 158 l 49 663 q 125 899 49 821 q 351 978 201 978 l 804 978 q 926 944 886 978 q 967 840 967 911 q 804 704 967 704 l 358 704 q 329 695 340 704 q 318 667 318 686 l 318 317 q 358 276 318 276 l 699 276 l 699 467 q 738 567 699 533 q 835 600 778 600 q 927 567 888 600 q 967 467 967 533 l 967 135 z "},"h":{"ha":1035,"x_min":56,"x_max":978,"o":"m 56 0 m 978 129 q 938 28 978 63 q 843 -6 897 -6 q 748 28 788 -6 q 708 129 708 63 l 708 354 l 325 354 l 325 129 q 285 28 325 63 q 190 -6 246 -6 q 96 28 136 -6 q 56 129 56 63 l 56 847 q 96 948 56 914 q 190 982 136 982 q 285 948 246 982 q 325 847 325 914 l 325 624 l 708 624 l 708 847 q 748 948 708 914 q 843 982 788 982 q 938 948 897 982 q 978 847 978 914 l 978 129 z "},"i":{"ha":381,"x_min":54,"x_max":324,"o":"m 54 0 m 324 129 q 283 28 324 63 q 189 -6 243 -6 q 94 28 133 -6 q 54 129 54 63 l 54 849 q 94 947 54 913 q 189 982 133 982 q 283 947 243 982 q 324 849 324 913 l 324 129 z "},"j":{"ha":704,"x_min":11,"x_max":656,"o":"m 11 0 m 656 488 q 628 286 656 376 q 544 132 600 196 q 406 34 489 68 q 211 0 322 0 l 147 0 q 47 40 83 0 q 11 136 11 81 q 47 231 11 192 q 147 271 83 271 l 188 271 q 274 281 236 271 q 337 313 311 290 q 376 375 363 336 q 389 471 389 414 l 389 849 q 428 947 389 913 q 522 982 468 982 q 616 947 576 982 q 656 849 656 913 l 656 488 z "},"k":{"ha":826,"x_min":56,"x_max":793,"o":"m 56 0 m 325 129 q 285 28 325 63 q 190 -6 244 -6 q 95 28 135 -6 q 56 129 56 63 l 56 849 q 95 947 56 913 q 190 982 135 982 q 285 947 244 982 q 325 849 325 913 l 325 618 l 546 931 q 588 969 564 957 q 650 982 613 982 q 753 944 717 982 q 790 847 790 906 q 760 763 790 797 l 533 507 l 761 215 q 793 131 793 175 q 754 31 793 68 q 653 -6 715 -6 q 595 7 622 -6 q 549 47 568 19 l 325 360 l 325 129 z "},"l":{"ha":743,"x_min":56,"x_max":726,"o":"m 56 0 m 190 0 q 56 136 56 0 l 56 847 q 96 948 56 914 q 190 982 136 982 q 283 947 243 982 q 324 847 324 913 l 324 272 l 599 272 q 694 232 661 272 q 726 136 726 192 q 694 40 726 79 q 599 0 661 0 l 190 0 z "},"m":{"ha":1196,"x_min":57,"x_max":1167,"o":"m 57 0 m 57 892 q 143 978 57 978 l 825 978 q 910 956 871 978 q 964 875 949 935 l 1163 164 q 1166 144 1165 153 q 1167 124 1167 135 q 1128 30 1167 65 q 1033 -6 1089 -6 q 950 19 985 -6 q 901 94 915 44 l 731 707 l 660 707 l 660 129 q 620 28 660 63 q 525 -6 581 -6 q 429 28 469 -6 q 389 129 389 63 l 389 707 l 325 707 l 325 129 q 285 28 325 63 q 192 -6 246 -6 q 97 28 136 -6 q 57 129 57 63 l 57 892 z "},"n":{"ha":1049,"x_min":56,"x_max":992,"o":"m 56 0 m 360 704 q 324 668 324 704 l 324 136 q 292 27 324 61 q 190 -7 261 -7 q 56 136 56 -7 l 56 892 q 139 978 56 978 l 906 978 q 992 892 992 978 l 992 136 q 857 -6 992 -6 q 722 136 722 -6 l 722 668 q 688 704 722 704 l 360 704 z "},"o":{"ha":1038,"x_min":49,"x_max":986,"o":"m 49 0 m 986 315 q 910 78 986 157 q 683 0 833 0 l 351 0 q 125 78 201 0 q 49 315 49 157 l 49 663 q 125 899 49 821 q 351 978 201 978 l 683 978 q 910 899 833 978 q 986 663 986 821 l 986 315 m 360 704 q 329 695 340 704 q 318 667 318 686 l 318 315 q 360 275 318 275 l 675 275 q 715 315 715 275 l 715 663 q 675 704 715 704 l 360 704 z "},"p":{"ha":857,"x_min":57,"x_max":840,"o":"m 57 0 m 326 133 q 192 -6 326 -6 q 91 28 122 -6 q 60 133 60 63 l 60 460 q 96 583 60 543 q 211 624 132 624 l 551 624 q 606 665 606 624 q 551 707 606 707 l 189 707 q 91 741 125 707 q 57 846 57 775 q 186 978 57 978 l 536 978 q 840 665 840 978 q 539 354 840 354 l 326 354 l 326 133 z "},"q":{"ha":1038,"x_min":49,"x_max":986,"o":"m 49 0 m 986 315 q 910 78 986 157 q 683 0 833 0 l 660 0 l 660 -118 q 648 -178 660 -153 q 617 -222 636 -204 q 574 -248 599 -239 q 525 -257 550 -257 q 476 -248 500 -257 q 433 -222 451 -239 q 402 -178 414 -204 q 390 -118 390 -153 l 390 0 l 351 0 q 125 78 201 0 q 49 315 49 157 l 49 663 q 125 899 49 821 q 351 978 201 978 l 683 978 q 910 899 833 978 q 986 663 986 821 l 986 315 m 360 704 q 329 695 340 704 q 318 667 318 686 l 318 315 q 360 275 318 275 l 675 275 q 715 315 715 275 l 715 663 q 675 704 715 704 l 360 704 z "},"r":{"ha":857,"x_min":35,"x_max":819,"o":"m 35 0 m 819 665 q 532 354 819 360 l 504 354 l 619 244 q 660 190 647 218 q 672 136 672 161 q 664 88 672 113 q 639 42 656 63 q 599 8 622 21 q 546 -6 575 -6 q 485 6 517 -6 q 426 46 454 18 l 103 364 q 74 392 86 379 q 53 420 61 406 q 42 451 46 435 q 38 492 38 468 q 71 588 38 551 q 175 624 104 624 l 531 624 q 583 665 583 624 q 531 707 583 707 l 167 707 q 69 741 103 707 q 35 846 35 775 q 165 978 35 978 l 515 978 q 819 665 819 978 z "},"s":{"ha":793,"x_min":40,"x_max":756,"o":"m 40 0 m 756 311 q 451 0 756 0 l 183 0 q 125 12 150 0 q 83 42 100 24 q 58 85 67 61 q 50 136 50 110 q 58 185 50 161 q 84 228 67 210 q 127 259 101 247 q 186 271 153 271 l 467 271 q 508 287 494 271 q 521 321 521 303 q 508 357 521 340 q 467 374 494 374 l 328 374 q 113 443 185 374 q 40 664 40 513 q 347 978 40 978 l 564 978 q 625 966 599 978 q 669 935 651 954 q 697 892 688 917 q 706 843 706 868 q 697 793 706 818 q 669 749 688 768 q 624 717 651 729 q 563 706 597 706 l 329 706 q 289 690 301 706 q 276 654 276 674 q 289 620 276 636 q 329 604 301 604 l 468 604 q 685 533 615 604 q 756 311 756 463 z "},"t":{"ha":775,"x_min":22,"x_max":749,"o":"m 22 0 m 521 129 q 481 28 521 63 q 385 -6 440 -6 q 291 28 331 -6 q 251 129 251 63 l 251 706 l 157 706 q 58 746 93 706 q 22 842 22 786 q 58 938 22 897 q 157 978 93 978 l 613 978 q 713 938 676 978 q 749 842 749 897 q 713 746 749 786 q 613 706 676 706 l 521 706 l 521 129 z "},"u":{"ha":1050,"x_min":56,"x_max":993,"o":"m 56 0 m 689 274 q 722 304 722 274 l 722 839 q 754 948 722 914 q 856 982 786 982 q 993 839 993 982 l 993 86 q 910 0 993 0 l 140 0 q 56 86 56 0 l 56 839 q 190 981 56 981 q 325 839 325 981 l 325 310 q 360 274 325 274 l 689 274 z "},"v":{"ha":932,"x_min":19,"x_max":914,"o":"m 19 0 m 454 407 l 647 896 q 699 961 665 940 q 768 982 732 982 q 874 947 835 982 q 914 854 914 913 q 901 800 914 826 l 578 79 q 533 19 561 43 q 450 -6 504 -6 q 369 19 396 -6 q 328 81 343 43 l 32 800 q 23 826 26 813 q 19 854 19 839 q 59 946 19 910 q 165 982 99 982 q 238 961 206 982 q 285 896 269 940 l 454 407 z "},"w":{"ha":1199,"x_min":57,"x_max":1169,"o":"m 57 0 m 57 847 q 97 948 57 914 q 193 982 136 982 q 286 947 246 982 q 326 847 326 913 l 326 272 l 411 272 l 411 847 q 451 948 411 914 q 546 982 490 982 q 640 948 600 982 q 679 847 679 914 l 679 272 l 731 272 l 903 882 q 951 958 918 933 q 1025 982 985 982 q 1079 973 1053 982 q 1126 947 1106 964 q 1158 907 1146 931 q 1169 854 1169 883 q 1163 813 1169 836 l 964 103 q 940 51 956 71 q 904 20 924 32 q 864 4 885 8 q 825 0 843 0 l 193 0 q 57 136 57 0 l 57 847 z "},"x":{"ha":822,"x_min":50,"x_max":771,"o":"m 50 0 m 515 913 q 628 982 556 982 q 737 947 703 982 q 771 864 771 913 q 765 812 771 831 q 749 776 760 793 l 553 488 l 749 199 q 771 129 771 165 q 733 34 771 74 q 636 -6 696 -6 q 563 12 592 -6 q 515 64 535 29 l 410 250 l 306 64 q 254 11 285 28 q 178 -6 224 -6 q 88 29 125 -6 q 50 122 50 64 q 56 160 50 139 q 74 199 63 181 l 268 488 l 74 776 q 57 806 64 790 q 50 850 50 822 q 85 943 50 904 q 194 982 119 982 q 306 913 267 982 l 410 725 l 515 913 z "},"y":{"ha":800,"x_min":25,"x_max":775,"o":"m 25 0 m 521 913 q 573 965 542 949 q 636 982 604 982 q 688 972 663 982 q 732 944 713 961 q 763 902 751 926 q 775 850 775 878 q 753 776 775 813 l 536 424 l 536 129 q 496 28 536 63 q 401 -6 456 -6 q 306 28 346 -6 q 267 129 267 63 l 267 424 l 47 778 q 25 846 25 813 q 37 899 25 874 q 68 942 49 924 q 113 972 88 961 q 165 982 138 982 q 226 966 194 982 q 279 914 258 950 l 400 703 l 521 913 z "},"z":{"ha":860,"x_min":40,"x_max":822,"o":"m 40 0 m 686 271 q 786 231 750 271 q 822 136 822 192 q 786 40 822 81 q 686 0 750 0 l 172 0 q 73 35 106 0 q 40 117 40 71 q 48 172 40 144 q 78 228 56 199 l 443 706 l 179 706 q 80 746 115 706 q 44 842 44 786 q 80 938 44 897 q 179 978 115 978 l 686 978 q 744 968 719 978 q 785 942 769 958 q 808 904 800 925 q 815 863 815 883 q 807 806 815 828 q 783 765 799 785 l 428 271 l 686 271 z "},"{":{"ha":497,"x_min":26,"x_max":415,"o":"m 317 -171 q 117 -49 117 -171 l 117 407 q 100 442 117 442 q 26 513 26 442 q 100 585 26 585 q 117 613 117 585 l 117 1064 q 326 1186 117 1186 l 346 1186 q 415 1114 415 1186 q 346 1047 415 1047 l 292 1047 q 260 1022 260 1047 l 260 626 q 171 508 260 554 q 260 389 260 457 l 260 -26 q 292 -33 260 -33 l 336 -33 q 400 -101 400 -33 q 336 -171 400 -171 l 317 -171 z "},"|":{"ha":513,"x_min":163,"x_max":350,"o":"m 256 1149 q 322 1126 294 1149 q 350 1056 350 1104 l 350 -31 q 322 -99 350 -75 q 256 -122 294 -122 q 190 -99 217 -122 q 163 -31 163 -75 l 163 1056 q 190 1126 163 1104 q 256 1149 217 1149 z "},"}":{"ha":497,"x_min":26,"x_max":415,"o":"m 124 1186 q 324 1064 324 1186 l 324 610 q 342 575 324 575 q 415 504 415 575 q 342 432 415 432 q 324 403 324 432 l 324 -49 q 114 -171 324 -171 l 96 -171 q 26 -99 26 -171 q 96 -32 26 -32 l 150 -32 q 181 -7 181 -32 l 181 390 q 271 508 181 460 q 181 628 181 558 l 181 1043 q 150 1049 181 1049 l 104 1049 q 40 1118 40 1049 q 104 1186 40 1186 l 124 1186 z "},"~":{"ha":865,"x_min":54,"x_max":790,"o":"m 650 606 q 706 636 679 636 q 764 613 738 636 q 790 554 790 590 q 770 483 790 514 q 719 429 750 451 q 649 395 688 407 q 574 383 611 383 q 497 396 536 383 q 422 423 458 408 q 351 450 386 438 q 288 463 317 463 q 264 460 274 463 q 244 451 254 457 q 223 433 235 444 q 194 406 211 422 q 139 375 164 375 q 81 398 107 375 q 54 457 54 421 q 74 528 54 496 q 124 582 93 560 q 194 616 156 604 q 271 628 233 628 q 345 615 308 628 q 419 588 382 603 q 490 561 456 574 q 557 549 525 549 q 581 551 571 549 q 600 560 590 554 q 622 578 610 567 q 650 606 633 589 z "}," ":{"ha":325,"x_min":0,"x_max":0,"o":""},"¡":{"ha":375,"x_min":51,"x_max":324,"o":"m 56 207 q 67 264 56 239 q 97 306 78 289 q 140 333 115 324 q 189 342 164 342 q 283 306 243 342 q 324 207 324 271 l 324 -149 q 283 -249 324 -215 q 189 -283 243 -283 q 94 -249 133 -283 q 56 -149 56 -215 l 56 207 m 51 568 q 62 619 51 594 q 91 663 72 644 q 134 693 110 682 q 186 704 158 704 q 238 693 214 704 q 281 663 263 682 q 310 619 300 644 q 321 568 321 594 q 310 516 321 540 q 281 473 300 492 q 238 443 263 454 q 186 432 214 432 q 134 443 158 432 q 91 473 110 454 q 62 516 72 492 q 51 568 51 540 z "},"¢":{"ha":800,"x_min":35,"x_max":757,"o":"m 567 978 l 619 978 q 678 966 653 978 q 722 935 704 954 q 748 891 739 915 q 757 840 757 867 q 748 789 757 814 q 722 745 739 764 q 678 715 704 726 q 619 703 653 703 l 567 703 l 567 271 l 619 271 q 679 259 654 271 q 721 228 704 247 q 746 185 738 210 q 754 136 754 161 q 721 41 754 82 q 619 0 688 0 l 567 0 l 567 -22 q 546 -72 567 -56 q 501 -89 525 -89 q 456 -72 476 -89 q 436 -22 436 -56 l 436 7 q 261 66 336 21 q 135 176 186 111 q 60 319 85 240 q 35 482 35 399 q 60 644 35 564 q 135 790 85 724 q 260 903 185 856 q 436 967 335 950 l 436 997 q 456 1049 436 1033 q 501 1064 476 1064 q 546 1049 525 1064 q 567 997 567 1033 l 567 978 m 296 489 q 331 365 296 422 q 436 285 365 308 l 436 689 q 331 610 365 665 q 296 489 296 556 z "},"£":{"ha":732,"x_min":-19,"x_max":710,"o":"m 47 419 q -3 440 13 419 q -19 485 -19 460 q -3 529 -19 508 q 47 550 13 550 l 57 550 q 94 727 63 647 q 181 863 125 807 q 317 950 238 919 q 501 981 397 981 l 565 981 q 665 940 629 981 q 701 844 701 900 q 665 749 701 789 q 565 710 629 710 l 524 710 q 384 674 436 710 q 325 550 332 639 l 508 550 q 559 529 543 550 q 575 485 575 508 q 559 440 575 460 q 508 419 543 419 l 324 419 l 324 271 l 581 271 q 676 231 643 271 q 710 136 710 192 q 676 40 710 81 q 581 0 643 0 l 189 0 q 56 139 56 0 l 56 419 l 47 419 z "},"¤":{"ha":861,"x_min":40,"x_max":811,"o":"m 118 485 q 144 607 118 547 l 75 676 q 40 756 40 711 q 50 799 40 778 q 76 836 60 821 q 115 861 93 851 q 158 871 136 871 q 198 863 178 871 q 236 838 218 856 l 307 767 q 424 790 363 790 q 485 783 456 790 q 543 765 515 776 l 614 836 q 653 863 632 854 q 696 872 675 872 q 739 863 718 872 q 776 836 760 853 q 801 799 792 819 q 810 756 810 778 q 801 715 810 736 q 775 675 793 693 l 704 604 q 722 547 715 576 q 729 485 729 517 q 706 368 729 424 l 778 297 q 803 258 796 279 q 811 218 811 238 q 801 175 811 196 q 776 138 792 154 q 740 110 761 121 q 696 100 718 100 q 617 136 653 100 l 547 206 q 424 179 488 179 q 304 204 358 179 l 236 136 q 197 109 217 117 q 156 101 176 101 q 113 111 133 101 q 76 136 92 121 q 50 172 60 151 q 40 217 40 193 q 49 258 40 238 q 75 297 57 279 l 143 365 q 118 485 118 419 m 264 485 q 276 422 264 451 q 310 372 289 393 q 361 338 332 350 q 424 325 390 325 q 486 338 457 325 q 538 372 515 350 q 572 422 560 393 q 585 485 585 451 q 572 547 585 518 q 538 599 560 576 q 486 633 515 621 q 424 646 457 646 q 361 633 390 646 q 310 599 332 621 q 276 547 289 576 q 264 485 264 518 z "},"¥":{"ha":800,"x_min":26,"x_max":775,"o":"m 211 226 q 139 245 165 226 q 113 293 113 264 q 137 341 113 321 q 211 361 161 361 l 267 361 l 267 397 l 211 397 q 139 417 165 397 q 113 464 113 436 q 199 531 113 522 l 49 776 q 26 849 26 811 q 39 899 26 875 q 72 941 51 922 q 117 971 92 960 q 171 982 143 982 q 229 965 199 982 q 281 913 260 947 l 400 708 l 519 913 q 631 982 560 982 q 683 971 657 982 q 730 941 710 960 q 763 899 750 922 q 775 849 775 875 q 769 809 775 824 q 751 776 763 794 l 601 528 q 652 506 636 524 q 668 464 668 488 q 641 417 668 436 q 569 397 614 397 l 536 397 l 536 361 l 569 361 q 644 341 619 361 q 668 293 668 321 q 641 245 668 264 q 569 226 614 226 l 536 226 l 536 129 q 496 28 536 63 q 401 -6 456 -6 q 306 28 346 -6 q 267 129 267 63 l 267 226 l 211 226 z "},"¦":{"ha":513,"x_min":163,"x_max":350,"o":"m 256 1149 q 322 1126 294 1149 q 350 1056 350 1104 l 350 754 q 322 685 350 710 q 256 661 294 661 q 190 685 217 661 q 163 754 163 710 l 163 1056 q 190 1126 163 1104 q 256 1149 217 1149 m 256 365 q 322 342 294 365 q 350 271 350 319 l 350 -31 q 322 -99 350 -75 q 256 -122 294 -122 q 190 -99 217 -122 q 163 -31 163 -75 l 163 271 q 190 342 163 319 q 256 365 217 365 z "},"§":{"ha":694,"x_min":92,"x_max":613,"o":"m 613 485 q 564 353 613 406 q 613 224 613 308 q 394 0 613 0 l 183 0 q 119 26 140 0 q 99 85 99 53 q 121 144 99 117 q 185 171 143 171 l 406 171 q 455 190 439 171 q 471 232 471 208 q 455 274 471 256 q 406 293 439 293 l 296 293 q 144 343 196 293 q 92 503 92 393 q 151 635 92 581 q 92 764 92 685 q 313 989 92 989 l 482 989 q 549 963 526 989 q 572 904 572 936 q 549 844 572 872 q 482 817 526 817 l 297 817 q 249 798 264 817 q 235 756 235 779 q 249 713 235 732 q 297 694 264 694 l 407 694 q 563 644 514 694 q 613 485 613 594 m 407 433 q 456 452 442 435 q 471 493 471 469 q 455 536 471 517 q 406 556 439 556 l 296 556 q 248 536 261 556 q 235 493 235 517 q 249 451 235 469 q 297 433 264 433 l 407 433 z "},"¨":{"ha":622,"x_min":39,"x_max":582,"o":"m 39 1146 q 68 1220 39 1190 q 140 1250 97 1250 q 214 1220 185 1250 q 243 1146 243 1190 q 214 1074 243 1103 q 140 1046 185 1046 q 68 1074 97 1046 q 39 1146 39 1103 m 378 1146 q 408 1220 378 1190 q 482 1250 439 1250 q 553 1220 525 1250 q 582 1146 582 1190 q 553 1074 582 1103 q 482 1046 525 1046 q 408 1074 439 1046 q 378 1146 378 1103 z "},"©":{"ha":1046,"x_min":25,"x_max":1022,"o":"m 524 988 q 716 949 625 988 q 875 842 807 910 q 983 683 943 774 q 1022 489 1022 593 q 983 295 1022 386 q 875 137 943 204 q 716 30 807 69 q 524 -10 625 -10 q 329 30 419 -10 q 171 137 239 69 q 64 295 103 204 q 25 489 25 386 q 64 683 25 593 q 171 842 103 774 q 329 949 239 910 q 524 988 419 988 m 525 932 q 353 897 433 932 q 213 801 272 861 q 118 660 153 740 q 83 488 83 579 q 118 315 83 396 q 213 175 153 235 q 353 81 272 115 q 525 46 433 46 q 698 81 617 46 q 840 175 779 115 q 935 315 900 235 q 969 488 969 396 q 935 660 969 579 q 840 801 900 740 q 698 897 779 861 q 525 932 617 932 m 406 485 q 412 438 406 461 q 432 396 418 415 q 467 362 446 376 q 515 342 488 347 q 556 337 533 338 q 599 331 579 336 q 633 315 619 326 q 646 279 646 304 q 624 235 646 247 q 569 222 601 222 q 466 238 515 222 q 378 285 417 253 q 318 366 340 317 q 296 485 296 415 q 318 602 296 553 q 378 682 340 651 q 466 727 417 713 q 569 742 515 742 q 624 729 601 742 q 646 685 646 717 q 633 646 646 657 q 599 631 619 635 q 556 628 579 628 q 515 624 533 628 q 431 572 457 611 q 406 485 406 533 z "},"ª":{"ha":572,"x_min":15,"x_max":556,"o":"m 250 635 l 328 635 l 293 738 l 250 635 m 374 507 l 199 507 l 172 442 q 142 401 161 414 q 101 389 124 389 q 42 410 69 389 q 15 465 15 431 q 17 483 15 474 q 22 499 18 492 l 219 932 q 246 968 231 954 q 294 982 261 982 q 341 969 325 982 q 368 932 357 956 l 547 499 q 556 465 556 483 q 528 410 556 431 q 467 389 500 389 q 426 401 446 389 q 394 442 406 414 l 374 507 z "},"«":{"ha":761,"x_min":39,"x_max":721,"o":"m 700 343 q 716 317 711 331 q 721 292 721 304 q 699 240 721 261 q 647 218 676 218 q 596 239 621 218 l 406 432 q 382 475 382 456 q 406 533 382 510 l 596 725 q 647 749 619 749 q 699 726 676 749 q 721 675 721 703 q 700 622 721 643 l 561 482 l 700 343 m 357 343 q 372 317 368 331 q 378 292 376 303 q 356 238 378 257 q 306 218 333 218 q 253 239 278 218 l 63 432 q 39 475 39 456 q 63 533 39 510 l 253 725 q 306 749 276 749 q 356 726 333 749 q 378 675 378 703 q 357 622 378 643 l 218 482 l 357 343 z "},"®":{"ha":779,"x_min":47,"x_max":703,"o":"m 375 988 q 501 962 442 988 q 606 892 561 936 q 677 788 651 847 q 703 660 703 728 q 677 534 703 593 q 606 430 651 475 q 501 359 561 385 q 375 333 442 333 q 247 359 307 333 q 143 430 188 385 q 73 534 99 475 q 47 660 47 593 q 73 788 47 728 q 143 892 99 847 q 247 962 188 936 q 375 988 307 988 m 375 953 q 262 929 314 953 q 171 866 210 906 q 110 773 132 826 q 88 660 88 719 q 110 546 88 599 q 171 454 132 493 q 262 392 210 415 q 375 369 314 369 q 488 392 435 369 q 581 454 542 415 q 644 546 621 493 q 667 660 667 599 q 644 773 667 719 q 581 866 621 826 q 488 929 542 906 q 375 953 435 953 m 411 865 q 510 830 479 865 q 542 746 542 794 q 520 674 542 703 q 460 631 499 646 l 525 528 q 533 501 533 515 q 522 474 533 485 q 496 463 510 463 q 463 485 475 463 l 382 628 q 375 642 376 635 q 374 656 374 649 q 388 681 374 676 q 419 689 401 686 q 450 701 436 692 q 464 742 464 711 q 449 781 464 769 q 410 793 435 793 l 319 793 l 319 504 q 279 463 319 463 q 239 504 239 463 l 239 826 q 278 865 239 865 l 411 865 z "},"¯":{"ha":640,"x_min":39,"x_max":601,"o":"m 131 1054 q 63 1081 88 1054 q 39 1144 39 1108 q 63 1211 39 1182 q 131 1240 88 1240 l 510 1240 q 577 1211 553 1240 q 601 1144 601 1182 q 577 1081 601 1108 q 510 1054 553 1054 l 131 1054 z "},"°":{"ha":528,"x_min":64,"x_max":463,"o":"m 463 786 q 447 712 463 747 q 405 649 432 676 q 342 606 378 622 q 264 589 306 589 q 183 604 219 589 q 120 647 147 619 q 78 709 93 674 q 64 786 64 744 q 80 865 64 828 q 123 928 96 901 q 186 972 150 956 q 264 988 222 988 q 342 972 306 988 q 405 928 378 956 q 447 864 432 900 q 463 786 463 828 m 188 786 q 210 733 188 754 q 264 711 232 711 q 319 733 296 711 q 342 786 342 754 q 319 842 342 819 q 264 864 296 864 q 210 842 232 864 q 188 786 188 819 z "},"±":{"ha":806,"x_min":46,"x_max":758,"o":"m 46 0 m 288 374 l 158 374 q 76 407 106 374 q 46 485 46 440 q 76 567 46 532 q 158 601 106 601 l 288 601 l 288 729 q 322 813 288 782 q 400 843 356 843 q 481 813 447 843 q 515 729 515 782 l 515 601 l 646 601 q 728 567 699 601 q 758 485 758 532 q 728 407 758 440 q 646 374 699 374 l 515 374 l 515 243 q 481 160 515 190 q 400 131 447 131 q 322 160 356 131 q 288 243 288 190 l 288 374 m 158 -208 q 76 -175 106 -208 q 46 -97 46 -142 q 76 -15 46 -50 q 158 19 106 19 l 646 19 q 728 -15 699 19 q 758 -97 758 -50 q 728 -175 758 -142 q 646 -208 699 -208 l 158 -208 z "},"²":{"ha":590,"x_min":56,"x_max":533,"o":"m 56 490 m 77 490 q 56 514 56 490 l 56 677 q 94 809 56 768 q 220 849 133 849 l 351 849 q 393 881 393 849 q 351 914 393 914 l 150 914 q 72 995 72 914 q 149 1077 72 1077 l 350 1077 q 534 889 534 1077 q 527 811 534 844 q 500 756 519 778 q 450 723 481 734 q 373 713 419 713 l 235 713 q 197 682 197 713 l 197 653 l 449 653 q 515 633 495 653 q 534 572 534 613 q 449 490 534 490 l 77 490 z "},"³":{"ha":579,"x_min":61,"x_max":528,"o":"m 61 490 m 62 572 q 141 653 62 653 l 340 653 q 365 664 357 653 q 373 686 373 674 q 365 709 373 699 q 340 719 357 719 l 161 719 q 104 779 104 719 q 159 838 104 838 l 340 838 q 365 850 356 838 q 373 879 373 863 q 365 903 373 892 q 340 914 357 914 l 136 914 q 62 995 62 914 q 136 1077 62 1077 l 393 1077 q 447 1064 424 1077 q 486 1030 471 1051 q 510 981 502 1009 q 518 925 518 954 q 497 837 518 875 q 431 789 476 799 q 471 774 453 787 q 501 742 489 762 q 521 696 514 722 q 528 642 528 670 q 520 584 528 611 q 494 535 511 556 q 448 502 476 514 q 382 490 421 490 l 139 490 q 62 572 62 490 z "},"´":{"ha":357,"x_min":39,"x_max":317,"o":"m 157 1054 q 108 1032 135 1032 q 60 1053 81 1032 q 39 1103 39 1075 q 58 1149 39 1129 l 201 1296 q 246 1317 219 1317 q 295 1296 274 1317 q 317 1247 317 1275 q 313 1224 317 1236 q 297 1201 308 1213 l 157 1054 z "},"¶":{"ha":715,"x_min":42,"x_max":644,"o":"m 644 50 q 585 -6 644 -6 q 525 50 525 -6 l 525 858 l 394 858 l 394 50 q 336 -6 394 -6 q 278 50 278 -6 l 278 419 l 226 419 q 42 661 42 419 l 42 735 q 226 978 42 978 l 603 978 q 633 965 621 978 q 644 933 644 953 l 644 50 z "},"·":{"ha":400,"x_min":68,"x_max":338,"o":"m 338 490 q 299 392 338 431 q 204 354 260 354 q 108 392 149 354 q 68 490 68 431 q 79 542 68 517 q 109 585 90 567 q 152 615 128 604 q 204 626 176 626 q 256 615 232 626 q 299 585 281 604 q 327 542 317 567 q 338 490 338 517 z "},"¸":{"ha":446,"x_min":69,"x_max":278,"o":"m 240 -261 q 210 -310 231 -294 q 161 -325 189 -325 q 97 -303 124 -325 q 69 -246 69 -282 q 74 -219 69 -228 l 110 -86 q 189 -21 129 -21 q 256 -48 233 -21 q 278 -114 278 -75 q 275 -128 278 -119 l 240 -261 z "},"¹":{"ha":389,"x_min":54,"x_max":331,"o":"m 54 486 m 332 568 q 308 507 332 528 q 251 487 284 487 q 195 508 219 487 q 171 568 171 529 l 171 802 q 130 792 151 792 q 100 799 114 792 q 76 816 86 805 q 61 842 66 827 q 55 872 55 856 q 62 906 55 889 q 83 937 69 923 l 194 1046 q 263 1079 227 1079 q 313 1056 294 1079 q 332 989 332 1032 l 332 568 z "},"º":{"ha":646,"x_min":24,"x_max":622,"o":"m 24 681 q 47 799 24 743 q 111 894 71 854 q 206 958 151 935 q 321 982 260 982 q 439 958 383 982 q 535 894 494 935 q 599 799 575 854 q 622 681 622 743 q 599 564 622 618 q 535 469 575 510 q 439 406 494 429 q 321 382 383 382 q 206 406 260 382 q 111 469 151 429 q 47 564 71 510 q 24 681 24 618 m 188 679 q 226 583 188 621 q 324 544 265 544 q 420 583 382 544 q 458 679 458 621 q 420 777 458 738 q 324 817 382 817 q 226 777 265 817 q 188 679 188 738 z "},"»":{"ha":761,"x_min":39,"x_max":721,"o":"m 544 482 l 406 622 q 382 675 382 646 q 405 726 382 703 q 456 749 428 749 q 508 725 485 749 l 700 533 q 721 482 721 511 q 700 432 721 453 l 508 239 q 456 218 483 218 q 405 240 428 218 q 382 292 382 261 q 388 317 383 303 q 406 343 393 331 l 544 482 m 201 482 l 63 622 q 39 675 39 646 q 62 726 39 703 q 113 749 85 749 q 165 725 142 749 l 357 533 q 374 508 369 521 q 378 482 378 496 q 374 456 378 467 q 357 432 369 444 l 165 239 q 113 218 140 218 q 62 240 85 218 q 39 292 39 261 q 45 317 40 303 q 63 343 50 331 l 201 482 z "},"¼":{"ha":1136,"x_min":54,"x_max":1172,"o":"m 54 0 m 332 568 q 308 507 332 528 q 251 487 284 487 q 195 508 219 487 q 171 568 171 529 l 171 802 q 130 792 151 792 q 100 799 114 792 q 76 816 86 805 q 61 842 66 827 q 55 872 55 856 q 62 906 55 889 q 83 937 69 923 l 194 1046 q 263 1079 227 1079 q 313 1056 294 1079 q 332 989 332 1032 l 332 568 m 1173 -20 q 1149 -80 1173 -60 q 1092 -101 1126 -101 q 1036 -80 1060 -101 q 1011 -20 1011 -60 l 1011 114 l 800 114 q 718 196 718 114 l 718 412 q 743 472 718 452 q 800 492 767 492 q 856 472 832 492 q 881 412 881 452 l 881 262 l 1011 262 l 1011 412 q 1036 472 1011 452 q 1092 492 1060 492 q 1149 472 1126 492 q 1173 412 1173 452 l 1173 -20 m 825 982 q 861 974 843 982 q 894 953 879 967 q 917 923 908 940 q 926 888 926 906 q 921 859 926 872 q 904 831 915 846 l 310 35 q 238 -6 279 -6 q 200 3 218 -6 q 168 24 182 11 q 147 55 154 38 q 139 90 139 72 q 144 117 139 103 q 160 147 149 132 l 756 940 q 787 971 771 960 q 825 982 803 982 z "},"½":{"ha":1250,"x_min":54,"x_max":1190,"o":"m 54 0 m 332 568 q 308 507 332 528 q 251 487 284 487 q 195 508 219 487 q 171 568 171 529 l 171 802 q 130 792 151 792 q 100 799 114 792 q 76 816 86 805 q 61 842 66 827 q 55 872 55 856 q 62 906 55 889 q 83 937 69 923 l 194 1046 q 263 1079 227 1079 q 313 1056 294 1079 q 332 989 332 1032 l 332 568 m 734 -97 q 713 -73 713 -97 l 713 89 q 751 221 713 180 q 877 262 790 262 l 1008 262 q 1050 294 1050 262 q 1008 326 1050 326 l 807 326 q 729 408 729 326 q 806 489 729 489 l 1007 489 q 1191 301 1191 489 q 1183 223 1191 256 q 1157 168 1176 190 q 1107 136 1138 146 q 1030 125 1076 125 l 892 125 q 854 94 854 125 l 854 65 l 1106 65 q 1172 45 1152 65 q 1191 -16 1191 25 q 1106 -97 1191 -97 l 734 -97 m 840 982 q 876 974 858 982 q 909 953 894 967 q 933 923 924 940 q 942 888 942 906 q 936 859 942 872 q 919 831 931 846 l 325 35 q 253 -6 294 -6 q 215 3 233 -6 q 183 24 197 11 q 162 55 169 38 q 154 90 154 72 q 159 117 154 103 q 175 147 164 132 l 771 940 q 802 971 786 960 q 840 982 818 982 z "},"¾":{"ha":1292,"x_min":61,"x_max":1322,"o":"m 61 0 m 1323 -20 q 1299 -80 1323 -60 q 1242 -101 1276 -101 q 1186 -80 1210 -101 q 1161 -20 1161 -60 l 1161 114 l 950 114 q 868 196 868 114 l 868 412 q 893 472 868 452 q 950 492 917 492 q 1006 472 982 492 q 1031 412 1031 452 l 1031 262 l 1161 262 l 1161 412 q 1186 472 1161 452 q 1242 492 1210 492 q 1299 472 1276 492 q 1323 412 1323 452 l 1323 -20 m 62 572 q 141 653 62 653 l 340 653 q 365 664 357 653 q 373 686 373 674 q 365 709 373 699 q 340 719 357 719 l 161 719 q 104 779 104 719 q 159 838 104 838 l 340 838 q 365 850 356 838 q 373 879 373 863 q 365 903 373 892 q 340 914 357 914 l 136 914 q 62 995 62 914 q 136 1077 62 1077 l 393 1077 q 447 1064 424 1077 q 486 1030 471 1051 q 510 981 502 1009 q 518 925 518 954 q 497 837 518 875 q 431 789 476 799 q 471 774 453 787 q 501 742 489 762 q 521 696 514 722 q 528 642 528 670 q 520 584 528 611 q 494 535 511 556 q 448 502 476 514 q 382 490 421 490 l 139 490 q 62 572 62 490 m 974 982 q 1010 974 992 982 q 1042 953 1028 967 q 1066 923 1057 940 q 1075 888 1075 906 q 1069 859 1075 872 q 1053 831 1064 846 l 458 35 q 386 -6 428 -6 q 349 3 367 -6 q 317 24 331 11 q 295 55 303 38 q 288 90 288 72 q 292 117 288 103 q 308 147 297 132 l 904 940 q 935 971 919 960 q 974 982 951 982 z "},"¿":{"ha":883,"x_min":50,"x_max":833,"o":"m 356 564 q 367 615 356 590 q 397 659 378 640 q 440 689 415 678 q 492 700 464 700 q 543 689 518 700 q 587 659 568 678 q 617 615 606 640 q 628 564 628 590 q 617 512 628 536 q 587 469 606 488 q 543 440 568 450 q 492 429 518 429 q 440 440 464 429 q 397 469 415 450 q 367 512 378 488 q 356 564 356 536 m 478 342 q 621 206 621 342 q 481 71 621 71 l 339 71 q 286 31 286 71 q 339 -11 286 -11 l 693 -11 q 833 -147 831 -11 l 833 -153 q 694 -283 833 -283 l 354 -283 q 50 31 50 -283 q 353 342 50 342 l 478 342 z "},"À":{"ha":964,"x_min":25,"x_max":935,"o":"m 25 0 m 925 178 q 933 150 931 164 q 935 125 935 136 q 922 70 935 94 q 889 29 910 46 q 842 3 868 13 q 788 -6 815 -6 q 672 82 708 -6 l 653 129 l 310 129 l 288 82 q 168 -6 246 -6 q 115 4 140 -6 q 69 32 89 14 q 38 74 50 50 q 25 128 25 99 q 26 153 25 140 q 33 178 26 165 l 182 507 q 232 574 201 551 q 300 596 263 596 q 355 586 329 596 q 401 558 381 576 q 433 517 421 540 q 444 467 444 493 q 435 413 444 436 l 419 376 l 551 376 l 375 797 q 367 825 368 813 q 365 850 365 838 q 377 903 365 879 q 409 944 389 926 q 454 972 429 963 q 507 982 479 982 q 577 960 546 982 q 628 893 608 938 l 925 178 m 293 1201 q 278 1224 282 1213 q 274 1247 274 1236 q 295 1296 274 1275 q 344 1317 317 1317 q 389 1296 369 1317 l 532 1149 q 551 1103 551 1129 q 531 1053 551 1075 q 482 1032 510 1032 q 433 1054 456 1032 l 293 1201 z "},"Á":{"ha":964,"x_min":25,"x_max":935,"o":"m 25 0 m 925 178 q 933 150 931 164 q 935 125 935 136 q 922 70 935 94 q 889 29 910 46 q 842 3 868 13 q 788 -6 815 -6 q 672 82 708 -6 l 653 129 l 310 129 l 288 82 q 168 -6 246 -6 q 115 4 140 -6 q 69 32 89 14 q 38 74 50 50 q 25 128 25 99 q 26 153 25 140 q 33 178 26 165 l 182 507 q 232 574 201 551 q 300 596 263 596 q 355 586 329 596 q 401 558 381 576 q 433 517 421 540 q 444 467 444 493 q 435 413 444 436 l 419 376 l 551 376 l 375 797 q 367 825 368 813 q 365 850 365 838 q 377 903 365 879 q 409 944 389 926 q 454 972 429 963 q 507 982 479 982 q 577 960 546 982 q 628 893 608 938 l 925 178 m 531 1054 q 482 1032 508 1032 q 433 1053 454 1032 q 413 1103 413 1075 q 432 1149 413 1129 l 575 1296 q 619 1317 593 1317 q 669 1296 647 1317 q 690 1247 690 1275 q 686 1224 690 1236 q 671 1201 682 1213 l 531 1054 z "},"Â":{"ha":964,"x_min":25,"x_max":935,"o":"m 25 0 m 925 178 q 933 150 931 164 q 935 125 935 136 q 922 70 935 94 q 889 29 910 46 q 842 3 868 13 q 788 -6 815 -6 q 672 82 708 -6 l 653 129 l 310 129 l 288 82 q 168 -6 246 -6 q 115 4 140 -6 q 69 32 89 14 q 38 74 50 50 q 25 128 25 99 q 26 153 25 140 q 33 178 26 165 l 182 507 q 232 574 201 551 q 300 596 263 596 q 355 586 329 596 q 401 558 381 576 q 433 517 421 540 q 444 467 444 493 q 435 413 444 436 l 419 376 l 551 376 l 375 797 q 367 825 368 813 q 365 850 365 838 q 377 903 365 879 q 409 944 389 926 q 454 972 429 963 q 507 982 479 982 q 577 960 546 982 q 628 893 608 938 l 925 178 m 482 1111 l 351 1040 q 333 1033 342 1035 q 315 1032 325 1032 q 267 1053 288 1032 q 246 1106 246 1075 q 255 1135 246 1117 q 283 1165 264 1154 l 446 1253 q 483 1260 469 1260 q 501 1258 492 1260 q 517 1253 510 1257 l 679 1165 q 708 1135 699 1154 q 717 1106 717 1117 q 696 1053 717 1075 q 647 1032 675 1032 q 613 1040 626 1032 l 482 1111 z "},"Ã":{"ha":964,"x_min":25,"x_max":935,"o":"m 25 0 m 925 178 q 933 150 931 164 q 935 125 935 136 q 922 70 935 94 q 889 29 910 46 q 842 3 868 13 q 788 -6 815 -6 q 672 82 708 -6 l 653 129 l 310 129 l 288 82 q 168 -6 246 -6 q 115 4 140 -6 q 69 32 89 14 q 38 74 50 50 q 25 128 25 99 q 26 153 25 140 q 33 178 26 165 l 182 507 q 232 574 201 551 q 300 596 263 596 q 355 586 329 596 q 401 558 381 576 q 433 517 421 540 q 444 467 444 493 q 435 413 444 436 l 419 376 l 551 376 l 375 797 q 367 825 368 813 q 365 850 365 838 q 377 903 365 879 q 409 944 389 926 q 454 972 429 963 q 507 982 479 982 q 577 960 546 982 q 628 893 608 938 l 925 178 m 668 1231 q 693 1251 681 1246 q 714 1256 706 1256 q 763 1236 742 1256 q 785 1189 785 1217 q 768 1131 785 1157 q 726 1087 751 1106 q 668 1058 700 1068 q 606 1049 636 1049 q 542 1059 574 1049 q 480 1081 510 1069 q 422 1103 450 1093 q 369 1114 394 1114 q 335 1104 349 1114 q 293 1065 321 1094 q 269 1047 282 1053 q 247 1042 257 1042 q 200 1061 222 1042 q 178 1108 178 1081 q 194 1165 178 1139 q 237 1210 211 1192 q 294 1240 263 1229 q 357 1250 326 1250 q 417 1240 386 1250 q 477 1217 447 1229 q 535 1195 507 1206 q 590 1185 564 1185 q 628 1194 614 1185 q 668 1231 643 1203 z "},"Ä":{"ha":964,"x_min":25,"x_max":935,"o":"m 25 0 m 925 178 q 933 150 931 164 q 935 125 935 136 q 922 70 935 94 q 889 29 910 46 q 842 3 868 13 q 788 -6 815 -6 q 672 82 708 -6 l 653 129 l 310 129 l 288 82 q 168 -6 246 -6 q 115 4 140 -6 q 69 32 89 14 q 38 74 50 50 q 25 128 25 99 q 26 153 25 140 q 33 178 26 165 l 182 507 q 232 574 201 551 q 300 596 263 596 q 355 586 329 596 q 401 558 381 576 q 433 517 421 540 q 444 467 444 493 q 435 413 444 436 l 419 376 l 551 376 l 375 797 q 367 825 368 813 q 365 850 365 838 q 377 903 365 879 q 409 944 389 926 q 454 972 429 963 q 507 982 479 982 q 577 960 546 982 q 628 893 608 938 l 925 178 m 210 1146 q 239 1220 210 1190 q 311 1250 268 1250 q 385 1220 356 1250 q 414 1146 414 1190 q 385 1074 414 1103 q 311 1046 356 1046 q 239 1074 268 1046 q 210 1146 210 1103 m 549 1146 q 579 1220 549 1190 q 653 1250 610 1250 q 724 1220 696 1250 q 753 1146 753 1190 q 724 1074 753 1103 q 653 1046 696 1046 q 579 1074 610 1046 q 549 1146 549 1103 z "},"Å":{"ha":964,"x_min":25,"x_max":935,"o":"m 25 0 m 925 178 q 933 150 931 164 q 935 125 935 136 q 922 70 935 94 q 889 29 910 46 q 842 3 868 13 q 788 -6 815 -6 q 672 82 708 -6 l 653 129 l 310 129 l 288 82 q 168 -6 246 -6 q 115 4 140 -6 q 69 32 89 14 q 38 74 50 50 q 25 128 25 99 q 26 153 25 140 q 33 178 26 165 l 182 507 q 232 574 201 551 q 300 596 263 596 q 355 586 329 596 q 401 558 381 576 q 433 517 421 540 q 444 467 444 493 q 435 413 444 436 l 419 376 l 551 376 l 375 797 q 367 825 368 813 q 365 850 365 838 q 377 903 365 879 q 409 944 389 926 q 454 972 429 963 q 507 982 479 982 q 577 960 546 982 q 628 893 608 938 l 925 178 m 328 1136 q 340 1194 328 1167 q 372 1241 351 1221 q 422 1272 393 1261 q 482 1283 450 1283 q 542 1272 514 1283 q 590 1241 569 1261 q 623 1194 611 1221 q 635 1136 635 1167 q 623 1078 635 1106 q 590 1032 611 1051 q 542 1001 569 1013 q 482 989 514 989 q 422 1001 450 989 q 372 1032 393 1013 q 340 1078 351 1051 q 328 1136 328 1106 m 422 1135 q 440 1091 422 1110 q 482 1072 458 1072 q 524 1091 507 1072 q 542 1135 542 1110 q 524 1179 542 1161 q 482 1197 507 1197 q 440 1179 458 1197 q 422 1135 422 1161 z "},"Æ":{"ha":1535,"x_min":25,"x_max":1481,"o":"m 789 0 q 672 85 706 0 l 653 132 l 310 132 l 288 82 q 238 16 271 38 q 168 -6 206 -6 q 115 4 140 -6 q 69 31 89 14 q 38 72 50 47 q 25 125 25 96 q 33 178 25 150 l 278 721 q 327 789 294 767 q 399 811 360 811 q 452 801 426 811 q 498 772 478 790 q 530 731 518 754 q 542 681 542 707 q 531 626 542 653 l 419 376 l 671 376 l 671 842 q 804 978 671 978 l 1344 978 q 1444 938 1407 978 q 1481 842 1481 899 q 1444 747 1481 788 q 1344 707 1407 707 l 939 707 l 939 624 l 1344 624 q 1444 584 1407 624 q 1481 489 1481 544 q 1444 394 1481 433 q 1344 354 1407 354 l 939 354 l 939 272 l 1344 272 q 1444 232 1407 272 q 1481 136 1481 192 q 1444 40 1481 79 q 1344 0 1407 0 l 789 0 z "},"Ç":{"ha":1003,"x_min":49,"x_max":967,"o":"m 49 0 m 351 0 q 125 78 201 0 q 49 315 49 157 l 49 663 q 125 899 49 821 q 351 978 201 978 l 801 978 q 928 944 889 978 q 967 839 967 910 q 928 736 967 768 q 801 704 889 704 l 358 704 q 318 667 319 704 l 318 315 q 358 275 318 275 l 806 275 q 930 241 893 275 q 967 138 967 207 q 930 33 967 67 q 806 0 893 0 l 351 0 m 596 -261 q 565 -310 586 -294 q 517 -325 544 -325 q 452 -303 479 -325 q 425 -246 425 -282 q 429 -219 425 -228 l 465 -86 q 544 -21 485 -21 q 611 -48 589 -21 q 633 -114 633 -75 q 631 -128 633 -119 l 596 -261 z "},"È":{"ha":919,"x_min":56,"x_max":865,"o":"m 56 0 m 190 0 q 56 136 56 0 l 56 842 q 190 978 56 978 l 729 978 q 829 938 793 978 q 865 842 865 899 q 829 747 865 788 q 729 707 793 707 l 324 707 l 324 624 l 729 624 q 829 584 793 624 q 865 489 865 544 q 829 394 865 433 q 729 354 793 354 l 324 354 l 324 272 l 729 272 q 829 232 793 272 q 865 136 865 192 q 829 40 865 79 q 729 0 793 0 l 190 0 m 271 1201 q 256 1224 260 1213 q 251 1247 251 1236 q 273 1296 251 1275 q 322 1317 294 1317 q 367 1296 347 1317 l 510 1149 q 529 1103 529 1129 q 508 1053 529 1075 q 460 1032 488 1032 q 411 1054 433 1032 l 271 1201 z "},"É":{"ha":919,"x_min":56,"x_max":865,"o":"m 56 0 m 190 0 q 56 136 56 0 l 56 842 q 190 978 56 978 l 729 978 q 829 938 793 978 q 865 842 865 899 q 829 747 865 788 q 729 707 793 707 l 324 707 l 324 624 l 729 624 q 829 584 793 624 q 865 489 865 544 q 829 394 865 433 q 729 354 793 354 l 324 354 l 324 272 l 729 272 q 829 232 793 272 q 865 136 865 192 q 829 40 865 79 q 729 0 793 0 l 190 0 m 508 1054 q 460 1032 486 1032 q 411 1053 432 1032 q 390 1103 390 1075 q 410 1149 390 1129 l 553 1296 q 597 1317 571 1317 q 647 1296 625 1317 q 668 1247 668 1275 q 664 1224 668 1236 q 649 1201 660 1213 l 508 1054 z "},"Ê":{"ha":919,"x_min":56,"x_max":865,"o":"m 56 0 m 190 0 q 56 136 56 0 l 56 842 q 190 978 56 978 l 729 978 q 829 938 793 978 q 865 842 865 899 q 829 747 865 788 q 729 707 793 707 l 324 707 l 324 624 l 729 624 q 829 584 793 624 q 865 489 865 544 q 829 394 865 433 q 729 354 793 354 l 324 354 l 324 272 l 729 272 q 829 232 793 272 q 865 136 865 192 q 829 40 865 79 q 729 0 793 0 l 190 0 m 460 1111 l 329 1040 q 311 1033 319 1035 q 293 1032 303 1032 q 244 1053 265 1032 q 224 1106 224 1075 q 233 1135 224 1117 q 261 1165 242 1154 l 424 1253 q 461 1260 447 1260 q 478 1258 469 1260 q 494 1253 488 1257 l 657 1165 q 685 1135 676 1154 q 694 1106 694 1117 q 674 1053 694 1075 q 625 1032 653 1032 q 590 1040 604 1032 l 460 1111 z "},"Ë":{"ha":919,"x_min":56,"x_max":865,"o":"m 56 0 m 190 0 q 56 136 56 0 l 56 842 q 190 978 56 978 l 729 978 q 829 938 793 978 q 865 842 865 899 q 829 747 865 788 q 729 707 793 707 l 324 707 l 324 624 l 729 624 q 829 584 793 624 q 865 489 865 544 q 829 394 865 433 q 729 354 793 354 l 324 354 l 324 272 l 729 272 q 829 232 793 272 q 865 136 865 192 q 829 40 865 79 q 729 0 793 0 l 190 0 m 188 1146 q 217 1220 188 1190 q 289 1250 246 1250 q 363 1220 333 1250 q 392 1146 392 1190 q 363 1074 392 1103 q 289 1046 333 1046 q 217 1074 246 1046 q 188 1146 188 1103 m 526 1146 q 557 1220 526 1190 q 631 1250 588 1250 q 702 1220 674 1250 q 731 1146 731 1190 q 702 1074 731 1103 q 631 1046 674 1046 q 557 1074 588 1046 q 526 1146 526 1103 z "},"Ì":{"ha":381,"x_min":-17,"x_max":324,"o":"m 0 0 m 324 129 q 283 28 324 63 q 189 -6 243 -6 q 94 28 133 -6 q 54 129 54 63 l 54 849 q 94 947 54 913 q 189 982 133 982 q 283 947 243 982 q 324 849 324 913 l 324 129 m 3 1201 q -12 1224 -8 1213 q -17 1247 -17 1236 q 5 1296 -17 1275 q 54 1317 26 1317 q 99 1296 79 1317 l 242 1149 q 261 1103 261 1129 q 240 1053 261 1075 q 192 1032 219 1032 q 143 1054 165 1032 l 3 1201 z "},"Í":{"ha":381,"x_min":54,"x_max":399,"o":"m 54 0 m 324 129 q 283 28 324 63 q 189 -6 243 -6 q 94 28 133 -6 q 54 129 54 63 l 54 849 q 94 947 54 913 q 189 982 133 982 q 283 947 243 982 q 324 849 324 913 l 324 129 m 239 1054 q 190 1032 217 1032 q 142 1053 163 1032 q 121 1103 121 1075 q 140 1149 121 1129 l 283 1296 q 328 1317 301 1317 q 377 1296 356 1317 q 399 1247 399 1275 q 394 1224 399 1236 q 379 1201 390 1213 l 239 1054 z "},"Î":{"ha":381,"x_min":-43,"x_max":428,"o":"m 0 0 m 324 129 q 283 28 324 63 q 189 -6 243 -6 q 94 28 133 -6 q 54 129 54 63 l 54 849 q 94 947 54 913 q 189 982 133 982 q 283 947 243 982 q 324 849 324 913 l 324 129 m 193 1111 l 63 1040 q 44 1033 53 1035 q 26 1032 36 1032 q -22 1053 -1 1032 q -43 1106 -43 1075 q -34 1135 -43 1117 q -6 1165 -25 1154 l 157 1253 q 194 1260 181 1260 q 212 1258 203 1260 q 228 1253 221 1257 l 390 1165 q 419 1135 410 1154 q 428 1106 428 1117 q 407 1053 428 1075 q 358 1032 386 1032 q 324 1040 338 1032 l 193 1111 z "},"Ï":{"ha":381,"x_min":-79,"x_max":464,"o":"m 0 0 m 324 129 q 283 28 324 63 q 189 -6 243 -6 q 94 28 133 -6 q 54 129 54 63 l 54 849 q 94 947 54 913 q 189 982 133 982 q 283 947 243 982 q 324 849 324 913 l 324 129 m -79 1146 q -50 1220 -79 1190 q 22 1250 -21 1250 q 96 1220 67 1250 q 125 1146 125 1190 q 96 1074 125 1103 q 22 1046 67 1046 q -50 1074 -21 1046 q -79 1146 -79 1103 m 260 1146 q 290 1220 260 1190 q 364 1250 321 1250 q 435 1220 407 1250 q 464 1146 464 1190 q 435 1074 464 1103 q 364 1046 407 1046 q 290 1074 321 1046 q 260 1146 260 1103 z "},"Ð":{"ha":1031,"x_min":8,"x_max":996,"o":"m 119 842 q 131 891 119 867 q 161 935 142 915 q 206 966 181 954 q 260 978 231 978 l 472 978 q 688 940 592 978 q 853 835 785 901 q 959 681 922 769 q 996 492 996 592 q 958 296 996 386 q 853 140 921 206 q 694 38 786 75 q 493 0 601 0 l 260 0 q 158 37 196 0 q 119 136 119 74 l 119 351 q 36 399 64 360 q 8 486 8 439 q 16 533 8 510 q 38 574 24 556 q 73 606 53 593 q 119 622 93 618 l 119 842 m 389 272 l 494 272 q 583 288 542 272 q 656 333 625 304 q 703 401 686 361 q 721 489 721 440 q 704 572 721 533 q 657 640 688 611 q 585 687 626 669 q 493 704 543 704 l 389 704 l 389 624 l 489 624 q 588 583 553 624 q 624 486 624 542 q 588 391 624 432 q 489 350 553 350 l 389 350 l 389 272 z "},"Ñ":{"ha":1049,"x_min":56,"x_max":992,"o":"m 56 0 m 360 704 q 324 668 324 704 l 324 136 q 292 27 324 61 q 190 -7 261 -7 q 56 136 56 -7 l 56 892 q 139 978 56 978 l 906 978 q 992 892 992 978 l 992 136 q 857 -6 992 -6 q 722 136 722 -6 l 722 668 q 688 704 722 704 l 360 704 m 711 1231 q 736 1251 724 1246 q 757 1256 749 1256 q 806 1236 785 1256 q 828 1189 828 1217 q 811 1131 828 1157 q 769 1087 794 1106 q 711 1058 743 1068 q 649 1049 679 1049 q 585 1059 617 1049 q 523 1081 553 1069 q 465 1103 493 1093 q 413 1114 438 1114 q 378 1104 392 1114 q 336 1065 364 1094 q 313 1047 325 1053 q 290 1042 300 1042 q 243 1061 265 1042 q 221 1108 221 1081 q 238 1165 221 1139 q 280 1210 254 1192 q 338 1240 306 1229 q 400 1250 369 1250 q 460 1240 429 1250 q 520 1217 490 1229 q 578 1195 550 1206 q 633 1185 607 1185 q 672 1194 657 1185 q 711 1231 686 1203 z "},"Ò":{"ha":1038,"x_min":49,"x_max":986,"o":"m 49 0 m 986 315 q 910 78 986 157 q 683 0 833 0 l 351 0 q 125 78 201 0 q 49 315 49 157 l 49 663 q 125 899 49 821 q 351 978 201 978 l 683 978 q 910 899 833 978 q 986 663 986 821 l 986 315 m 360 704 q 329 695 340 704 q 318 667 318 686 l 318 315 q 360 275 318 275 l 675 275 q 715 315 715 275 l 715 663 q 675 704 715 704 l 360 704 m 329 1201 q 314 1224 318 1213 q 310 1247 310 1236 q 331 1296 310 1275 q 381 1317 353 1317 q 425 1296 406 1317 l 568 1149 q 588 1103 588 1129 q 567 1053 588 1075 q 518 1032 546 1032 q 469 1054 492 1032 l 329 1201 z "},"Ó":{"ha":1038,"x_min":49,"x_max":986,"o":"m 49 0 m 986 315 q 910 78 986 157 q 683 0 833 0 l 351 0 q 125 78 201 0 q 49 315 49 157 l 49 663 q 125 899 49 821 q 351 978 201 978 l 683 978 q 910 899 833 978 q 986 663 986 821 l 986 315 m 360 704 q 329 695 340 704 q 318 667 318 686 l 318 315 q 360 275 318 275 l 675 275 q 715 315 715 275 l 715 663 q 675 704 715 704 l 360 704 m 567 1054 q 518 1032 544 1032 q 469 1053 490 1032 q 449 1103 449 1075 q 468 1149 449 1129 l 611 1296 q 656 1317 629 1317 q 705 1296 683 1317 q 726 1247 726 1275 q 722 1224 726 1236 q 707 1201 718 1213 l 567 1054 z "},"Ô":{"ha":1038,"x_min":49,"x_max":986,"o":"m 49 0 m 986 315 q 910 78 986 157 q 683 0 833 0 l 351 0 q 125 78 201 0 q 49 315 49 157 l 49 663 q 125 899 49 821 q 351 978 201 978 l 683 978 q 910 899 833 978 q 986 663 986 821 l 986 315 m 360 704 q 329 695 340 704 q 318 667 318 686 l 318 315 q 360 275 318 275 l 675 275 q 715 315 715 275 l 715 663 q 675 704 715 704 l 360 704 m 519 1111 l 389 1040 q 371 1033 379 1035 q 353 1032 363 1032 q 304 1053 325 1032 q 283 1106 283 1075 q 292 1135 283 1117 q 321 1165 301 1154 l 483 1253 q 521 1260 507 1260 q 538 1258 529 1260 q 554 1253 547 1257 l 717 1165 q 745 1135 736 1154 q 754 1106 754 1117 q 733 1053 754 1075 q 685 1032 713 1032 q 650 1040 664 1032 l 519 1111 z "},"Õ":{"ha":1038,"x_min":49,"x_max":986,"o":"m 49 0 m 986 315 q 910 78 986 157 q 683 0 833 0 l 351 0 q 125 78 201 0 q 49 315 49 157 l 49 663 q 125 899 49 821 q 351 978 201 978 l 683 978 q 910 899 833 978 q 986 663 986 821 l 986 315 m 360 704 q 329 695 340 704 q 318 667 318 686 l 318 315 q 360 275 318 275 l 675 275 q 715 315 715 275 l 715 663 q 675 704 715 704 l 360 704 m 706 1231 q 731 1251 718 1246 q 751 1256 743 1256 q 801 1236 779 1256 q 822 1189 822 1217 q 806 1131 822 1157 q 763 1087 789 1106 q 706 1058 738 1068 q 643 1049 674 1049 q 579 1059 611 1049 q 517 1081 547 1069 q 460 1103 488 1093 q 407 1114 432 1114 q 372 1104 386 1114 q 331 1065 358 1094 q 307 1047 319 1053 q 285 1042 294 1042 q 238 1061 260 1042 q 215 1108 215 1081 q 232 1165 215 1139 q 274 1210 249 1192 q 332 1240 300 1229 q 394 1250 364 1250 q 454 1240 424 1250 q 515 1217 485 1229 q 573 1195 544 1206 q 628 1185 601 1185 q 666 1194 651 1185 q 706 1231 681 1203 z "},"Ö":{"ha":1038,"x_min":49,"x_max":986,"o":"m 49 0 m 986 315 q 910 78 986 157 q 683 0 833 0 l 351 0 q 125 78 201 0 q 49 315 49 157 l 49 663 q 125 899 49 821 q 351 978 201 978 l 683 978 q 910 899 833 978 q 986 663 986 821 l 986 315 m 360 704 q 329 695 340 704 q 318 667 318 686 l 318 315 q 360 275 318 275 l 675 275 q 715 315 715 275 l 715 663 q 675 704 715 704 l 360 704 m 247 1146 q 276 1220 247 1190 q 349 1250 306 1250 q 422 1220 393 1250 q 451 1146 451 1190 q 422 1074 451 1103 q 349 1046 393 1046 q 276 1074 306 1046 q 247 1146 247 1103 m 586 1146 q 617 1220 586 1190 q 690 1250 647 1250 q 762 1220 733 1250 q 790 1146 790 1190 q 762 1074 790 1103 q 690 1046 733 1046 q 617 1074 647 1046 q 586 1146 586 1103 z "},"×":{"ha":806,"x_min":114,"x_max":688,"o":"m 239 488 l 149 579 q 114 651 114 610 q 123 697 114 675 q 148 736 132 719 q 185 763 164 753 q 232 774 207 774 q 310 740 276 774 l 401 647 l 493 740 q 572 775 528 775 q 617 765 596 775 q 653 738 638 754 q 678 699 669 721 q 688 654 688 676 q 654 579 688 613 l 564 488 l 654 394 q 680 358 672 379 q 688 317 688 338 q 678 272 688 293 q 653 235 669 251 q 617 208 638 218 q 572 199 596 199 q 531 207 549 199 q 493 235 513 215 l 401 325 l 310 235 q 274 208 293 218 q 235 199 254 199 q 190 208 211 199 q 151 233 168 217 q 124 270 135 249 q 114 317 114 292 q 149 394 114 358 l 239 488 z "},"Ø":{"ha":1038,"x_min":49,"x_max":986,"o":"m 986 317 q 683 1 986 1 l 385 1 l 324 -128 q 294 -167 313 -154 q 251 -179 275 -179 q 185 -156 213 -179 q 158 -99 158 -132 q 168 -58 158 -76 l 207 26 q 49 317 49 90 l 49 663 q 351 978 49 978 l 650 978 l 685 1050 q 757 1101 710 1101 q 819 1077 790 1101 q 847 1017 847 1053 q 840 982 847 1000 l 826 953 q 986 663 986 890 l 986 317 m 319 317 q 328 286 319 294 l 522 704 l 360 704 q 319 667 321 704 l 319 317 m 675 276 q 715 317 715 276 l 715 663 q 706 693 715 683 l 513 276 l 675 276 z "},"Ù":{"ha":1050,"x_min":56,"x_max":993,"o":"m 56 0 m 689 274 q 722 304 722 274 l 722 839 q 754 948 722 914 q 856 982 786 982 q 993 839 993 982 l 993 86 q 910 0 993 0 l 140 0 q 56 86 56 0 l 56 839 q 190 981 56 981 q 325 839 325 981 l 325 310 q 360 274 325 274 l 689 274 m 336 1201 q 321 1224 325 1213 q 317 1247 317 1236 q 338 1296 317 1275 q 388 1317 360 1317 q 432 1296 413 1317 l 575 1149 q 594 1103 594 1129 q 574 1053 594 1075 q 525 1032 553 1032 q 476 1054 499 1032 l 336 1201 z "},"Ú":{"ha":1050,"x_min":56,"x_max":993,"o":"m 56 0 m 689 274 q 722 304 722 274 l 722 839 q 754 948 722 914 q 856 982 786 982 q 993 839 993 982 l 993 86 q 910 0 993 0 l 140 0 q 56 86 56 0 l 56 839 q 190 981 56 981 q 325 839 325 981 l 325 310 q 360 274 325 274 l 689 274 m 574 1054 q 525 1032 551 1032 q 476 1053 497 1032 q 456 1103 456 1075 q 475 1149 456 1129 l 618 1296 q 663 1317 636 1317 q 712 1296 690 1317 q 733 1247 733 1275 q 729 1224 733 1236 q 714 1201 725 1213 l 574 1054 z "},"Û":{"ha":1050,"x_min":56,"x_max":993,"o":"m 56 0 m 689 274 q 722 304 722 274 l 722 839 q 754 948 722 914 q 856 982 786 982 q 993 839 993 982 l 993 86 q 910 0 993 0 l 140 0 q 56 86 56 0 l 56 839 q 190 981 56 981 q 325 839 325 981 l 325 310 q 360 274 325 274 l 689 274 m 525 1111 l 394 1040 q 376 1033 385 1035 q 358 1032 368 1032 q 310 1053 331 1032 q 289 1106 289 1075 q 298 1135 289 1117 q 326 1165 307 1154 l 489 1253 q 526 1260 513 1260 q 544 1258 535 1260 q 560 1253 553 1257 l 722 1165 q 751 1135 742 1154 q 760 1106 760 1117 q 739 1053 760 1075 q 690 1032 718 1032 q 656 1040 669 1032 l 525 1111 z "},"Ü":{"ha":1050,"x_min":56,"x_max":993,"o":"m 56 0 m 689 274 q 722 304 722 274 l 722 839 q 754 948 722 914 q 856 982 786 982 q 993 839 993 982 l 993 86 q 910 0 993 0 l 140 0 q 56 86 56 0 l 56 839 q 190 981 56 981 q 325 839 325 981 l 325 310 q 360 274 325 274 l 689 274 m 253 1146 q 282 1220 253 1190 q 354 1250 311 1250 q 428 1220 399 1250 q 457 1146 457 1190 q 428 1074 457 1103 q 354 1046 399 1046 q 282 1074 311 1046 q 253 1146 253 1103 m 592 1146 q 622 1220 592 1190 q 696 1250 653 1250 q 767 1220 739 1250 q 796 1146 796 1190 q 767 1074 796 1103 q 696 1046 739 1046 q 622 1074 653 1046 q 592 1146 592 1103 z "},"Ý":{"ha":800,"x_min":25,"x_max":775,"o":"m 25 0 m 521 913 q 573 965 542 949 q 636 982 604 982 q 688 972 663 982 q 732 944 713 961 q 763 902 751 926 q 775 850 775 878 q 753 776 775 813 l 536 424 l 536 129 q 496 28 536 63 q 401 -6 456 -6 q 306 28 346 -6 q 267 129 267 63 l 267 424 l 47 778 q 25 846 25 813 q 37 899 25 874 q 68 942 49 924 q 113 972 88 961 q 165 982 138 982 q 226 966 194 982 q 279 914 258 950 l 400 703 l 521 913 m 449 1054 q 400 1032 426 1032 q 351 1053 372 1032 q 331 1103 331 1075 q 350 1149 331 1129 l 493 1296 q 538 1317 511 1317 q 587 1296 565 1317 q 608 1247 608 1275 q 604 1224 608 1236 q 589 1201 600 1213 l 449 1054 z "},"Þ":{"ha":851,"x_min":54,"x_max":835,"o":"m 321 133 q 186 -6 321 -6 q 85 28 117 -6 q 54 133 54 63 l 54 285 q 90 408 54 368 q 206 449 126 449 l 546 449 q 600 490 600 449 q 546 532 600 532 l 207 532 q 90 566 125 532 q 54 671 54 600 l 54 843 q 85 948 54 914 q 186 982 117 982 q 321 843 321 982 l 321 803 l 531 803 q 835 490 835 803 q 533 179 835 179 l 321 179 l 321 133 z "},"ß":{"ha":1586,"x_min":40,"x_max":1549,"o":"m 40 0 m 756 311 q 451 0 756 0 l 183 0 q 125 12 150 0 q 83 42 100 24 q 58 85 67 61 q 50 136 50 110 q 58 185 50 161 q 84 228 67 210 q 127 259 101 247 q 186 271 153 271 l 467 271 q 508 287 494 271 q 521 321 521 303 q 508 357 521 340 q 467 374 494 374 l 328 374 q 113 443 185 374 q 40 664 40 513 q 347 978 40 978 l 564 978 q 625 966 599 978 q 669 935 651 954 q 697 892 688 917 q 706 843 706 868 q 697 793 706 818 q 669 749 688 768 q 624 717 651 729 q 563 706 597 706 l 329 706 q 289 690 301 706 q 276 654 276 674 q 289 620 276 636 q 329 604 301 604 l 468 604 q 685 533 615 604 q 756 311 756 463 m 1549 311 q 1244 0 1549 0 l 976 0 q 918 12 943 0 q 876 42 893 24 q 851 85 860 61 q 843 136 843 110 q 851 185 843 161 q 877 228 860 210 q 920 259 894 247 q 979 271 946 271 l 1260 271 q 1301 287 1288 271 q 1314 321 1314 303 q 1301 357 1314 340 q 1260 374 1288 374 l 1121 374 q 906 443 978 374 q 833 664 833 513 q 1140 978 833 978 l 1357 978 q 1418 966 1392 978 q 1463 935 1444 954 q 1490 892 1481 917 q 1499 843 1499 868 q 1490 793 1499 818 q 1463 749 1481 768 q 1417 717 1444 729 q 1356 706 1390 706 l 1122 706 q 1082 690 1094 706 q 1069 654 1069 674 q 1082 620 1069 636 q 1122 604 1094 604 l 1261 604 q 1478 533 1408 604 q 1549 311 1549 463 z "},"à":{"ha":964,"x_min":25,"x_max":935,"o":"m 25 0 m 925 178 q 933 150 931 164 q 935 125 935 136 q 922 70 935 94 q 889 29 910 46 q 842 3 868 13 q 788 -6 815 -6 q 672 82 708 -6 l 653 129 l 310 129 l 288 82 q 168 -6 246 -6 q 115 4 140 -6 q 69 32 89 14 q 38 74 50 50 q 25 128 25 99 q 26 153 25 140 q 33 178 26 165 l 182 507 q 232 574 201 551 q 300 596 263 596 q 355 586 329 596 q 401 558 381 576 q 433 517 421 540 q 444 467 444 493 q 435 413 444 436 l 419 376 l 551 376 l 375 797 q 367 825 368 813 q 365 850 365 838 q 377 903 365 879 q 409 944 389 926 q 454 972 429 963 q 507 982 479 982 q 577 960 546 982 q 628 893 608 938 l 925 178 m 293 1201 q 278 1224 282 1213 q 274 1247 274 1236 q 295 1296 274 1275 q 344 1317 317 1317 q 389 1296 369 1317 l 532 1149 q 551 1103 551 1129 q 531 1053 551 1075 q 482 1032 510 1032 q 433 1054 456 1032 l 293 1201 z "},"á":{"ha":964,"x_min":25,"x_max":935,"o":"m 25 0 m 925 178 q 933 150 931 164 q 935 125 935 136 q 922 70 935 94 q 889 29 910 46 q 842 3 868 13 q 788 -6 815 -6 q 672 82 708 -6 l 653 129 l 310 129 l 288 82 q 168 -6 246 -6 q 115 4 140 -6 q 69 32 89 14 q 38 74 50 50 q 25 128 25 99 q 26 153 25 140 q 33 178 26 165 l 182 507 q 232 574 201 551 q 300 596 263 596 q 355 586 329 596 q 401 558 381 576 q 433 517 421 540 q 444 467 444 493 q 435 413 444 436 l 419 376 l 551 376 l 375 797 q 367 825 368 813 q 365 850 365 838 q 377 903 365 879 q 409 944 389 926 q 454 972 429 963 q 507 982 479 982 q 577 960 546 982 q 628 893 608 938 l 925 178 m 531 1054 q 482 1032 508 1032 q 433 1053 454 1032 q 413 1103 413 1075 q 432 1149 413 1129 l 575 1296 q 619 1317 593 1317 q 669 1296 647 1317 q 690 1247 690 1275 q 686 1224 690 1236 q 671 1201 682 1213 l 531 1054 z "},"â":{"ha":964,"x_min":25,"x_max":935,"o":"m 25 0 m 925 178 q 933 150 931 164 q 935 125 935 136 q 922 70 935 94 q 889 29 910 46 q 842 3 868 13 q 788 -6 815 -6 q 672 82 708 -6 l 653 129 l 310 129 l 288 82 q 168 -6 246 -6 q 115 4 140 -6 q 69 32 89 14 q 38 74 50 50 q 25 128 25 99 q 26 153 25 140 q 33 178 26 165 l 182 507 q 232 574 201 551 q 300 596 263 596 q 355 586 329 596 q 401 558 381 576 q 433 517 421 540 q 444 467 444 493 q 435 413 444 436 l 419 376 l 551 376 l 375 797 q 367 825 368 813 q 365 850 365 838 q 377 903 365 879 q 409 944 389 926 q 454 972 429 963 q 507 982 479 982 q 577 960 546 982 q 628 893 608 938 l 925 178 m 482 1111 l 351 1040 q 333 1033 342 1035 q 315 1032 325 1032 q 267 1053 288 1032 q 246 1106 246 1075 q 255 1135 246 1117 q 283 1165 264 1154 l 446 1253 q 483 1260 469 1260 q 501 1258 492 1260 q 517 1253 510 1257 l 679 1165 q 708 1135 699 1154 q 717 1106 717 1117 q 696 1053 717 1075 q 647 1032 675 1032 q 613 1040 626 1032 l 482 1111 z "},"ã":{"ha":964,"x_min":25,"x_max":935,"o":"m 25 0 m 925 178 q 933 150 931 164 q 935 125 935 136 q 922 70 935 94 q 889 29 910 46 q 842 3 868 13 q 788 -6 815 -6 q 672 82 708 -6 l 653 129 l 310 129 l 288 82 q 168 -6 246 -6 q 115 4 140 -6 q 69 32 89 14 q 38 74 50 50 q 25 128 25 99 q 26 153 25 140 q 33 178 26 165 l 182 507 q 232 574 201 551 q 300 596 263 596 q 355 586 329 596 q 401 558 381 576 q 433 517 421 540 q 444 467 444 493 q 435 413 444 436 l 419 376 l 551 376 l 375 797 q 367 825 368 813 q 365 850 365 838 q 377 903 365 879 q 409 944 389 926 q 454 972 429 963 q 507 982 479 982 q 577 960 546 982 q 628 893 608 938 l 925 178 m 668 1231 q 693 1251 681 1246 q 714 1256 706 1256 q 763 1236 742 1256 q 785 1189 785 1217 q 768 1131 785 1157 q 726 1087 751 1106 q 668 1058 700 1068 q 606 1049 636 1049 q 542 1059 574 1049 q 480 1081 510 1069 q 422 1103 450 1093 q 369 1114 394 1114 q 335 1104 349 1114 q 293 1065 321 1094 q 269 1047 282 1053 q 247 1042 257 1042 q 200 1061 222 1042 q 178 1108 178 1081 q 194 1165 178 1139 q 237 1210 211 1192 q 294 1240 263 1229 q 357 1250 326 1250 q 417 1240 386 1250 q 477 1217 447 1229 q 535 1195 507 1206 q 590 1185 564 1185 q 628 1194 614 1185 q 668 1231 643 1203 z "},"ä":{"ha":964,"x_min":25,"x_max":935,"o":"m 25 0 m 925 178 q 933 150 931 164 q 935 125 935 136 q 922 70 935 94 q 889 29 910 46 q 842 3 868 13 q 788 -6 815 -6 q 672 82 708 -6 l 653 129 l 310 129 l 288 82 q 168 -6 246 -6 q 115 4 140 -6 q 69 32 89 14 q 38 74 50 50 q 25 128 25 99 q 26 153 25 140 q 33 178 26 165 l 182 507 q 232 574 201 551 q 300 596 263 596 q 355 586 329 596 q 401 558 381 576 q 433 517 421 540 q 444 467 444 493 q 435 413 444 436 l 419 376 l 551 376 l 375 797 q 367 825 368 813 q 365 850 365 838 q 377 903 365 879 q 409 944 389 926 q 454 972 429 963 q 507 982 479 982 q 577 960 546 982 q 628 893 608 938 l 925 178 m 210 1146 q 239 1220 210 1190 q 311 1250 268 1250 q 385 1220 356 1250 q 414 1146 414 1190 q 385 1074 414 1103 q 311 1046 356 1046 q 239 1074 268 1046 q 210 1146 210 1103 m 549 1146 q 579 1220 549 1190 q 653 1250 610 1250 q 724 1220 696 1250 q 753 1146 753 1190 q 724 1074 753 1103 q 653 1046 696 1046 q 579 1074 610 1046 q 549 1146 549 1103 z "},"å":{"ha":964,"x_min":25,"x_max":935,"o":"m 25 0 m 925 178 q 933 150 931 164 q 935 125 935 136 q 922 70 935 94 q 889 29 910 46 q 842 3 868 13 q 788 -6 815 -6 q 672 82 708 -6 l 653 129 l 310 129 l 288 82 q 168 -6 246 -6 q 115 4 140 -6 q 69 32 89 14 q 38 74 50 50 q 25 128 25 99 q 26 153 25 140 q 33 178 26 165 l 182 507 q 232 574 201 551 q 300 596 263 596 q 355 586 329 596 q 401 558 381 576 q 433 517 421 540 q 444 467 444 493 q 435 413 444 436 l 419 376 l 551 376 l 375 797 q 367 825 368 813 q 365 850 365 838 q 377 903 365 879 q 409 944 389 926 q 454 972 429 963 q 507 982 479 982 q 577 960 546 982 q 628 893 608 938 l 925 178 m 328 1136 q 340 1194 328 1167 q 372 1241 351 1221 q 422 1272 393 1261 q 482 1283 450 1283 q 542 1272 514 1283 q 590 1241 569 1261 q 623 1194 611 1221 q 635 1136 635 1167 q 623 1078 635 1106 q 590 1032 611 1051 q 542 1001 569 1013 q 482 989 514 989 q 422 1001 450 989 q 372 1032 393 1013 q 340 1078 351 1051 q 328 1136 328 1106 m 422 1135 q 440 1091 422 1110 q 482 1072 458 1072 q 524 1091 507 1072 q 542 1135 542 1110 q 524 1179 542 1161 q 482 1197 507 1197 q 440 1179 458 1197 q 422 1135 422 1161 z "},"æ":{"ha":1535,"x_min":25,"x_max":1481,"o":"m 25 0 m 789 0 q 672 85 706 0 l 653 132 l 310 132 l 288 82 q 238 16 271 38 q 168 -6 206 -6 q 115 4 140 -6 q 69 31 89 14 q 38 72 50 47 q 25 125 25 96 q 33 178 25 150 l 278 721 q 327 789 294 767 q 399 811 360 811 q 452 801 426 811 q 498 772 478 790 q 530 731 518 754 q 542 681 542 707 q 531 626 542 653 l 419 376 l 671 376 l 671 842 q 804 978 671 978 l 1344 978 q 1444 938 1407 978 q 1481 842 1481 899 q 1444 747 1481 788 q 1344 707 1407 707 l 939 707 l 939 624 l 1344 624 q 1444 584 1407 624 q 1481 489 1481 544 q 1444 394 1481 433 q 1344 354 1407 354 l 939 354 l 939 272 l 1344 272 q 1444 232 1407 272 q 1481 136 1481 192 q 1444 40 1481 79 q 1344 0 1407 0 l 789 0 z "},"ç":{"ha":1003,"x_min":49,"x_max":967,"o":"m 49 0 m 351 0 q 125 78 201 0 q 49 315 49 157 l 49 663 q 125 899 49 821 q 351 978 201 978 l 801 978 q 928 944 889 978 q 967 839 967 910 q 928 736 967 768 q 801 704 889 704 l 358 704 q 318 667 319 704 l 318 315 q 358 275 318 275 l 806 275 q 930 241 893 275 q 967 138 967 207 q 930 33 967 67 q 806 0 893 0 l 351 0 m 596 -261 q 565 -310 586 -294 q 517 -325 544 -325 q 452 -303 479 -325 q 425 -246 425 -282 q 429 -219 425 -228 l 465 -86 q 544 -21 485 -21 q 611 -48 589 -21 q 633 -114 633 -75 q 631 -128 633 -119 l 596 -261 z "},"è":{"ha":919,"x_min":56,"x_max":865,"o":"m 56 0 m 190 0 q 56 136 56 0 l 56 842 q 190 978 56 978 l 729 978 q 829 938 793 978 q 865 842 865 899 q 829 747 865 788 q 729 707 793 707 l 324 707 l 324 624 l 729 624 q 829 584 793 624 q 865 489 865 544 q 829 394 865 433 q 729 354 793 354 l 324 354 l 324 272 l 729 272 q 829 232 793 272 q 865 136 865 192 q 829 40 865 79 q 729 0 793 0 l 190 0 m 271 1201 q 256 1224 260 1213 q 251 1247 251 1236 q 273 1296 251 1275 q 322 1317 294 1317 q 367 1296 347 1317 l 510 1149 q 529 1103 529 1129 q 508 1053 529 1075 q 460 1032 488 1032 q 411 1054 433 1032 l 271 1201 z "},"é":{"ha":919,"x_min":56,"x_max":865,"o":"m 56 0 m 190 0 q 56 136 56 0 l 56 842 q 190 978 56 978 l 729 978 q 829 938 793 978 q 865 842 865 899 q 829 747 865 788 q 729 707 793 707 l 324 707 l 324 624 l 729 624 q 829 584 793 624 q 865 489 865 544 q 829 394 865 433 q 729 354 793 354 l 324 354 l 324 272 l 729 272 q 829 232 793 272 q 865 136 865 192 q 829 40 865 79 q 729 0 793 0 l 190 0 m 508 1054 q 460 1032 486 1032 q 411 1053 432 1032 q 390 1103 390 1075 q 410 1149 390 1129 l 553 1296 q 597 1317 571 1317 q 647 1296 625 1317 q 668 1247 668 1275 q 664 1224 668 1236 q 649 1201 660 1213 l 508 1054 z "},"ê":{"ha":919,"x_min":56,"x_max":865,"o":"m 56 0 m 190 0 q 56 136 56 0 l 56 842 q 190 978 56 978 l 729 978 q 829 938 793 978 q 865 842 865 899 q 829 747 865 788 q 729 707 793 707 l 324 707 l 324 624 l 729 624 q 829 584 793 624 q 865 489 865 544 q 829 394 865 433 q 729 354 793 354 l 324 354 l 324 272 l 729 272 q 829 232 793 272 q 865 136 865 192 q 829 40 865 79 q 729 0 793 0 l 190 0 m 460 1111 l 329 1040 q 311 1033 319 1035 q 293 1032 303 1032 q 244 1053 265 1032 q 224 1106 224 1075 q 233 1135 224 1117 q 261 1165 242 1154 l 424 1253 q 461 1260 447 1260 q 478 1258 469 1260 q 494 1253 488 1257 l 657 1165 q 685 1135 676 1154 q 694 1106 694 1117 q 674 1053 694 1075 q 625 1032 653 1032 q 590 1040 604 1032 l 460 1111 z "},"ë":{"ha":919,"x_min":56,"x_max":865,"o":"m 56 0 m 190 0 q 56 136 56 0 l 56 842 q 190 978 56 978 l 729 978 q 829 938 793 978 q 865 842 865 899 q 829 747 865 788 q 729 707 793 707 l 324 707 l 324 624 l 729 624 q 829 584 793 624 q 865 489 865 544 q 829 394 865 433 q 729 354 793 354 l 324 354 l 324 272 l 729 272 q 829 232 793 272 q 865 136 865 192 q 829 40 865 79 q 729 0 793 0 l 190 0 m 188 1146 q 217 1220 188 1190 q 289 1250 246 1250 q 363 1220 333 1250 q 392 1146 392 1190 q 363 1074 392 1103 q 289 1046 333 1046 q 217 1074 246 1046 q 188 1146 188 1103 m 526 1146 q 557 1220 526 1190 q 631 1250 588 1250 q 702 1220 674 1250 q 731 1146 731 1190 q 702 1074 731 1103 q 631 1046 674 1046 q 557 1074 588 1046 q 526 1146 526 1103 z "},"ì":{"ha":381,"x_min":-17,"x_max":324,"o":"m 0 0 m 324 129 q 283 28 324 63 q 189 -6 243 -6 q 94 28 133 -6 q 54 129 54 63 l 54 849 q 94 947 54 913 q 189 982 133 982 q 283 947 243 982 q 324 849 324 913 l 324 129 m 3 1201 q -12 1224 -8 1213 q -17 1247 -17 1236 q 5 1296 -17 1275 q 54 1317 26 1317 q 99 1296 79 1317 l 242 1149 q 261 1103 261 1129 q 240 1053 261 1075 q 192 1032 219 1032 q 143 1054 165 1032 l 3 1201 z "},"í":{"ha":381,"x_min":54,"x_max":399,"o":"m 54 0 m 324 129 q 283 28 324 63 q 189 -6 243 -6 q 94 28 133 -6 q 54 129 54 63 l 54 849 q 94 947 54 913 q 189 982 133 982 q 283 947 243 982 q 324 849 324 913 l 324 129 m 239 1054 q 190 1032 217 1032 q 142 1053 163 1032 q 121 1103 121 1075 q 140 1149 121 1129 l 283 1296 q 328 1317 301 1317 q 377 1296 356 1317 q 399 1247 399 1275 q 394 1224 399 1236 q 379 1201 390 1213 l 239 1054 z "},"î":{"ha":381,"x_min":-43,"x_max":428,"o":"m 0 0 m 324 129 q 283 28 324 63 q 189 -6 243 -6 q 94 28 133 -6 q 54 129 54 63 l 54 849 q 94 947 54 913 q 189 982 133 982 q 283 947 243 982 q 324 849 324 913 l 324 129 m 193 1111 l 63 1040 q 44 1033 53 1035 q 26 1032 36 1032 q -22 1053 -1 1032 q -43 1106 -43 1075 q -34 1135 -43 1117 q -6 1165 -25 1154 l 157 1253 q 194 1260 181 1260 q 212 1258 203 1260 q 228 1253 221 1257 l 390 1165 q 419 1135 410 1154 q 428 1106 428 1117 q 407 1053 428 1075 q 358 1032 386 1032 q 324 1040 338 1032 l 193 1111 z "},"ï":{"ha":381,"x_min":-79,"x_max":464,"o":"m 0 0 m 324 129 q 283 28 324 63 q 189 -6 243 -6 q 94 28 133 -6 q 54 129 54 63 l 54 849 q 94 947 54 913 q 189 982 133 982 q 283 947 243 982 q 324 849 324 913 l 324 129 m -79 1146 q -50 1220 -79 1190 q 22 1250 -21 1250 q 96 1220 67 1250 q 125 1146 125 1190 q 96 1074 125 1103 q 22 1046 67 1046 q -50 1074 -21 1046 q -79 1146 -79 1103 m 260 1146 q 290 1220 260 1190 q 364 1250 321 1250 q 435 1220 407 1250 q 464 1146 464 1190 q 435 1074 464 1103 q 364 1046 407 1046 q 290 1074 321 1046 q 260 1146 260 1103 z "},"ð":{"ha":1031,"x_min":8,"x_max":996,"o":"m 8 0 m 119 842 q 131 891 119 867 q 161 935 142 915 q 206 966 181 954 q 260 978 231 978 l 472 978 q 688 940 592 978 q 853 835 785 901 q 959 681 922 769 q 996 492 996 592 q 958 296 996 386 q 853 140 921 206 q 694 38 786 75 q 493 0 601 0 l 260 0 q 158 37 196 0 q 119 136 119 74 l 119 351 q 36 399 64 360 q 8 486 8 439 q 16 533 8 510 q 38 574 24 556 q 73 606 53 593 q 119 622 93 618 l 119 842 m 389 272 l 494 272 q 583 288 542 272 q 656 333 625 304 q 703 401 686 361 q 721 489 721 440 q 704 572 721 533 q 657 640 688 611 q 585 687 626 669 q 493 704 543 704 l 389 704 l 389 624 l 489 624 q 588 583 553 624 q 624 486 624 542 q 588 391 624 432 q 489 350 553 350 l 389 350 l 389 272 z "},"ñ":{"ha":1049,"x_min":56,"x_max":992,"o":"m 56 0 m 360 704 q 324 668 324 704 l 324 136 q 292 27 324 61 q 190 -7 261 -7 q 56 136 56 -7 l 56 892 q 139 978 56 978 l 906 978 q 992 892 992 978 l 992 136 q 857 -6 992 -6 q 722 136 722 -6 l 722 668 q 688 704 722 704 l 360 704 m 711 1231 q 736 1251 724 1246 q 757 1256 749 1256 q 806 1236 785 1256 q 828 1189 828 1217 q 811 1131 828 1157 q 769 1087 794 1106 q 711 1058 743 1068 q 649 1049 679 1049 q 585 1059 617 1049 q 523 1081 553 1069 q 465 1103 493 1093 q 413 1114 438 1114 q 378 1104 392 1114 q 336 1065 364 1094 q 313 1047 325 1053 q 290 1042 300 1042 q 243 1061 265 1042 q 221 1108 221 1081 q 238 1165 221 1139 q 280 1210 254 1192 q 338 1240 306 1229 q 400 1250 369 1250 q 460 1240 429 1250 q 520 1217 490 1229 q 578 1195 550 1206 q 633 1185 607 1185 q 672 1194 657 1185 q 711 1231 686 1203 z "},"ò":{"ha":1038,"x_min":49,"x_max":986,"o":"m 49 0 m 986 315 q 910 78 986 157 q 683 0 833 0 l 351 0 q 125 78 201 0 q 49 315 49 157 l 49 663 q 125 899 49 821 q 351 978 201 978 l 683 978 q 910 899 833 978 q 986 663 986 821 l 986 315 m 360 704 q 329 695 340 704 q 318 667 318 686 l 318 315 q 360 275 318 275 l 675 275 q 715 315 715 275 l 715 663 q 675 704 715 704 l 360 704 m 329 1201 q 314 1224 318 1213 q 310 1247 310 1236 q 331 1296 310 1275 q 381 1317 353 1317 q 425 1296 406 1317 l 568 1149 q 588 1103 588 1129 q 567 1053 588 1075 q 518 1032 546 1032 q 469 1054 492 1032 l 329 1201 z "},"ó":{"ha":1038,"x_min":49,"x_max":986,"o":"m 49 0 m 986 315 q 910 78 986 157 q 683 0 833 0 l 351 0 q 125 78 201 0 q 49 315 49 157 l 49 663 q 125 899 49 821 q 351 978 201 978 l 683 978 q 910 899 833 978 q 986 663 986 821 l 986 315 m 360 704 q 329 695 340 704 q 318 667 318 686 l 318 315 q 360 275 318 275 l 675 275 q 715 315 715 275 l 715 663 q 675 704 715 704 l 360 704 m 567 1054 q 518 1032 544 1032 q 469 1053 490 1032 q 449 1103 449 1075 q 468 1149 449 1129 l 611 1296 q 656 1317 629 1317 q 705 1296 683 1317 q 726 1247 726 1275 q 722 1224 726 1236 q 707 1201 718 1213 l 567 1054 z "},"ô":{"ha":1038,"x_min":49,"x_max":986,"o":"m 49 0 m 986 315 q 910 78 986 157 q 683 0 833 0 l 351 0 q 125 78 201 0 q 49 315 49 157 l 49 663 q 125 899 49 821 q 351 978 201 978 l 683 978 q 910 899 833 978 q 986 663 986 821 l 986 315 m 360 704 q 329 695 340 704 q 318 667 318 686 l 318 315 q 360 275 318 275 l 675 275 q 715 315 715 275 l 715 663 q 675 704 715 704 l 360 704 m 519 1111 l 389 1040 q 371 1033 379 1035 q 353 1032 363 1032 q 304 1053 325 1032 q 283 1106 283 1075 q 292 1135 283 1117 q 321 1165 301 1154 l 483 1253 q 521 1260 507 1260 q 538 1258 529 1260 q 554 1253 547 1257 l 717 1165 q 745 1135 736 1154 q 754 1106 754 1117 q 733 1053 754 1075 q 685 1032 713 1032 q 650 1040 664 1032 l 519 1111 z "},"õ":{"ha":1038,"x_min":49,"x_max":986,"o":"m 49 0 m 986 315 q 910 78 986 157 q 683 0 833 0 l 351 0 q 125 78 201 0 q 49 315 49 157 l 49 663 q 125 899 49 821 q 351 978 201 978 l 683 978 q 910 899 833 978 q 986 663 986 821 l 986 315 m 360 704 q 329 695 340 704 q 318 667 318 686 l 318 315 q 360 275 318 275 l 675 275 q 715 315 715 275 l 715 663 q 675 704 715 704 l 360 704 m 706 1231 q 731 1251 718 1246 q 751 1256 743 1256 q 801 1236 779 1256 q 822 1189 822 1217 q 806 1131 822 1157 q 763 1087 789 1106 q 706 1058 738 1068 q 643 1049 674 1049 q 579 1059 611 1049 q 517 1081 547 1069 q 460 1103 488 1093 q 407 1114 432 1114 q 372 1104 386 1114 q 331 1065 358 1094 q 307 1047 319 1053 q 285 1042 294 1042 q 238 1061 260 1042 q 215 1108 215 1081 q 232 1165 215 1139 q 274 1210 249 1192 q 332 1240 300 1229 q 394 1250 364 1250 q 454 1240 424 1250 q 515 1217 485 1229 q 573 1195 544 1206 q 628 1185 601 1185 q 666 1194 651 1185 q 706 1231 681 1203 z "},"ö":{"ha":1038,"x_min":49,"x_max":986,"o":"m 49 0 m 986 315 q 910 78 986 157 q 683 0 833 0 l 351 0 q 125 78 201 0 q 49 315 49 157 l 49 663 q 125 899 49 821 q 351 978 201 978 l 683 978 q 910 899 833 978 q 986 663 986 821 l 986 315 m 360 704 q 329 695 340 704 q 318 667 318 686 l 318 315 q 360 275 318 275 l 675 275 q 715 315 715 275 l 715 663 q 675 704 715 704 l 360 704 m 247 1146 q 276 1220 247 1190 q 349 1250 306 1250 q 422 1220 393 1250 q 451 1146 451 1190 q 422 1074 451 1103 q 349 1046 393 1046 q 276 1074 306 1046 q 247 1146 247 1103 m 586 1146 q 617 1220 586 1190 q 690 1250 647 1250 q 762 1220 733 1250 q 790 1146 790 1190 q 762 1074 790 1103 q 690 1046 733 1046 q 617 1074 647 1046 q 586 1146 586 1103 z "},"÷":{"ha":806,"x_min":46,"x_max":758,"o":"m 158 374 q 76 407 106 374 q 46 485 46 440 q 76 567 46 532 q 158 601 106 601 l 646 601 q 728 567 699 601 q 758 485 758 532 q 728 407 758 440 q 646 374 699 374 l 158 374 m 538 171 q 526 119 538 143 q 497 77 515 96 q 453 48 478 58 q 401 38 428 38 q 349 48 374 38 q 306 77 325 58 q 277 119 288 96 q 267 171 267 143 q 277 222 267 197 q 306 266 288 247 q 349 296 325 285 q 401 307 374 307 q 453 296 428 307 q 497 266 478 285 q 526 222 515 247 q 538 171 538 197 m 536 797 q 497 699 536 738 q 401 661 457 661 q 306 699 346 661 q 267 797 267 738 q 277 849 267 825 q 306 892 288 874 q 349 922 325 911 q 401 932 374 932 q 453 922 429 932 q 497 892 478 911 q 526 849 515 874 q 536 797 536 825 z "},"ø":{"ha":1038,"x_min":49,"x_max":986,"o":"m 49 0 m 986 317 q 683 1 986 1 l 385 1 l 324 -128 q 294 -167 313 -154 q 251 -179 275 -179 q 185 -156 213 -179 q 158 -99 158 -132 q 168 -58 158 -76 l 207 26 q 49 317 49 90 l 49 663 q 351 978 49 978 l 650 978 l 685 1050 q 757 1101 710 1101 q 819 1077 790 1101 q 847 1017 847 1053 q 840 982 847 1000 l 826 953 q 986 663 986 890 l 986 317 m 319 317 q 328 286 319 294 l 522 704 l 360 704 q 319 667 321 704 l 319 317 m 675 276 q 715 317 715 276 l 715 663 q 706 693 715 683 l 513 276 l 675 276 z "},"ù":{"ha":1050,"x_min":56,"x_max":993,"o":"m 56 0 m 689 274 q 722 304 722 274 l 722 839 q 754 948 722 914 q 856 982 786 982 q 993 839 993 982 l 993 86 q 910 0 993 0 l 140 0 q 56 86 56 0 l 56 839 q 190 981 56 981 q 325 839 325 981 l 325 310 q 360 274 325 274 l 689 274 m 336 1201 q 321 1224 325 1213 q 317 1247 317 1236 q 338 1296 317 1275 q 388 1317 360 1317 q 432 1296 413 1317 l 575 1149 q 594 1103 594 1129 q 574 1053 594 1075 q 525 1032 553 1032 q 476 1054 499 1032 l 336 1201 z "},"ú":{"ha":1050,"x_min":56,"x_max":993,"o":"m 56 0 m 689 274 q 722 304 722 274 l 722 839 q 754 948 722 914 q 856 982 786 982 q 993 839 993 982 l 993 86 q 910 0 993 0 l 140 0 q 56 86 56 0 l 56 839 q 190 981 56 981 q 325 839 325 981 l 325 310 q 360 274 325 274 l 689 274 m 574 1054 q 525 1032 551 1032 q 476 1053 497 1032 q 456 1103 456 1075 q 475 1149 456 1129 l 618 1296 q 663 1317 636 1317 q 712 1296 690 1317 q 733 1247 733 1275 q 729 1224 733 1236 q 714 1201 725 1213 l 574 1054 z "},"û":{"ha":1050,"x_min":56,"x_max":993,"o":"m 56 0 m 689 274 q 722 304 722 274 l 722 839 q 754 948 722 914 q 856 982 786 982 q 993 839 993 982 l 993 86 q 910 0 993 0 l 140 0 q 56 86 56 0 l 56 839 q 190 981 56 981 q 325 839 325 981 l 325 310 q 360 274 325 274 l 689 274 m 525 1111 l 394 1040 q 376 1033 385 1035 q 358 1032 368 1032 q 310 1053 331 1032 q 289 1106 289 1075 q 298 1135 289 1117 q 326 1165 307 1154 l 489 1253 q 526 1260 513 1260 q 544 1258 535 1260 q 560 1253 553 1257 l 722 1165 q 751 1135 742 1154 q 760 1106 760 1117 q 739 1053 760 1075 q 690 1032 718 1032 q 656 1040 669 1032 l 525 1111 z "},"ü":{"ha":1050,"x_min":56,"x_max":993,"o":"m 56 0 m 689 274 q 722 304 722 274 l 722 839 q 754 948 722 914 q 856 982 786 982 q 993 839 993 982 l 993 86 q 910 0 993 0 l 140 0 q 56 86 56 0 l 56 839 q 190 981 56 981 q 325 839 325 981 l 325 310 q 360 274 325 274 l 689 274 m 253 1146 q 282 1220 253 1190 q 354 1250 311 1250 q 428 1220 399 1250 q 457 1146 457 1190 q 428 1074 457 1103 q 354 1046 399 1046 q 282 1074 311 1046 q 253 1146 253 1103 m 592 1146 q 622 1220 592 1190 q 696 1250 653 1250 q 767 1220 739 1250 q 796 1146 796 1190 q 767 1074 796 1103 q 696 1046 739 1046 q 622 1074 653 1046 q 592 1146 592 1103 z "},"ý":{"ha":800,"x_min":25,"x_max":775,"o":"m 25 0 m 521 913 q 573 965 542 949 q 636 982 604 982 q 688 972 663 982 q 732 944 713 961 q 763 902 751 926 q 775 850 775 878 q 753 776 775 813 l 536 424 l 536 129 q 496 28 536 63 q 401 -6 456 -6 q 306 28 346 -6 q 267 129 267 63 l 267 424 l 47 778 q 25 846 25 813 q 37 899 25 874 q 68 942 49 924 q 113 972 88 961 q 165 982 138 982 q 226 966 194 982 q 279 914 258 950 l 400 703 l 521 913 m 449 1054 q 400 1032 426 1032 q 351 1053 372 1032 q 331 1103 331 1075 q 350 1149 331 1129 l 493 1296 q 538 1317 511 1317 q 587 1296 565 1317 q 608 1247 608 1275 q 604 1224 608 1236 q 589 1201 600 1213 l 449 1054 z "},"þ":{"ha":851,"x_min":54,"x_max":835,"o":"m 54 0 m 321 133 q 186 -6 321 -6 q 85 28 117 -6 q 54 133 54 63 l 54 285 q 90 408 54 368 q 206 449 126 449 l 546 449 q 600 490 600 449 q 546 532 600 532 l 207 532 q 90 566 125 532 q 54 671 54 600 l 54 843 q 85 948 54 914 q 186 982 117 982 q 321 843 321 982 l 321 803 l 531 803 q 835 490 835 803 q 533 179 835 179 l 321 179 l 321 133 z "},"ÿ":{"ha":800,"x_min":25,"x_max":775,"o":"m 25 0 m 521 913 q 573 965 542 949 q 636 982 604 982 q 688 972 663 982 q 732 944 713 961 q 763 902 751 926 q 775 850 775 878 q 753 776 775 813 l 536 424 l 536 129 q 496 28 536 63 q 401 -6 456 -6 q 306 28 346 -6 q 267 129 267 63 l 267 424 l 47 778 q 25 846 25 813 q 37 899 25 874 q 68 942 49 924 q 113 972 88 961 q 165 982 138 982 q 226 966 194 982 q 279 914 258 950 l 400 703 l 521 913 m 128 1146 q 157 1220 128 1190 q 229 1250 186 1250 q 303 1220 274 1250 q 332 1146 332 1190 q 303 1074 332 1103 q 229 1046 274 1046 q 157 1074 186 1046 q 128 1146 128 1103 m 467 1146 q 497 1220 467 1190 q 571 1250 528 1250 q 642 1220 614 1250 q 671 1146 671 1190 q 642 1074 671 1103 q 571 1046 614 1046 q 497 1074 528 1046 q 467 1146 467 1103 z "},"Ā":{"ha":964,"x_min":25,"x_max":935,"o":"m 25 0 m 925 178 q 933 150 931 164 q 935 125 935 136 q 922 70 935 94 q 889 29 910 46 q 842 3 868 13 q 788 -6 815 -6 q 672 82 708 -6 l 653 129 l 310 129 l 288 82 q 168 -6 246 -6 q 115 4 140 -6 q 69 32 89 14 q 38 74 50 50 q 25 128 25 99 q 26 153 25 140 q 33 178 26 165 l 182 507 q 232 574 201 551 q 300 596 263 596 q 355 586 329 596 q 401 558 381 576 q 433 517 421 540 q 444 467 444 493 q 435 413 444 436 l 419 376 l 551 376 l 375 797 q 367 825 368 813 q 365 850 365 838 q 377 903 365 879 q 409 944 389 926 q 454 972 429 963 q 507 982 479 982 q 577 960 546 982 q 628 893 608 938 l 925 178 m 292 1054 q 224 1081 249 1054 q 200 1144 200 1108 q 224 1211 200 1182 q 292 1240 249 1240 l 671 1240 q 738 1211 714 1240 q 763 1144 763 1182 q 738 1081 763 1108 q 671 1054 714 1054 l 292 1054 z "},"ā":{"ha":964,"x_min":25,"x_max":935,"o":"m 25 0 m 925 178 q 933 150 931 164 q 935 125 935 136 q 922 70 935 94 q 889 29 910 46 q 842 3 868 13 q 788 -6 815 -6 q 672 82 708 -6 l 653 129 l 310 129 l 288 82 q 168 -6 246 -6 q 115 4 140 -6 q 69 32 89 14 q 38 74 50 50 q 25 128 25 99 q 26 153 25 140 q 33 178 26 165 l 182 507 q 232 574 201 551 q 300 596 263 596 q 355 586 329 596 q 401 558 381 576 q 433 517 421 540 q 444 467 444 493 q 435 413 444 436 l 419 376 l 551 376 l 375 797 q 367 825 368 813 q 365 850 365 838 q 377 903 365 879 q 409 944 389 926 q 454 972 429 963 q 507 982 479 982 q 577 960 546 982 q 628 893 608 938 l 925 178 m 292 1054 q 224 1081 249 1054 q 200 1144 200 1108 q 224 1211 200 1182 q 292 1240 249 1240 l 671 1240 q 738 1211 714 1240 q 763 1144 763 1182 q 738 1081 763 1108 q 671 1054 714 1054 l 292 1054 z "},"Ă":{"ha":964,"x_min":25,"x_max":935,"o":"m 25 0 m 925 178 q 933 150 931 164 q 935 125 935 136 q 922 70 935 94 q 889 29 910 46 q 842 3 868 13 q 788 -6 815 -6 q 672 82 708 -6 l 653 129 l 310 129 l 288 82 q 168 -6 246 -6 q 115 4 140 -6 q 69 32 89 14 q 38 74 50 50 q 25 128 25 99 q 26 153 25 140 q 33 178 26 165 l 182 507 q 232 574 201 551 q 300 596 263 596 q 355 586 329 596 q 401 558 381 576 q 433 517 421 540 q 444 467 444 493 q 435 413 444 436 l 419 376 l 551 376 l 375 797 q 367 825 368 813 q 365 850 365 838 q 377 903 365 879 q 409 944 389 926 q 454 972 429 963 q 507 982 479 982 q 577 960 546 982 q 628 893 608 938 l 925 178 m 647 1260 q 696 1238 675 1260 q 717 1188 717 1217 q 693 1122 717 1150 q 634 1073 669 1093 q 558 1042 599 1053 q 482 1032 517 1032 q 405 1042 446 1032 q 328 1073 364 1053 q 269 1122 293 1093 q 246 1188 246 1150 q 267 1238 246 1217 q 315 1260 288 1260 q 363 1246 347 1260 q 391 1215 378 1232 q 423 1183 404 1197 q 482 1169 442 1169 q 540 1183 521 1169 q 572 1215 558 1197 q 600 1246 585 1232 q 647 1260 615 1260 z "},"ă":{"ha":964,"x_min":25,"x_max":935,"o":"m 25 0 m 925 178 q 933 150 931 164 q 935 125 935 136 q 922 70 935 94 q 889 29 910 46 q 842 3 868 13 q 788 -6 815 -6 q 672 82 708 -6 l 653 129 l 310 129 l 288 82 q 168 -6 246 -6 q 115 4 140 -6 q 69 32 89 14 q 38 74 50 50 q 25 128 25 99 q 26 153 25 140 q 33 178 26 165 l 182 507 q 232 574 201 551 q 300 596 263 596 q 355 586 329 596 q 401 558 381 576 q 433 517 421 540 q 444 467 444 493 q 435 413 444 436 l 419 376 l 551 376 l 375 797 q 367 825 368 813 q 365 850 365 838 q 377 903 365 879 q 409 944 389 926 q 454 972 429 963 q 507 982 479 982 q 577 960 546 982 q 628 893 608 938 l 925 178 m 647 1260 q 696 1238 675 1260 q 717 1188 717 1217 q 693 1122 717 1150 q 634 1073 669 1093 q 558 1042 599 1053 q 482 1032 517 1032 q 405 1042 446 1032 q 328 1073 364 1053 q 269 1122 293 1093 q 246 1188 246 1150 q 267 1238 246 1217 q 315 1260 288 1260 q 363 1246 347 1260 q 391 1215 378 1232 q 423 1183 404 1197 q 482 1169 442 1169 q 540 1183 521 1169 q 572 1215 558 1197 q 600 1246 585 1232 q 647 1260 615 1260 z "},"Ą":{"ha":964,"x_min":24,"x_max":946,"o":"m 925 178 q 933 150 931 164 q 935 125 935 136 q 922 70 935 94 q 889 29 910 46 q 842 3 868 13 q 788 -6 815 -6 q 739 -17 754 -6 q 724 -49 724 -29 q 742 -83 724 -75 q 824 -92 761 -92 q 916 -126 886 -92 q 946 -210 946 -161 q 916 -290 946 -256 q 831 -325 886 -325 q 711 -310 760 -325 q 633 -268 663 -294 q 590 -206 603 -242 q 578 -131 578 -171 q 590 -47 578 -81 q 618 12 603 -14 q 646 58 633 38 q 658 100 658 78 q 653 129 658 114 l 310 129 l 288 82 q 168 -6 246 -6 q 115 4 140 -6 q 69 32 89 14 q 38 74 50 50 q 25 128 25 99 q 25 153 24 140 q 33 178 26 165 l 182 507 q 232 574 201 551 q 300 596 263 596 q 355 586 329 596 q 401 558 381 576 q 433 517 421 540 q 444 467 444 493 q 435 413 444 436 l 419 376 l 551 376 l 375 797 q 367 825 368 813 q 365 850 365 838 q 377 903 365 879 q 409 944 389 926 q 454 972 429 963 q 507 982 479 982 q 577 960 546 982 q 628 893 608 938 l 925 178 z "},"ą":{"ha":964,"x_min":24,"x_max":946,"o":"m 24 0 m 925 178 q 933 150 931 164 q 935 125 935 136 q 922 70 935 94 q 889 29 910 46 q 842 3 868 13 q 788 -6 815 -6 q 739 -17 754 -6 q 724 -49 724 -29 q 742 -83 724 -75 q 824 -92 761 -92 q 916 -126 886 -92 q 946 -210 946 -161 q 916 -290 946 -256 q 831 -325 886 -325 q 711 -310 760 -325 q 633 -268 663 -294 q 590 -206 603 -242 q 578 -131 578 -171 q 590 -47 578 -81 q 618 12 603 -14 q 646 58 633 38 q 658 100 658 78 q 653 129 658 114 l 310 129 l 288 82 q 168 -6 246 -6 q 115 4 140 -6 q 69 32 89 14 q 38 74 50 50 q 25 128 25 99 q 25 153 24 140 q 33 178 26 165 l 182 507 q 232 574 201 551 q 300 596 263 596 q 355 586 329 596 q 401 558 381 576 q 433 517 421 540 q 444 467 444 493 q 435 413 444 436 l 419 376 l 551 376 l 375 797 q 367 825 368 813 q 365 850 365 838 q 377 903 365 879 q 409 944 389 926 q 454 972 429 963 q 507 982 479 982 q 577 960 546 982 q 628 893 608 938 l 925 178 z "},"Ć":{"ha":1003,"x_min":49,"x_max":967,"o":"m 49 0 m 351 0 q 125 78 201 0 q 49 315 49 157 l 49 663 q 125 899 49 821 q 351 978 201 978 l 801 978 q 928 944 889 978 q 967 839 967 910 q 928 736 967 768 q 801 704 889 704 l 358 704 q 318 667 319 704 l 318 315 q 358 275 318 275 l 806 275 q 930 241 893 275 q 967 138 967 207 q 930 33 967 67 q 806 0 893 0 l 351 0 m 550 1054 q 501 1032 528 1032 q 453 1053 474 1032 q 432 1103 432 1075 q 451 1149 432 1129 l 594 1296 q 639 1317 613 1317 q 688 1296 667 1317 q 710 1247 710 1275 q 706 1224 710 1236 q 690 1201 701 1213 l 550 1054 z "},"ć":{"ha":1003,"x_min":49,"x_max":967,"o":"m 49 0 m 351 0 q 125 78 201 0 q 49 315 49 157 l 49 663 q 125 899 49 821 q 351 978 201 978 l 801 978 q 928 944 889 978 q 967 839 967 910 q 928 736 967 768 q 801 704 889 704 l 358 704 q 318 667 319 704 l 318 315 q 358 275 318 275 l 806 275 q 930 241 893 275 q 967 138 967 207 q 930 33 967 67 q 806 0 893 0 l 351 0 m 550 1054 q 501 1032 528 1032 q 453 1053 474 1032 q 432 1103 432 1075 q 451 1149 432 1129 l 594 1296 q 639 1317 613 1317 q 688 1296 667 1317 q 710 1247 710 1275 q 706 1224 710 1236 q 690 1201 701 1213 l 550 1054 z "},"Ċ":{"ha":1003,"x_min":49,"x_max":967,"o":"m 49 0 m 351 0 q 125 78 201 0 q 49 315 49 157 l 49 663 q 125 899 49 821 q 351 978 201 978 l 801 978 q 928 944 889 978 q 967 839 967 910 q 928 736 967 768 q 801 704 889 704 l 358 704 q 318 667 319 704 l 318 315 q 358 275 318 275 l 806 275 q 930 241 893 275 q 967 138 967 207 q 930 33 967 67 q 806 0 893 0 l 351 0 m 399 1146 q 428 1220 399 1190 q 500 1250 457 1250 q 574 1220 544 1250 q 603 1146 603 1190 q 574 1074 603 1103 q 500 1046 544 1046 q 428 1074 457 1046 q 399 1146 399 1103 z "},"ċ":{"ha":1003,"x_min":49,"x_max":967,"o":"m 49 0 m 351 0 q 125 78 201 0 q 49 315 49 157 l 49 663 q 125 899 49 821 q 351 978 201 978 l 801 978 q 928 944 889 978 q 967 839 967 910 q 928 736 967 768 q 801 704 889 704 l 358 704 q 318 667 319 704 l 318 315 q 358 275 318 275 l 806 275 q 930 241 893 275 q 967 138 967 207 q 930 33 967 67 q 806 0 893 0 l 351 0 m 399 1146 q 428 1220 399 1190 q 500 1250 457 1250 q 574 1220 544 1250 q 603 1146 603 1190 q 574 1074 603 1103 q 500 1046 544 1046 q 428 1074 457 1046 q 399 1146 399 1103 z "},"Č":{"ha":1003,"x_min":49,"x_max":967,"o":"m 49 0 m 351 0 q 125 78 201 0 q 49 315 49 157 l 49 663 q 125 899 49 821 q 351 978 201 978 l 801 978 q 928 944 889 978 q 967 839 967 910 q 928 736 967 768 q 801 704 889 704 l 358 704 q 318 667 319 704 l 318 315 q 358 275 318 275 l 806 275 q 930 241 893 275 q 967 138 967 207 q 930 33 967 67 q 806 0 893 0 l 351 0 m 501 1182 l 632 1253 q 649 1259 640 1258 q 667 1260 657 1260 q 715 1238 694 1260 q 736 1188 736 1217 q 699 1126 736 1144 l 536 1040 q 499 1032 521 1032 q 465 1040 479 1032 l 303 1126 q 274 1153 282 1138 q 265 1188 265 1168 q 286 1238 265 1217 q 335 1260 307 1260 q 353 1259 344 1260 q 371 1253 361 1258 l 501 1182 z "},"č":{"ha":1003,"x_min":49,"x_max":967,"o":"m 49 0 m 351 0 q 125 78 201 0 q 49 315 49 157 l 49 663 q 125 899 49 821 q 351 978 201 978 l 801 978 q 928 944 889 978 q 967 839 967 910 q 928 736 967 768 q 801 704 889 704 l 358 704 q 318 667 319 704 l 318 315 q 358 275 318 275 l 806 275 q 930 241 893 275 q 967 138 967 207 q 930 33 967 67 q 806 0 893 0 l 351 0 m 501 1182 l 632 1253 q 649 1259 640 1258 q 667 1260 657 1260 q 715 1238 694 1260 q 736 1188 736 1217 q 699 1126 736 1144 l 536 1040 q 499 1032 521 1032 q 465 1040 479 1032 l 303 1126 q 274 1153 282 1138 q 265 1188 265 1168 q 286 1238 265 1217 q 335 1260 307 1260 q 353 1259 344 1260 q 371 1253 361 1258 l 501 1182 z "},"Ď":{"ha":938,"x_min":56,"x_max":932,"o":"m 56 0 m 325 272 l 432 272 q 520 288 479 272 q 592 331 561 303 q 640 399 622 358 q 657 489 657 439 q 640 578 657 539 q 593 647 624 618 q 522 690 563 675 q 431 704 481 704 l 325 704 l 325 272 m 56 842 q 66 891 56 867 q 95 935 76 915 q 140 966 114 954 q 196 978 165 978 l 410 978 q 627 939 531 978 q 791 833 724 900 q 895 678 858 767 q 932 492 932 590 q 894 299 932 388 q 790 147 857 211 q 631 44 724 82 q 431 0 539 6 l 196 0 q 92 36 129 0 q 56 136 56 72 l 56 842 m 469 1182 l 600 1253 q 617 1259 608 1258 q 635 1260 625 1260 q 683 1238 663 1260 q 704 1188 704 1217 q 667 1126 704 1144 l 504 1040 q 467 1032 489 1032 q 433 1040 447 1032 l 271 1126 q 242 1153 250 1138 q 233 1188 233 1168 q 254 1238 233 1217 q 303 1260 275 1260 q 321 1259 313 1260 q 339 1253 329 1258 l 469 1182 z "},"ď":{"ha":938,"x_min":56,"x_max":932,"o":"m 56 0 m 325 272 l 432 272 q 520 288 479 272 q 592 331 561 303 q 640 399 622 358 q 657 489 657 439 q 640 578 657 539 q 593 647 624 618 q 522 690 563 675 q 431 704 481 704 l 325 704 l 325 272 m 56 842 q 66 891 56 867 q 95 935 76 915 q 140 966 114 954 q 196 978 165 978 l 410 978 q 627 939 531 978 q 791 833 724 900 q 895 678 858 767 q 932 492 932 590 q 894 299 932 388 q 790 147 857 211 q 631 44 724 82 q 431 0 539 6 l 196 0 q 92 36 129 0 q 56 136 56 72 l 56 842 m 469 1182 l 600 1253 q 617 1259 608 1258 q 635 1260 625 1260 q 683 1238 663 1260 q 704 1188 704 1217 q 667 1126 704 1144 l 504 1040 q 467 1032 489 1032 q 433 1040 447 1032 l 271 1126 q 242 1153 250 1138 q 233 1188 233 1168 q 254 1238 233 1217 q 303 1260 275 1260 q 321 1259 313 1260 q 339 1253 329 1258 l 469 1182 z "},"Đ":{"ha":1031,"x_min":8,"x_max":996,"o":"m 8 0 m 119 842 q 131 891 119 867 q 161 935 142 915 q 206 966 181 954 q 260 978 231 978 l 472 978 q 688 940 592 978 q 853 835 785 901 q 959 681 922 769 q 996 492 996 592 q 958 296 996 386 q 853 140 921 206 q 694 38 786 75 q 493 0 601 0 l 260 0 q 158 37 196 0 q 119 136 119 74 l 119 351 q 36 399 64 360 q 8 486 8 439 q 16 533 8 510 q 38 574 24 556 q 73 606 53 593 q 119 622 93 618 l 119 842 m 389 272 l 494 272 q 583 288 542 272 q 656 333 625 304 q 703 401 686 361 q 721 489 721 440 q 704 572 721 533 q 657 640 688 611 q 585 687 626 669 q 493 704 543 704 l 389 704 l 389 624 l 489 624 q 588 583 553 624 q 624 486 624 542 q 588 391 624 432 q 489 350 553 350 l 389 350 l 389 272 z "},"đ":{"ha":1031,"x_min":8,"x_max":996,"o":"m 8 0 m 119 842 q 131 891 119 867 q 161 935 142 915 q 206 966 181 954 q 260 978 231 978 l 472 978 q 688 940 592 978 q 853 835 785 901 q 959 681 922 769 q 996 492 996 592 q 958 296 996 386 q 853 140 921 206 q 694 38 786 75 q 493 0 601 0 l 260 0 q 158 37 196 0 q 119 136 119 74 l 119 351 q 36 399 64 360 q 8 486 8 439 q 16 533 8 510 q 38 574 24 556 q 73 606 53 593 q 119 622 93 618 l 119 842 m 389 272 l 494 272 q 583 288 542 272 q 656 333 625 304 q 703 401 686 361 q 721 489 721 440 q 704 572 721 533 q 657 640 688 611 q 585 687 626 669 q 493 704 543 704 l 389 704 l 389 624 l 489 624 q 588 583 553 624 q 624 486 624 542 q 588 391 624 432 q 489 350 553 350 l 389 350 l 389 272 z "},"Ē":{"ha":919,"x_min":56,"x_max":865,"o":"m 56 0 m 190 0 q 56 136 56 0 l 56 842 q 190 978 56 978 l 729 978 q 829 938 793 978 q 865 842 865 899 q 829 747 865 788 q 729 707 793 707 l 324 707 l 324 624 l 729 624 q 829 584 793 624 q 865 489 865 544 q 829 394 865 433 q 729 354 793 354 l 324 354 l 324 272 l 729 272 q 829 232 793 272 q 865 136 865 192 q 829 40 865 79 q 729 0 793 0 l 190 0 m 269 1054 q 202 1081 226 1054 q 178 1144 178 1108 q 202 1211 178 1182 q 269 1240 226 1240 l 649 1240 q 716 1211 692 1240 q 740 1144 740 1182 q 716 1081 740 1108 q 649 1054 692 1054 l 269 1054 z "},"ē":{"ha":919,"x_min":56,"x_max":865,"o":"m 56 0 m 190 0 q 56 136 56 0 l 56 842 q 190 978 56 978 l 729 978 q 829 938 793 978 q 865 842 865 899 q 829 747 865 788 q 729 707 793 707 l 324 707 l 324 624 l 729 624 q 829 584 793 624 q 865 489 865 544 q 829 394 865 433 q 729 354 793 354 l 324 354 l 324 272 l 729 272 q 829 232 793 272 q 865 136 865 192 q 829 40 865 79 q 729 0 793 0 l 190 0 m 269 1054 q 202 1081 226 1054 q 178 1144 178 1108 q 202 1211 178 1182 q 269 1240 226 1240 l 649 1240 q 716 1211 692 1240 q 740 1144 740 1182 q 716 1081 740 1108 q 649 1054 692 1054 l 269 1054 z "},"Ĕ":{"ha":919,"x_min":56,"x_max":865,"o":"m 56 0 m 190 0 q 56 136 56 0 l 56 842 q 190 978 56 978 l 729 978 q 829 938 793 978 q 865 842 865 899 q 829 747 865 788 q 729 707 793 707 l 324 707 l 324 624 l 729 624 q 829 584 793 624 q 865 489 865 544 q 829 394 865 433 q 729 354 793 354 l 324 354 l 324 272 l 729 272 q 829 232 793 272 q 865 136 865 192 q 829 40 865 79 q 729 0 793 0 l 190 0 m 625 1260 q 674 1238 653 1260 q 694 1188 694 1217 q 671 1122 694 1150 q 612 1073 647 1093 q 535 1042 576 1053 q 460 1032 494 1032 q 383 1042 424 1032 q 306 1073 342 1053 q 247 1122 271 1093 q 224 1188 224 1150 q 244 1238 224 1217 q 293 1260 265 1260 q 340 1246 325 1260 q 369 1215 356 1232 q 401 1183 382 1197 q 460 1169 419 1169 q 517 1183 499 1169 q 549 1215 536 1197 q 578 1246 563 1232 q 625 1260 593 1260 z "},"ĕ":{"ha":919,"x_min":56,"x_max":865,"o":"m 56 0 m 190 0 q 56 136 56 0 l 56 842 q 190 978 56 978 l 729 978 q 829 938 793 978 q 865 842 865 899 q 829 747 865 788 q 729 707 793 707 l 324 707 l 324 624 l 729 624 q 829 584 793 624 q 865 489 865 544 q 829 394 865 433 q 729 354 793 354 l 324 354 l 324 272 l 729 272 q 829 232 793 272 q 865 136 865 192 q 829 40 865 79 q 729 0 793 0 l 190 0 m 625 1260 q 674 1238 653 1260 q 694 1188 694 1217 q 671 1122 694 1150 q 612 1073 647 1093 q 535 1042 576 1053 q 460 1032 494 1032 q 383 1042 424 1032 q 306 1073 342 1053 q 247 1122 271 1093 q 224 1188 224 1150 q 244 1238 224 1217 q 293 1260 265 1260 q 340 1246 325 1260 q 369 1215 356 1232 q 401 1183 382 1197 q 460 1169 419 1169 q 517 1183 499 1169 q 549 1215 536 1197 q 578 1246 563 1232 q 625 1260 593 1260 z "},"Ė":{"ha":919,"x_min":56,"x_max":865,"o":"m 56 0 m 190 0 q 56 136 56 0 l 56 842 q 190 978 56 978 l 729 978 q 829 938 793 978 q 865 842 865 899 q 829 747 865 788 q 729 707 793 707 l 324 707 l 324 624 l 729 624 q 829 584 793 624 q 865 489 865 544 q 829 394 865 433 q 729 354 793 354 l 324 354 l 324 272 l 729 272 q 829 232 793 272 q 865 136 865 192 q 829 40 865 79 q 729 0 793 0 l 190 0 m 357 1146 q 386 1220 357 1190 q 458 1250 415 1250 q 532 1220 503 1250 q 561 1146 561 1190 q 532 1074 561 1103 q 458 1046 503 1046 q 386 1074 415 1046 q 357 1146 357 1103 z "},"ė":{"ha":919,"x_min":56,"x_max":865,"o":"m 56 0 m 190 0 q 56 136 56 0 l 56 842 q 190 978 56 978 l 729 978 q 829 938 793 978 q 865 842 865 899 q 829 747 865 788 q 729 707 793 707 l 324 707 l 324 624 l 729 624 q 829 584 793 624 q 865 489 865 544 q 829 394 865 433 q 729 354 793 354 l 324 354 l 324 272 l 729 272 q 829 232 793 272 q 865 136 865 192 q 829 40 865 79 q 729 0 793 0 l 190 0 m 357 1146 q 386 1220 357 1190 q 458 1250 415 1250 q 532 1220 503 1250 q 561 1146 561 1190 q 532 1074 561 1103 q 458 1046 503 1046 q 386 1074 415 1046 q 357 1146 357 1103 z "},"Ę":{"ha":919,"x_min":56,"x_max":865,"o":"m 699 0 q 655 -12 667 0 q 643 -43 643 -24 q 662 -83 643 -74 q 743 -92 681 -92 q 835 -126 806 -92 q 865 -210 865 -161 q 835 -290 865 -256 q 750 -325 806 -325 q 631 -310 679 -325 q 552 -268 582 -294 q 510 -206 522 -242 q 497 -131 497 -171 q 506 -64 497 -99 q 529 0 514 -29 l 190 0 q 56 136 56 0 l 56 842 q 190 978 56 978 l 729 978 q 829 938 793 978 q 865 842 865 899 q 829 747 865 788 q 729 707 793 707 l 324 707 l 324 624 l 729 624 q 829 584 793 624 q 865 489 865 544 q 829 394 865 433 q 729 354 793 354 l 324 354 l 324 272 l 729 272 q 829 232 793 272 q 865 136 865 192 q 829 40 865 79 q 729 0 793 0 l 699 0 z "},"ę":{"ha":919,"x_min":56,"x_max":865,"o":"m 56 0 m 699 0 q 655 -12 667 0 q 643 -43 643 -24 q 662 -83 643 -74 q 743 -92 681 -92 q 835 -126 806 -92 q 865 -210 865 -161 q 835 -290 865 -256 q 750 -325 806 -325 q 631 -310 679 -325 q 552 -268 582 -294 q 510 -206 522 -242 q 497 -131 497 -171 q 506 -64 497 -99 q 529 0 514 -29 l 190 0 q 56 136 56 0 l 56 842 q 190 978 56 978 l 729 978 q 829 938 793 978 q 865 842 865 899 q 829 747 865 788 q 729 707 793 707 l 324 707 l 324 624 l 729 624 q 829 584 793 624 q 865 489 865 544 q 829 394 865 433 q 729 354 793 354 l 324 354 l 324 272 l 729 272 q 829 232 793 272 q 865 136 865 192 q 829 40 865 79 q 729 0 793 0 l 699 0 z "},"Ě":{"ha":919,"x_min":56,"x_max":865,"o":"m 56 0 m 190 0 q 56 136 56 0 l 56 842 q 190 978 56 978 l 729 978 q 829 938 793 978 q 865 842 865 899 q 829 747 865 788 q 729 707 793 707 l 324 707 l 324 624 l 729 624 q 829 584 793 624 q 865 489 865 544 q 829 394 865 433 q 729 354 793 354 l 324 354 l 324 272 l 729 272 q 829 232 793 272 q 865 136 865 192 q 829 40 865 79 q 729 0 793 0 l 190 0 m 460 1182 l 590 1253 q 607 1259 599 1258 q 625 1260 615 1260 q 674 1238 653 1260 q 694 1188 694 1217 q 657 1126 694 1144 l 494 1040 q 457 1032 479 1032 q 424 1040 438 1032 l 261 1126 q 232 1153 240 1138 q 224 1188 224 1168 q 244 1238 224 1217 q 293 1260 265 1260 q 311 1259 303 1260 q 329 1253 319 1258 l 460 1182 z "},"ě":{"ha":919,"x_min":56,"x_max":865,"o":"m 56 0 m 190 0 q 56 136 56 0 l 56 842 q 190 978 56 978 l 729 978 q 829 938 793 978 q 865 842 865 899 q 829 747 865 788 q 729 707 793 707 l 324 707 l 324 624 l 729 624 q 829 584 793 624 q 865 489 865 544 q 829 394 865 433 q 729 354 793 354 l 324 354 l 324 272 l 729 272 q 829 232 793 272 q 865 136 865 192 q 829 40 865 79 q 729 0 793 0 l 190 0 m 460 1182 l 590 1253 q 607 1259 599 1258 q 625 1260 615 1260 q 674 1238 653 1260 q 694 1188 694 1217 q 657 1126 694 1144 l 494 1040 q 457 1032 479 1032 q 424 1040 438 1032 l 261 1126 q 232 1153 240 1138 q 224 1188 224 1168 q 244 1238 224 1217 q 293 1260 265 1260 q 311 1259 303 1260 q 329 1253 319 1258 l 460 1182 z "},"Ğ":{"ha":1021,"x_min":49,"x_max":967,"o":"m 49 1 m 967 135 q 928 35 967 68 q 793 1 889 1 l 351 1 q 125 80 201 1 q 49 317 49 158 l 49 663 q 125 899 49 821 q 351 978 201 978 l 804 978 q 926 944 886 978 q 967 840 967 911 q 804 704 967 704 l 358 704 q 329 695 340 704 q 318 667 318 686 l 318 317 q 358 276 318 276 l 699 276 l 699 467 q 738 567 699 533 q 835 600 778 600 q 927 567 888 600 q 967 467 967 533 l 967 135 m 676 1260 q 725 1238 704 1260 q 746 1188 746 1217 q 722 1122 746 1150 q 663 1073 699 1093 q 587 1042 628 1053 q 511 1032 546 1032 q 434 1042 475 1032 q 358 1073 393 1053 q 299 1122 322 1093 q 275 1188 275 1150 q 296 1238 275 1217 q 344 1260 317 1260 q 392 1246 376 1260 q 420 1215 407 1232 q 452 1183 433 1197 q 511 1169 471 1169 q 569 1183 550 1169 q 601 1215 588 1197 q 629 1246 614 1232 q 676 1260 644 1260 z "},"ğ":{"ha":1021,"x_min":49,"x_max":967,"o":"m 49 1 m 967 135 q 928 35 967 68 q 793 1 889 1 l 351 1 q 125 80 201 1 q 49 317 49 158 l 49 663 q 125 899 49 821 q 351 978 201 978 l 804 978 q 926 944 886 978 q 967 840 967 911 q 804 704 967 704 l 358 704 q 329 695 340 704 q 318 667 318 686 l 318 317 q 358 276 318 276 l 699 276 l 699 467 q 738 567 699 533 q 835 600 778 600 q 927 567 888 600 q 967 467 967 533 l 967 135 m 676 1260 q 725 1238 704 1260 q 746 1188 746 1217 q 722 1122 746 1150 q 663 1073 699 1093 q 587 1042 628 1053 q 511 1032 546 1032 q 434 1042 475 1032 q 358 1073 393 1053 q 299 1122 322 1093 q 275 1188 275 1150 q 296 1238 275 1217 q 344 1260 317 1260 q 392 1246 376 1260 q 420 1215 407 1232 q 452 1183 433 1197 q 511 1169 471 1169 q 569 1183 550 1169 q 601 1215 588 1197 q 629 1246 614 1232 q 676 1260 644 1260 z "},"Ġ":{"ha":1021,"x_min":49,"x_max":967,"o":"m 49 1 m 967 135 q 928 35 967 68 q 793 1 889 1 l 351 1 q 125 80 201 1 q 49 317 49 158 l 49 663 q 125 899 49 821 q 351 978 201 978 l 804 978 q 926 944 886 978 q 967 840 967 911 q 804 704 967 704 l 358 704 q 329 695 340 704 q 318 667 318 686 l 318 317 q 358 276 318 276 l 699 276 l 699 467 q 738 567 699 533 q 835 600 778 600 q 927 567 888 600 q 967 467 967 533 l 967 135 m 408 1146 q 438 1220 408 1190 q 510 1250 467 1250 q 583 1220 554 1250 q 613 1146 613 1190 q 583 1074 613 1103 q 510 1046 554 1046 q 438 1074 467 1046 q 408 1146 408 1103 z "},"ġ":{"ha":1021,"x_min":49,"x_max":967,"o":"m 49 1 m 967 135 q 928 35 967 68 q 793 1 889 1 l 351 1 q 125 80 201 1 q 49 317 49 158 l 49 663 q 125 899 49 821 q 351 978 201 978 l 804 978 q 926 944 886 978 q 967 840 967 911 q 804 704 967 704 l 358 704 q 329 695 340 704 q 318 667 318 686 l 318 317 q 358 276 318 276 l 699 276 l 699 467 q 738 567 699 533 q 835 600 778 600 q 927 567 888 600 q 967 467 967 533 l 967 135 m 408 1146 q 438 1220 408 1190 q 510 1250 467 1250 q 583 1220 554 1250 q 613 1146 613 1190 q 583 1074 613 1103 q 510 1046 554 1046 q 438 1074 467 1046 q 408 1146 408 1103 z "},"Ģ":{"ha":1021,"x_min":49,"x_max":967,"o":"m 49 0 m 967 135 q 928 35 967 68 q 793 1 889 1 l 351 1 q 125 80 201 1 q 49 317 49 158 l 49 663 q 125 899 49 821 q 351 978 201 978 l 804 978 q 926 944 886 978 q 967 840 967 911 q 804 704 967 704 l 358 704 q 329 695 340 704 q 318 667 318 686 l 318 317 q 358 276 318 276 l 699 276 l 699 467 q 738 567 699 533 q 835 600 778 600 q 927 567 888 600 q 967 467 967 533 l 967 135 m 576 -261 q 546 -310 567 -294 q 497 -325 525 -325 q 433 -303 460 -325 q 406 -246 406 -282 q 410 -219 406 -228 l 446 -86 q 525 -21 465 -21 q 592 -48 569 -21 q 614 -114 614 -75 q 611 -128 614 -119 l 576 -261 z "},"ģ":{"ha":1021,"x_min":49,"x_max":967,"o":"m 49 0 m 967 135 q 928 35 967 68 q 793 1 889 1 l 351 1 q 125 80 201 1 q 49 317 49 158 l 49 663 q 125 899 49 821 q 351 978 201 978 l 804 978 q 926 944 886 978 q 967 840 967 911 q 804 704 967 704 l 358 704 q 329 695 340 704 q 318 667 318 686 l 318 317 q 358 276 318 276 l 699 276 l 699 467 q 738 567 699 533 q 835 600 778 600 q 927 567 888 600 q 967 467 967 533 l 967 135 m 576 -261 q 546 -310 567 -294 q 497 -325 525 -325 q 433 -303 460 -325 q 406 -246 406 -282 q 410 -219 406 -228 l 446 -86 q 525 -21 465 -21 q 592 -48 569 -21 q 614 -114 614 -75 q 611 -128 614 -119 l 576 -261 z "},"Ħ":{"ha":1035,"x_min":0,"x_max":1035,"o":"m 978 778 q 1020 742 1006 767 q 1035 689 1035 718 q 1020 638 1035 661 q 978 604 1006 614 l 978 129 q 938 28 978 63 q 843 -6 897 -6 q 748 28 788 -6 q 708 129 708 63 l 708 215 l 325 215 l 325 129 q 285 28 325 63 q 190 -6 246 -6 q 96 28 136 -6 q 56 129 56 63 l 56 604 q 15 638 29 615 q 0 689 0 661 q 15 742 0 717 q 56 778 29 767 l 56 847 q 96 948 56 914 q 190 982 136 982 q 285 948 246 982 q 325 847 325 914 l 325 785 l 708 785 l 708 847 q 748 948 708 914 q 843 982 788 982 q 938 948 897 982 q 978 847 978 914 l 978 778 m 708 485 l 708 599 l 325 599 l 325 485 l 708 485 z "},"ħ":{"ha":1035,"x_min":0,"x_max":1035,"o":"m 0 0 m 978 778 q 1020 742 1006 767 q 1035 689 1035 718 q 1020 638 1035 661 q 978 604 1006 614 l 978 129 q 938 28 978 63 q 843 -6 897 -6 q 748 28 788 -6 q 708 129 708 63 l 708 215 l 325 215 l 325 129 q 285 28 325 63 q 190 -6 246 -6 q 96 28 136 -6 q 56 129 56 63 l 56 604 q 15 638 29 615 q 0 689 0 661 q 15 742 0 717 q 56 778 29 767 l 56 847 q 96 948 56 914 q 190 982 136 982 q 285 948 246 982 q 325 847 325 914 l 325 785 l 708 785 l 708 847 q 748 948 708 914 q 843 982 788 982 q 938 948 897 982 q 978 847 978 914 l 978 778 m 708 485 l 708 599 l 325 599 l 325 485 l 708 485 z "},"Ī":{"ha":381,"x_min":-89,"x_max":474,"o":"m 0 0 m 324 129 q 283 28 324 63 q 189 -6 243 -6 q 94 28 133 -6 q 54 129 54 63 l 54 849 q 94 947 54 913 q 189 982 133 982 q 283 947 243 982 q 324 849 324 913 l 324 129 m 3 1054 q -65 1081 -40 1054 q -89 1144 -89 1108 q -65 1211 -89 1182 q 3 1240 -40 1240 l 382 1240 q 449 1211 425 1240 q 474 1144 474 1182 q 449 1081 474 1108 q 382 1054 425 1054 l 3 1054 z "},"ī":{"ha":381,"x_min":-89,"x_max":474,"o":"m 0 0 m 324 129 q 283 28 324 63 q 189 -6 243 -6 q 94 28 133 -6 q 54 129 54 63 l 54 849 q 94 947 54 913 q 189 982 133 982 q 283 947 243 982 q 324 849 324 913 l 324 129 m 3 1054 q -65 1081 -40 1054 q -89 1144 -89 1108 q -65 1211 -89 1182 q 3 1240 -40 1240 l 382 1240 q 449 1211 425 1240 q 474 1144 474 1182 q 449 1081 474 1108 q 382 1054 425 1054 l 3 1054 z "},"Ĭ":{"ha":381,"x_min":-43,"x_max":428,"o":"m 0 0 m 324 129 q 283 28 324 63 q 189 -6 243 -6 q 94 28 133 -6 q 54 129 54 63 l 54 849 q 94 947 54 913 q 189 982 133 982 q 283 947 243 982 q 324 849 324 913 l 324 129 m 358 1260 q 407 1238 386 1260 q 428 1188 428 1217 q 404 1122 428 1150 q 345 1073 381 1093 q 269 1042 310 1053 q 193 1032 228 1032 q 116 1042 157 1032 q 40 1073 75 1053 q -19 1122 4 1093 q -43 1188 -43 1150 q -22 1238 -43 1217 q 26 1260 -1 1260 q 74 1246 58 1260 q 102 1215 89 1232 q 134 1183 115 1197 q 193 1169 153 1169 q 251 1183 232 1169 q 283 1215 269 1197 q 311 1246 296 1232 q 358 1260 326 1260 z "},"ĭ":{"ha":381,"x_min":-43,"x_max":428,"o":"m 0 0 m 324 129 q 283 28 324 63 q 189 -6 243 -6 q 94 28 133 -6 q 54 129 54 63 l 54 849 q 94 947 54 913 q 189 982 133 982 q 283 947 243 982 q 324 849 324 913 l 324 129 m 358 1260 q 407 1238 386 1260 q 428 1188 428 1217 q 404 1122 428 1150 q 345 1073 381 1093 q 269 1042 310 1053 q 193 1032 228 1032 q 116 1042 157 1032 q 40 1073 75 1053 q -19 1122 4 1093 q -43 1188 -43 1150 q -22 1238 -43 1217 q 26 1260 -1 1260 q 74 1246 58 1260 q 102 1215 89 1232 q 134 1183 115 1197 q 193 1169 153 1169 q 251 1183 232 1169 q 283 1215 269 1197 q 311 1246 296 1232 q 358 1260 326 1260 z "},"Į":{"ha":381,"x_min":7,"x_max":375,"o":"m 324 129 q 283 28 324 63 q 189 -6 243 -6 q 163 -17 172 -6 q 153 -49 153 -29 q 172 -83 153 -75 q 253 -92 190 -92 q 345 -126 315 -92 q 375 -210 375 -161 q 345 -290 375 -256 q 260 -325 315 -325 q 140 -310 189 -325 q 62 -268 92 -294 q 19 -206 32 -242 q 7 -131 7 -171 q 15 -74 7 -100 q 31 -20 22 -49 q 47 44 39 8 q 54 129 54 79 l 54 849 q 94 947 54 913 q 189 982 133 982 q 283 947 243 982 q 324 849 324 913 l 324 129 z "},"į":{"ha":381,"x_min":7,"x_max":375,"o":"m 7 0 m 324 129 q 283 28 324 63 q 189 -6 243 -6 q 163 -17 172 -6 q 153 -49 153 -29 q 172 -83 153 -75 q 253 -92 190 -92 q 345 -126 315 -92 q 375 -210 375 -161 q 345 -290 375 -256 q 260 -325 315 -325 q 140 -310 189 -325 q 62 -268 92 -294 q 19 -206 32 -242 q 7 -131 7 -171 q 15 -74 7 -100 q 31 -20 22 -49 q 47 44 39 8 q 54 129 54 79 l 54 849 q 94 947 54 913 q 189 982 133 982 q 283 947 243 982 q 324 849 324 913 l 324 129 z "},"İ":{"ha":381,"x_min":54,"x_max":324,"o":"m 54 0 m 324 129 q 283 28 324 63 q 189 -6 243 -6 q 94 28 133 -6 q 54 129 54 63 l 54 849 q 94 947 54 913 q 189 982 133 982 q 283 947 243 982 q 324 849 324 913 l 324 129 m 88 1146 q 117 1220 88 1190 q 189 1250 146 1250 q 263 1220 233 1250 q 292 1146 292 1190 q 263 1074 292 1103 q 189 1046 233 1046 q 117 1074 146 1046 q 88 1146 88 1103 z "},"ı":{"ha":381,"x_min":54,"x_max":324,"o":"m 54 0 m 324 129 q 283 28 324 63 q 189 -6 243 -6 q 94 28 133 -6 q 54 129 54 63 l 54 849 q 94 947 54 913 q 189 982 133 982 q 283 947 243 982 q 324 849 324 913 l 324 129 z "},"Ĳ":{"ha":1085,"x_min":54,"x_max":1036,"o":"m 54 0 m 324 129 q 283 28 324 63 q 189 -6 243 -6 q 94 28 133 -6 q 54 129 54 63 l 54 849 q 94 947 54 913 q 189 982 133 982 q 283 947 243 982 q 324 849 324 913 l 324 129 m 1036 488 q 1008 286 1036 376 q 925 132 981 196 q 786 34 869 68 q 592 0 703 0 l 528 0 q 428 40 464 0 q 392 136 392 81 q 428 231 392 192 q 528 271 464 271 l 568 271 q 654 281 617 271 q 717 313 692 290 q 756 375 743 336 q 769 471 769 414 l 769 849 q 809 947 769 913 q 903 982 849 982 q 997 947 957 982 q 1036 849 1036 913 l 1036 488 z "},"ĳ":{"ha":1085,"x_min":54,"x_max":1036,"o":"m 54 0 m 324 129 q 283 28 324 63 q 189 -6 243 -6 q 94 28 133 -6 q 54 129 54 63 l 54 849 q 94 947 54 913 q 189 982 133 982 q 283 947 243 982 q 324 849 324 913 l 324 129 m 1036 488 q 1008 286 1036 376 q 925 132 981 196 q 786 34 869 68 q 592 0 703 0 l 528 0 q 428 40 464 0 q 392 136 392 81 q 428 231 392 192 q 528 271 464 271 l 568 271 q 654 281 617 271 q 717 313 692 290 q 756 375 743 336 q 769 471 769 414 l 769 849 q 809 947 769 913 q 903 982 849 982 q 997 947 957 982 q 1036 849 1036 913 l 1036 488 z "},"Ķ":{"ha":826,"x_min":56,"x_max":793,"o":"m 56 0 m 325 129 q 285 28 325 63 q 190 -6 244 -6 q 95 28 135 -6 q 56 129 56 63 l 56 849 q 95 947 56 913 q 190 982 135 982 q 285 947 244 982 q 325 849 325 913 l 325 618 l 546 931 q 588 969 564 957 q 650 982 613 982 q 753 944 717 982 q 790 847 790 906 q 760 763 790 797 l 533 507 l 761 215 q 793 131 793 175 q 754 31 793 68 q 653 -6 715 -6 q 595 7 622 -6 q 549 47 568 19 l 325 360 l 325 129 m 464 -261 q 433 -310 454 -294 q 385 -325 413 -325 q 320 -303 347 -325 q 293 -246 293 -282 q 297 -219 293 -228 l 333 -86 q 413 -21 353 -21 q 479 -48 457 -21 q 501 -114 501 -75 q 499 -128 501 -119 l 464 -261 z "},"ķ":{"ha":826,"x_min":56,"x_max":793,"o":"m 56 0 m 325 129 q 285 28 325 63 q 190 -6 244 -6 q 95 28 135 -6 q 56 129 56 63 l 56 849 q 95 947 56 913 q 190 982 135 982 q 285 947 244 982 q 325 849 325 913 l 325 618 l 546 931 q 588 969 564 957 q 650 982 613 982 q 753 944 717 982 q 790 847 790 906 q 760 763 790 797 l 533 507 l 761 215 q 793 131 793 175 q 754 31 793 68 q 653 -6 715 -6 q 595 7 622 -6 q 549 47 568 19 l 325 360 l 325 129 m 464 -261 q 433 -310 454 -294 q 385 -325 413 -325 q 320 -303 347 -325 q 293 -246 293 -282 q 297 -219 293 -228 l 333 -86 q 413 -21 353 -21 q 479 -48 457 -21 q 501 -114 501 -75 q 499 -128 501 -119 l 464 -261 z "},"Ĺ":{"ha":743,"x_min":56,"x_max":726,"o":"m 56 0 m 190 0 q 56 136 56 0 l 56 847 q 96 948 56 914 q 190 982 136 982 q 283 947 243 982 q 324 847 324 913 l 324 272 l 599 272 q 694 232 661 272 q 726 136 726 192 q 694 40 726 79 q 599 0 661 0 l 190 0 m 322 1054 q 274 1032 300 1032 q 225 1053 246 1032 q 204 1103 204 1075 q 224 1149 204 1129 l 367 1296 q 411 1317 385 1317 q 460 1296 439 1317 q 482 1247 482 1275 q 478 1224 482 1236 q 463 1201 474 1213 l 322 1054 z "},"ĺ":{"ha":743,"x_min":56,"x_max":726,"o":"m 56 0 m 190 0 q 56 136 56 0 l 56 847 q 96 948 56 914 q 190 982 136 982 q 283 947 243 982 q 324 847 324 913 l 324 272 l 599 272 q 694 232 661 272 q 726 136 726 192 q 694 40 726 79 q 599 0 661 0 l 190 0 m 322 1054 q 274 1032 300 1032 q 225 1053 246 1032 q 204 1103 204 1075 q 224 1149 204 1129 l 367 1296 q 411 1317 385 1317 q 460 1296 439 1317 q 482 1247 482 1275 q 478 1224 482 1236 q 463 1201 474 1213 l 322 1054 z "},"Ļ":{"ha":743,"x_min":56,"x_max":726,"o":"m 56 0 m 190 0 q 56 136 56 0 l 56 847 q 96 948 56 914 q 190 982 136 982 q 283 947 243 982 q 324 847 324 913 l 324 272 l 599 272 q 694 232 661 272 q 726 136 726 192 q 694 40 726 79 q 599 0 661 0 l 190 0 m 410 -261 q 379 -310 400 -294 q 331 -325 358 -325 q 266 -303 293 -325 q 239 -246 239 -282 q 243 -219 239 -228 l 279 -86 q 358 -21 299 -21 q 425 -48 403 -21 q 447 -114 447 -75 q 444 -128 447 -119 l 410 -261 z "},"ļ":{"ha":743,"x_min":56,"x_max":726,"o":"m 56 0 m 190 0 q 56 136 56 0 l 56 847 q 96 948 56 914 q 190 982 136 982 q 283 947 243 982 q 324 847 324 913 l 324 272 l 599 272 q 694 232 661 272 q 726 136 726 192 q 694 40 726 79 q 599 0 661 0 l 190 0 m 410 -261 q 379 -310 400 -294 q 331 -325 358 -325 q 266 -303 293 -325 q 239 -246 239 -282 q 243 -219 239 -228 l 279 -86 q 358 -21 299 -21 q 425 -48 403 -21 q 447 -114 447 -75 q 444 -128 447 -119 l 410 -261 z "},"Ľ":{"ha":743,"x_min":56,"x_max":726,"o":"m 56 0 m 190 0 q 56 136 56 0 l 56 847 q 96 948 56 914 q 190 982 136 982 q 283 947 243 982 q 324 847 324 913 l 324 272 l 599 272 q 694 232 661 272 q 726 136 726 192 q 694 40 726 79 q 599 0 661 0 l 190 0 m 546 742 q 515 693 536 708 q 467 678 494 678 q 402 699 429 678 q 375 757 375 721 q 379 783 375 775 l 415 917 q 494 982 435 982 q 561 955 539 982 q 583 889 583 928 q 581 875 583 883 l 546 742 z "},"ľ":{"ha":743,"x_min":56,"x_max":726,"o":"m 56 0 m 190 0 q 56 136 56 0 l 56 847 q 96 948 56 914 q 190 982 136 982 q 283 947 243 982 q 324 847 324 913 l 324 272 l 599 272 q 694 232 661 272 q 726 136 726 192 q 694 40 726 79 q 599 0 661 0 l 190 0 m 546 742 q 515 693 536 708 q 467 678 494 678 q 402 699 429 678 q 375 757 375 721 q 379 783 375 775 l 415 917 q 494 982 435 982 q 561 955 539 982 q 583 889 583 928 q 581 875 583 883 l 546 742 z "},"Ŀ":{"ha":743,"x_min":56,"x_max":726,"o":"m 56 0 m 190 0 q 56 136 56 0 l 56 847 q 96 948 56 914 q 190 982 136 982 q 283 947 243 982 q 324 847 324 913 l 324 272 l 599 272 q 694 232 661 272 q 726 136 726 192 q 694 40 726 79 q 599 0 661 0 l 190 0 m 374 467 q 403 541 374 511 q 475 571 432 571 q 549 541 519 571 q 578 467 578 511 q 549 395 578 424 q 475 367 519 367 q 403 395 432 367 q 374 467 374 424 z "},"ŀ":{"ha":743,"x_min":56,"x_max":726,"o":"m 56 0 m 190 0 q 56 136 56 0 l 56 847 q 96 948 56 914 q 190 982 136 982 q 283 947 243 982 q 324 847 324 913 l 324 272 l 599 272 q 694 232 661 272 q 726 136 726 192 q 694 40 726 79 q 599 0 661 0 l 190 0 m 374 467 q 403 541 374 511 q 475 571 432 571 q 549 541 519 571 q 578 467 578 511 q 549 395 578 424 q 475 367 519 367 q 403 395 432 367 q 374 467 374 424 z "},"Ł":{"ha":743,"x_min":56,"x_max":726,"o":"m 190 0 q 56 136 56 0 l 56 847 q 96 948 56 914 q 190 982 136 982 q 283 947 243 982 q 324 847 324 913 l 324 599 l 442 646 q 475 653 458 653 q 533 628 507 653 q 558 564 558 603 q 545 519 558 540 q 504 488 532 499 l 324 415 l 324 272 l 599 272 q 694 232 661 272 q 726 136 726 192 q 694 40 726 79 q 599 0 661 0 l 190 0 z "},"ł":{"ha":743,"x_min":56,"x_max":726,"o":"m 56 0 m 190 0 q 56 136 56 0 l 56 847 q 96 948 56 914 q 190 982 136 982 q 283 947 243 982 q 324 847 324 913 l 324 599 l 442 646 q 475 653 458 653 q 533 628 507 653 q 558 564 558 603 q 545 519 558 540 q 504 488 532 499 l 324 415 l 324 272 l 599 272 q 694 232 661 272 q 726 136 726 192 q 694 40 726 79 q 599 0 661 0 l 190 0 z "},"Ń":{"ha":1049,"x_min":56,"x_max":992,"o":"m 56 0 m 360 704 q 324 668 324 704 l 324 136 q 292 27 324 61 q 190 -7 261 -7 q 56 136 56 -7 l 56 892 q 139 978 56 978 l 906 978 q 992 892 992 978 l 992 136 q 857 -6 992 -6 q 722 136 722 -6 l 722 668 q 688 704 722 704 l 360 704 m 572 1054 q 524 1032 550 1032 q 475 1053 496 1032 q 454 1103 454 1075 q 474 1149 454 1129 l 617 1296 q 661 1317 635 1317 q 710 1296 689 1317 q 732 1247 732 1275 q 728 1224 732 1236 q 713 1201 724 1213 l 572 1054 z "},"ń":{"ha":1049,"x_min":56,"x_max":992,"o":"m 56 0 m 360 704 q 324 668 324 704 l 324 136 q 292 27 324 61 q 190 -7 261 -7 q 56 136 56 -7 l 56 892 q 139 978 56 978 l 906 978 q 992 892 992 978 l 992 136 q 857 -6 992 -6 q 722 136 722 -6 l 722 668 q 688 704 722 704 l 360 704 m 572 1054 q 524 1032 550 1032 q 475 1053 496 1032 q 454 1103 454 1075 q 474 1149 454 1129 l 617 1296 q 661 1317 635 1317 q 710 1296 689 1317 q 732 1247 732 1275 q 728 1224 732 1236 q 713 1201 724 1213 l 572 1054 z "},"Ņ":{"ha":1049,"x_min":56,"x_max":992,"o":"m 56 0 m 360 704 q 324 668 324 704 l 324 136 q 292 27 324 61 q 190 -7 261 -7 q 56 136 56 -7 l 56 892 q 139 978 56 978 l 906 978 q 992 892 992 978 l 992 136 q 857 -6 992 -6 q 722 136 722 -6 l 722 668 q 688 704 722 704 l 360 704 m 590 -261 q 560 -310 581 -294 q 511 -325 539 -325 q 447 -303 474 -325 q 419 -246 419 -282 q 424 -219 419 -228 l 460 -86 q 539 -21 479 -21 q 606 -48 583 -21 q 628 -114 628 -75 q 625 -128 628 -119 l 590 -261 z "},"ņ":{"ha":1049,"x_min":56,"x_max":992,"o":"m 56 0 m 360 704 q 324 668 324 704 l 324 136 q 292 27 324 61 q 190 -7 261 -7 q 56 136 56 -7 l 56 892 q 139 978 56 978 l 906 978 q 992 892 992 978 l 992 136 q 857 -6 992 -6 q 722 136 722 -6 l 722 668 q 688 704 722 704 l 360 704 m 590 -261 q 560 -310 581 -294 q 511 -325 539 -325 q 447 -303 474 -325 q 419 -246 419 -282 q 424 -219 419 -228 l 460 -86 q 539 -21 479 -21 q 606 -48 583 -21 q 628 -114 628 -75 q 625 -128 628 -119 l 590 -261 z "},"Ň":{"ha":1049,"x_min":56,"x_max":992,"o":"m 56 0 m 360 704 q 324 668 324 704 l 324 136 q 292 27 324 61 q 190 -7 261 -7 q 56 136 56 -7 l 56 892 q 139 978 56 978 l 906 978 q 992 892 992 978 l 992 136 q 857 -6 992 -6 q 722 136 722 -6 l 722 668 q 688 704 722 704 l 360 704 m 525 1182 l 656 1253 q 672 1259 664 1258 q 690 1260 681 1260 q 739 1238 718 1260 q 760 1188 760 1217 q 722 1126 760 1144 l 560 1040 q 522 1032 544 1032 q 489 1040 503 1032 l 326 1126 q 297 1153 306 1138 q 289 1188 289 1168 q 310 1238 289 1217 q 358 1260 331 1260 q 376 1259 368 1260 q 394 1253 385 1258 l 525 1182 z "},"ň":{"ha":1049,"x_min":56,"x_max":992,"o":"m 56 0 m 360 704 q 324 668 324 704 l 324 136 q 292 27 324 61 q 190 -7 261 -7 q 56 136 56 -7 l 56 892 q 139 978 56 978 l 906 978 q 992 892 992 978 l 992 136 q 857 -6 992 -6 q 722 136 722 -6 l 722 668 q 688 704 722 704 l 360 704 m 525 1182 l 656 1253 q 672 1259 664 1258 q 690 1260 681 1260 q 739 1238 718 1260 q 760 1188 760 1217 q 722 1126 760 1144 l 560 1040 q 522 1032 544 1032 q 489 1040 503 1032 l 326 1126 q 297 1153 306 1138 q 289 1188 289 1168 q 310 1238 289 1217 q 358 1260 331 1260 q 376 1259 368 1260 q 394 1253 385 1258 l 525 1182 z "},"Ŋ":{"ha":1049,"x_min":56,"x_max":992,"o":"m 992 163 q 964 -39 992 51 q 881 -193 936 -129 q 742 -291 825 -257 q 547 -325 658 -325 l 483 -325 q 383 -285 419 -325 q 347 -189 347 -244 q 383 -94 347 -133 q 483 -54 419 -54 l 524 -54 q 609 -44 572 -54 q 671 -12 646 -35 q 709 50 696 11 q 722 146 722 89 l 722 668 q 688 704 722 704 l 360 704 q 324 668 324 704 l 324 136 q 292 27 324 61 q 190 -7 261 -7 q 56 136 56 -7 l 56 892 q 139 978 56 978 l 906 978 q 992 892 992 978 l 992 163 z "},"ŋ":{"ha":1049,"x_min":56,"x_max":992,"o":"m 56 0 m 992 163 q 964 -39 992 51 q 881 -193 936 -129 q 742 -291 825 -257 q 547 -325 658 -325 l 483 -325 q 383 -285 419 -325 q 347 -189 347 -244 q 383 -94 347 -133 q 483 -54 419 -54 l 524 -54 q 609 -44 572 -54 q 671 -12 646 -35 q 709 50 696 11 q 722 146 722 89 l 722 668 q 688 704 722 704 l 360 704 q 324 668 324 704 l 324 136 q 292 27 324 61 q 190 -7 261 -7 q 56 136 56 -7 l 56 892 q 139 978 56 978 l 906 978 q 992 892 992 978 l 992 163 z "},"Ō":{"ha":1038,"x_min":49,"x_max":986,"o":"m 49 0 m 986 315 q 910 78 986 157 q 683 0 833 0 l 351 0 q 125 78 201 0 q 49 315 49 157 l 49 663 q 125 899 49 821 q 351 978 201 978 l 683 978 q 910 899 833 978 q 986 663 986 821 l 986 315 m 360 704 q 329 695 340 704 q 318 667 318 686 l 318 315 q 360 275 318 275 l 675 275 q 715 315 715 275 l 715 663 q 675 704 715 704 l 360 704 m 329 1054 q 262 1081 286 1054 q 238 1144 238 1108 q 262 1211 238 1182 q 329 1240 286 1240 l 708 1240 q 776 1211 751 1240 q 800 1144 800 1182 q 776 1081 800 1108 q 708 1054 751 1054 l 329 1054 z "},"ō":{"ha":1038,"x_min":49,"x_max":986,"o":"m 49 0 m 986 315 q 910 78 986 157 q 683 0 833 0 l 351 0 q 125 78 201 0 q 49 315 49 157 l 49 663 q 125 899 49 821 q 351 978 201 978 l 683 978 q 910 899 833 978 q 986 663 986 821 l 986 315 m 360 704 q 329 695 340 704 q 318 667 318 686 l 318 315 q 360 275 318 275 l 675 275 q 715 315 715 275 l 715 663 q 675 704 715 704 l 360 704 m 329 1054 q 262 1081 286 1054 q 238 1144 238 1108 q 262 1211 238 1182 q 329 1240 286 1240 l 708 1240 q 776 1211 751 1240 q 800 1144 800 1182 q 776 1081 800 1108 q 708 1054 751 1054 l 329 1054 z "},"Ŏ":{"ha":1038,"x_min":49,"x_max":986,"o":"m 49 0 m 986 315 q 910 78 986 157 q 683 0 833 0 l 351 0 q 125 78 201 0 q 49 315 49 157 l 49 663 q 125 899 49 821 q 351 978 201 978 l 683 978 q 910 899 833 978 q 986 663 986 821 l 986 315 m 360 704 q 329 695 340 704 q 318 667 318 686 l 318 315 q 360 275 318 275 l 675 275 q 715 315 715 275 l 715 663 q 675 704 715 704 l 360 704 m 685 1260 q 733 1238 713 1260 q 754 1188 754 1217 q 731 1122 754 1150 q 672 1073 707 1093 q 595 1042 636 1053 q 519 1032 554 1032 q 442 1042 483 1032 q 366 1073 401 1053 q 307 1122 331 1093 q 283 1188 283 1150 q 304 1238 283 1217 q 353 1260 325 1260 q 400 1246 385 1260 q 428 1215 415 1232 q 460 1183 442 1197 q 519 1169 479 1169 q 577 1183 558 1169 q 609 1215 596 1197 q 638 1246 622 1232 q 685 1260 653 1260 z "},"ŏ":{"ha":1038,"x_min":49,"x_max":986,"o":"m 49 0 m 986 315 q 910 78 986 157 q 683 0 833 0 l 351 0 q 125 78 201 0 q 49 315 49 157 l 49 663 q 125 899 49 821 q 351 978 201 978 l 683 978 q 910 899 833 978 q 986 663 986 821 l 986 315 m 360 704 q 329 695 340 704 q 318 667 318 686 l 318 315 q 360 275 318 275 l 675 275 q 715 315 715 275 l 715 663 q 675 704 715 704 l 360 704 m 685 1260 q 733 1238 713 1260 q 754 1188 754 1217 q 731 1122 754 1150 q 672 1073 707 1093 q 595 1042 636 1053 q 519 1032 554 1032 q 442 1042 483 1032 q 366 1073 401 1053 q 307 1122 331 1093 q 283 1188 283 1150 q 304 1238 283 1217 q 353 1260 325 1260 q 400 1246 385 1260 q 428 1215 415 1232 q 460 1183 442 1197 q 519 1169 479 1169 q 577 1183 558 1169 q 609 1215 596 1197 q 638 1246 622 1232 q 685 1260 653 1260 z "},"Ő":{"ha":1038,"x_min":49,"x_max":986,"o":"m 49 0 m 986 315 q 910 78 986 157 q 683 0 833 0 l 351 0 q 125 78 201 0 q 49 315 49 157 l 49 663 q 125 899 49 821 q 351 978 201 978 l 683 978 q 910 899 833 978 q 986 663 986 821 l 986 315 m 360 704 q 329 695 340 704 q 318 667 318 686 l 318 315 q 360 275 318 275 l 675 275 q 715 315 715 275 l 715 663 q 675 704 715 704 l 360 704 m 706 1054 q 657 1032 683 1032 q 608 1053 629 1032 q 588 1103 588 1075 q 607 1149 588 1125 l 750 1296 q 794 1317 768 1317 q 844 1296 822 1317 q 865 1247 865 1275 q 861 1224 865 1236 q 846 1201 857 1213 l 706 1054 m 428 1054 q 379 1032 406 1032 q 331 1053 351 1032 q 310 1103 310 1075 q 329 1149 310 1129 l 472 1296 q 517 1317 490 1317 q 566 1296 544 1317 q 588 1247 588 1275 q 583 1224 588 1236 q 568 1201 579 1213 l 428 1054 z "},"ő":{"ha":1038,"x_min":49,"x_max":986,"o":"m 49 0 m 986 315 q 910 78 986 157 q 683 0 833 0 l 351 0 q 125 78 201 0 q 49 315 49 157 l 49 663 q 125 899 49 821 q 351 978 201 978 l 683 978 q 910 899 833 978 q 986 663 986 821 l 986 315 m 360 704 q 329 695 340 704 q 318 667 318 686 l 318 315 q 360 275 318 275 l 675 275 q 715 315 715 275 l 715 663 q 675 704 715 704 l 360 704 m 706 1054 q 657 1032 683 1032 q 608 1053 629 1032 q 588 1103 588 1075 q 607 1149 588 1125 l 750 1296 q 794 1317 768 1317 q 844 1296 822 1317 q 865 1247 865 1275 q 861 1224 865 1236 q 846 1201 857 1213 l 706 1054 m 428 1054 q 379 1032 406 1032 q 331 1053 351 1032 q 310 1103 310 1075 q 329 1149 310 1129 l 472 1296 q 517 1317 490 1317 q 566 1296 544 1317 q 588 1247 588 1275 q 583 1224 588 1236 q 568 1201 579 1213 l 428 1054 z "},"Œ":{"ha":1599,"x_min":49,"x_max":1544,"o":"m 351 1 q 125 80 201 1 q 49 317 49 158 l 49 663 q 125 899 49 821 q 351 978 201 978 l 1410 978 q 1509 938 1474 978 q 1544 842 1544 899 q 1509 747 1544 788 q 1410 707 1474 707 l 1004 707 l 1004 624 l 1410 624 q 1509 584 1474 624 q 1544 489 1544 544 q 1509 394 1544 433 q 1410 354 1474 354 l 1004 354 l 1004 272 l 1410 272 q 1509 232 1474 272 q 1544 136 1544 192 q 1509 40 1544 79 q 1410 0 1474 0 l 351 1 m 360 704 q 319 667 321 704 l 319 317 q 360 276 319 276 l 675 276 q 715 317 715 276 l 715 663 q 675 704 715 704 l 360 704 z "},"œ":{"ha":1599,"x_min":49,"x_max":1544,"o":"m 49 0 m 351 1 q 125 80 201 1 q 49 317 49 158 l 49 663 q 125 899 49 821 q 351 978 201 978 l 1410 978 q 1509 938 1474 978 q 1544 842 1544 899 q 1509 747 1544 788 q 1410 707 1474 707 l 1004 707 l 1004 624 l 1410 624 q 1509 584 1474 624 q 1544 489 1544 544 q 1509 394 1544 433 q 1410 354 1474 354 l 1004 354 l 1004 272 l 1410 272 q 1509 232 1474 272 q 1544 136 1544 192 q 1509 40 1544 79 q 1410 0 1474 0 l 351 1 m 360 704 q 319 667 321 704 l 319 317 q 360 276 319 276 l 675 276 q 715 317 715 276 l 715 663 q 675 704 715 704 l 360 704 z "},"Ŕ":{"ha":857,"x_min":35,"x_max":819,"o":"m 35 0 m 819 665 q 532 354 819 360 l 504 354 l 619 244 q 660 190 647 218 q 672 136 672 161 q 664 88 672 113 q 639 42 656 63 q 599 8 622 21 q 546 -6 575 -6 q 485 6 517 -6 q 426 46 454 18 l 103 364 q 74 392 86 379 q 53 420 61 406 q 42 451 46 435 q 38 492 38 468 q 71 588 38 551 q 175 624 104 624 l 531 624 q 583 665 583 624 q 531 707 583 707 l 167 707 q 69 741 103 707 q 35 846 35 775 q 165 978 35 978 l 515 978 q 819 665 819 978 m 476 1054 q 428 1032 454 1032 q 379 1053 400 1032 q 358 1103 358 1075 q 378 1149 358 1129 l 521 1296 q 565 1317 539 1317 q 615 1296 593 1317 q 636 1247 636 1275 q 632 1224 636 1236 q 617 1201 628 1213 l 476 1054 z "},"ŕ":{"ha":857,"x_min":35,"x_max":819,"o":"m 35 0 m 819 665 q 532 354 819 360 l 504 354 l 619 244 q 660 190 647 218 q 672 136 672 161 q 664 88 672 113 q 639 42 656 63 q 599 8 622 21 q 546 -6 575 -6 q 485 6 517 -6 q 426 46 454 18 l 103 364 q 74 392 86 379 q 53 420 61 406 q 42 451 46 435 q 38 492 38 468 q 71 588 38 551 q 175 624 104 624 l 531 624 q 583 665 583 624 q 531 707 583 707 l 167 707 q 69 741 103 707 q 35 846 35 775 q 165 978 35 978 l 515 978 q 819 665 819 978 m 476 1054 q 428 1032 454 1032 q 379 1053 400 1032 q 358 1103 358 1075 q 378 1149 358 1129 l 521 1296 q 565 1317 539 1317 q 615 1296 593 1317 q 636 1247 636 1275 q 632 1224 636 1236 q 617 1201 628 1213 l 476 1054 z "},"Ŗ":{"ha":857,"x_min":35,"x_max":819,"o":"m 35 0 m 819 665 q 532 354 819 360 l 504 354 l 619 244 q 660 190 647 218 q 672 136 672 161 q 664 88 672 113 q 639 42 656 63 q 599 8 622 21 q 546 -6 575 -6 q 485 6 517 -6 q 426 46 454 18 l 103 364 q 74 392 86 379 q 53 420 61 406 q 42 451 46 435 q 38 492 38 468 q 71 588 38 551 q 175 624 104 624 l 531 624 q 583 665 583 624 q 531 707 583 707 l 167 707 q 69 741 103 707 q 35 846 35 775 q 165 978 35 978 l 515 978 q 819 665 819 978 m 397 -261 q 367 -310 388 -294 q 318 -325 346 -325 q 253 -303 281 -325 q 226 -246 226 -282 q 231 -219 226 -228 l 267 -86 q 346 -21 286 -21 q 413 -48 390 -21 q 435 -114 435 -75 q 432 -128 435 -119 l 397 -261 z "},"ŗ":{"ha":857,"x_min":35,"x_max":819,"o":"m 35 0 m 819 665 q 532 354 819 360 l 504 354 l 619 244 q 660 190 647 218 q 672 136 672 161 q 664 88 672 113 q 639 42 656 63 q 599 8 622 21 q 546 -6 575 -6 q 485 6 517 -6 q 426 46 454 18 l 103 364 q 74 392 86 379 q 53 420 61 406 q 42 451 46 435 q 38 492 38 468 q 71 588 38 551 q 175 624 104 624 l 531 624 q 583 665 583 624 q 531 707 583 707 l 167 707 q 69 741 103 707 q 35 846 35 775 q 165 978 35 978 l 515 978 q 819 665 819 978 m 397 -261 q 367 -310 388 -294 q 318 -325 346 -325 q 253 -303 281 -325 q 226 -246 226 -282 q 231 -219 226 -228 l 267 -86 q 346 -21 286 -21 q 413 -48 390 -21 q 435 -114 435 -75 q 432 -128 435 -119 l 397 -261 z "},"Ř":{"ha":857,"x_min":35,"x_max":819,"o":"m 35 0 m 819 665 q 532 354 819 360 l 504 354 l 619 244 q 660 190 647 218 q 672 136 672 161 q 664 88 672 113 q 639 42 656 63 q 599 8 622 21 q 546 -6 575 -6 q 485 6 517 -6 q 426 46 454 18 l 103 364 q 74 392 86 379 q 53 420 61 406 q 42 451 46 435 q 38 492 38 468 q 71 588 38 551 q 175 624 104 624 l 531 624 q 583 665 583 624 q 531 707 583 707 l 167 707 q 69 741 103 707 q 35 846 35 775 q 165 978 35 978 l 515 978 q 819 665 819 978 m 429 1182 l 560 1253 q 576 1259 568 1258 q 594 1260 585 1260 q 643 1238 622 1260 q 664 1188 664 1217 q 626 1126 664 1144 l 464 1040 q 426 1032 449 1032 q 393 1040 407 1032 l 231 1126 q 201 1153 210 1138 q 193 1188 193 1168 q 214 1238 193 1217 q 263 1260 235 1260 q 281 1259 272 1260 q 299 1253 289 1258 l 429 1182 z "},"ř":{"ha":857,"x_min":35,"x_max":819,"o":"m 35 0 m 819 665 q 532 354 819 360 l 504 354 l 619 244 q 660 190 647 218 q 672 136 672 161 q 664 88 672 113 q 639 42 656 63 q 599 8 622 21 q 546 -6 575 -6 q 485 6 517 -6 q 426 46 454 18 l 103 364 q 74 392 86 379 q 53 420 61 406 q 42 451 46 435 q 38 492 38 468 q 71 588 38 551 q 175 624 104 624 l 531 624 q 583 665 583 624 q 531 707 583 707 l 167 707 q 69 741 103 707 q 35 846 35 775 q 165 978 35 978 l 515 978 q 819 665 819 978 m 429 1182 l 560 1253 q 576 1259 568 1258 q 594 1260 585 1260 q 643 1238 622 1260 q 664 1188 664 1217 q 626 1126 664 1144 l 464 1040 q 426 1032 449 1032 q 393 1040 407 1032 l 231 1126 q 201 1153 210 1138 q 193 1188 193 1168 q 214 1238 193 1217 q 263 1260 235 1260 q 281 1259 272 1260 q 299 1253 289 1258 l 429 1182 z "},"Ś":{"ha":793,"x_min":40,"x_max":756,"o":"m 40 0 m 756 311 q 451 0 756 0 l 183 0 q 125 12 150 0 q 83 42 100 24 q 58 85 67 61 q 50 136 50 110 q 58 185 50 161 q 84 228 67 210 q 127 259 101 247 q 186 271 153 271 l 467 271 q 508 287 494 271 q 521 321 521 303 q 508 357 521 340 q 467 374 494 374 l 328 374 q 113 443 185 374 q 40 664 40 513 q 347 978 40 978 l 564 978 q 625 966 599 978 q 669 935 651 954 q 697 892 688 917 q 706 843 706 868 q 697 793 706 818 q 669 749 688 768 q 624 717 651 729 q 563 706 597 706 l 329 706 q 289 690 301 706 q 276 654 276 674 q 289 620 276 636 q 329 604 301 604 l 468 604 q 685 533 615 604 q 756 311 756 463 m 472 1054 q 424 1032 450 1032 q 375 1053 396 1032 q 354 1103 354 1075 q 374 1149 354 1129 l 517 1296 q 561 1317 535 1317 q 610 1296 589 1317 q 632 1247 632 1275 q 628 1224 632 1236 q 613 1201 624 1213 l 472 1054 z "},"ś":{"ha":793,"x_min":40,"x_max":756,"o":"m 40 0 m 756 311 q 451 0 756 0 l 183 0 q 125 12 150 0 q 83 42 100 24 q 58 85 67 61 q 50 136 50 110 q 58 185 50 161 q 84 228 67 210 q 127 259 101 247 q 186 271 153 271 l 467 271 q 508 287 494 271 q 521 321 521 303 q 508 357 521 340 q 467 374 494 374 l 328 374 q 113 443 185 374 q 40 664 40 513 q 347 978 40 978 l 564 978 q 625 966 599 978 q 669 935 651 954 q 697 892 688 917 q 706 843 706 868 q 697 793 706 818 q 669 749 688 768 q 624 717 651 729 q 563 706 597 706 l 329 706 q 289 690 301 706 q 276 654 276 674 q 289 620 276 636 q 329 604 301 604 l 468 604 q 685 533 615 604 q 756 311 756 463 m 472 1054 q 424 1032 450 1032 q 375 1053 396 1032 q 354 1103 354 1075 q 374 1149 354 1129 l 517 1296 q 561 1317 535 1317 q 610 1296 589 1317 q 632 1247 632 1275 q 628 1224 632 1236 q 613 1201 624 1213 l 472 1054 z "},"Ş":{"ha":793,"x_min":40,"x_max":756,"o":"m 40 0 m 756 311 q 451 0 756 0 l 183 0 q 125 12 150 0 q 83 42 100 24 q 58 85 67 61 q 50 136 50 110 q 58 185 50 161 q 84 228 67 210 q 127 259 101 247 q 186 271 153 271 l 467 271 q 508 287 494 271 q 521 321 521 303 q 508 357 521 340 q 467 374 494 374 l 328 374 q 113 443 185 374 q 40 664 40 513 q 347 978 40 978 l 564 978 q 625 966 599 978 q 669 935 651 954 q 697 892 688 917 q 706 843 706 868 q 697 793 706 818 q 669 749 688 768 q 624 717 651 729 q 563 706 597 706 l 329 706 q 289 690 301 706 q 276 654 276 674 q 289 620 276 636 q 329 604 301 604 l 468 604 q 685 533 615 604 q 756 311 756 463 m 407 -261 q 376 -310 397 -294 q 328 -325 356 -325 q 263 -303 290 -325 q 236 -246 236 -282 q 240 -219 236 -228 l 276 -86 q 356 -21 296 -21 q 422 -48 400 -21 q 444 -114 444 -75 q 442 -128 444 -119 l 407 -261 z "},"ş":{"ha":793,"x_min":40,"x_max":756,"o":"m 40 0 m 756 311 q 451 0 756 0 l 183 0 q 125 12 150 0 q 83 42 100 24 q 58 85 67 61 q 50 136 50 110 q 58 185 50 161 q 84 228 67 210 q 127 259 101 247 q 186 271 153 271 l 467 271 q 508 287 494 271 q 521 321 521 303 q 508 357 521 340 q 467 374 494 374 l 328 374 q 113 443 185 374 q 40 664 40 513 q 347 978 40 978 l 564 978 q 625 966 599 978 q 669 935 651 954 q 697 892 688 917 q 706 843 706 868 q 697 793 706 818 q 669 749 688 768 q 624 717 651 729 q 563 706 597 706 l 329 706 q 289 690 301 706 q 276 654 276 674 q 289 620 276 636 q 329 604 301 604 l 468 604 q 685 533 615 604 q 756 311 756 463 m 407 -261 q 376 -310 397 -294 q 328 -325 356 -325 q 263 -303 290 -325 q 236 -246 236 -282 q 240 -219 236 -228 l 276 -86 q 356 -21 296 -21 q 422 -48 400 -21 q 444 -114 444 -75 q 442 -128 444 -119 l 407 -261 z "},"Š":{"ha":793,"x_min":40,"x_max":756,"o":"m 40 0 m 756 311 q 451 0 756 0 l 183 0 q 125 12 150 0 q 83 42 100 24 q 58 85 67 61 q 50 136 50 110 q 58 185 50 161 q 84 228 67 210 q 127 259 101 247 q 186 271 153 271 l 467 271 q 508 287 494 271 q 521 321 521 303 q 508 357 521 340 q 467 374 494 374 l 328 374 q 113 443 185 374 q 40 664 40 513 q 347 978 40 978 l 564 978 q 625 966 599 978 q 669 935 651 954 q 697 892 688 917 q 706 843 706 868 q 697 793 706 818 q 669 749 688 768 q 624 717 651 729 q 563 706 597 706 l 329 706 q 289 690 301 706 q 276 654 276 674 q 289 620 276 636 q 329 604 301 604 l 468 604 q 685 533 615 604 q 756 311 756 463 m 397 1182 l 528 1253 q 544 1259 536 1258 q 563 1260 553 1260 q 611 1238 590 1260 q 632 1188 632 1217 q 594 1126 632 1144 l 432 1040 q 394 1032 417 1032 q 361 1040 375 1032 l 199 1126 q 169 1153 178 1138 q 161 1188 161 1168 q 182 1238 161 1217 q 231 1260 203 1260 q 249 1259 240 1260 q 267 1253 257 1258 l 397 1182 z "},"š":{"ha":793,"x_min":40,"x_max":756,"o":"m 40 0 m 756 311 q 451 0 756 0 l 183 0 q 125 12 150 0 q 83 42 100 24 q 58 85 67 61 q 50 136 50 110 q 58 185 50 161 q 84 228 67 210 q 127 259 101 247 q 186 271 153 271 l 467 271 q 508 287 494 271 q 521 321 521 303 q 508 357 521 340 q 467 374 494 374 l 328 374 q 113 443 185 374 q 40 664 40 513 q 347 978 40 978 l 564 978 q 625 966 599 978 q 669 935 651 954 q 697 892 688 917 q 706 843 706 868 q 697 793 706 818 q 669 749 688 768 q 624 717 651 729 q 563 706 597 706 l 329 706 q 289 690 301 706 q 276 654 276 674 q 289 620 276 636 q 329 604 301 604 l 468 604 q 685 533 615 604 q 756 311 756 463 m 397 1182 l 528 1253 q 544 1259 536 1258 q 563 1260 553 1260 q 611 1238 590 1260 q 632 1188 632 1217 q 594 1126 632 1144 l 432 1040 q 394 1032 417 1032 q 361 1040 375 1032 l 199 1126 q 169 1153 178 1138 q 161 1188 161 1168 q 182 1238 161 1217 q 231 1260 203 1260 q 249 1259 240 1260 q 267 1253 257 1258 l 397 1182 z "},"Ţ":{"ha":775,"x_min":22,"x_max":749,"o":"m 22 0 m 521 129 q 481 28 521 63 q 385 -6 440 -6 q 291 28 331 -6 q 251 129 251 63 l 251 706 l 157 706 q 58 746 93 706 q 22 842 22 786 q 58 938 22 897 q 157 978 93 978 l 613 978 q 713 938 676 978 q 749 842 749 897 q 713 746 749 786 q 613 706 676 706 l 521 706 l 521 129 m 415 -261 q 385 -310 406 -294 q 336 -325 364 -325 q 272 -303 299 -325 q 244 -246 244 -282 q 249 -219 244 -228 l 285 -86 q 364 -21 304 -21 q 431 -48 408 -21 q 453 -114 453 -75 q 450 -128 453 -119 l 415 -261 z "},"ţ":{"ha":775,"x_min":22,"x_max":749,"o":"m 22 0 m 521 129 q 481 28 521 63 q 385 -6 440 -6 q 291 28 331 -6 q 251 129 251 63 l 251 706 l 157 706 q 58 746 93 706 q 22 842 22 786 q 58 938 22 897 q 157 978 93 978 l 613 978 q 713 938 676 978 q 749 842 749 897 q 713 746 749 786 q 613 706 676 706 l 521 706 l 521 129 m 415 -261 q 385 -310 406 -294 q 336 -325 364 -325 q 272 -303 299 -325 q 244 -246 244 -282 q 249 -219 244 -228 l 285 -86 q 364 -21 304 -21 q 431 -48 408 -21 q 453 -114 453 -75 q 450 -128 453 -119 l 415 -261 z "},"Ť":{"ha":775,"x_min":22,"x_max":749,"o":"m 22 0 m 521 129 q 481 28 521 63 q 385 -6 440 -6 q 291 28 331 -6 q 251 129 251 63 l 251 706 l 157 706 q 58 746 93 706 q 22 842 22 786 q 58 938 22 897 q 157 978 93 978 l 613 978 q 713 938 676 978 q 749 842 749 897 q 713 746 749 786 q 613 706 676 706 l 521 706 l 521 129 m 388 1182 l 518 1253 q 535 1259 526 1258 q 553 1260 543 1260 q 601 1238 581 1260 q 622 1188 622 1217 q 585 1126 622 1144 l 422 1040 q 385 1032 407 1032 q 351 1040 365 1032 l 189 1126 q 160 1153 168 1138 q 151 1188 151 1168 q 172 1238 151 1217 q 221 1260 193 1260 q 239 1259 231 1260 q 257 1253 247 1258 l 388 1182 z "},"ť":{"ha":775,"x_min":22,"x_max":749,"o":"m 22 0 m 521 129 q 481 28 521 63 q 385 -6 440 -6 q 291 28 331 -6 q 251 129 251 63 l 251 706 l 157 706 q 58 746 93 706 q 22 842 22 786 q 58 938 22 897 q 157 978 93 978 l 613 978 q 713 938 676 978 q 749 842 749 897 q 713 746 749 786 q 613 706 676 706 l 521 706 l 521 129 m 388 1182 l 518 1253 q 535 1259 526 1258 q 553 1260 543 1260 q 601 1238 581 1260 q 622 1188 622 1217 q 585 1126 622 1144 l 422 1040 q 385 1032 407 1032 q 351 1040 365 1032 l 189 1126 q 160 1153 168 1138 q 151 1188 151 1168 q 172 1238 151 1217 q 221 1260 193 1260 q 239 1259 231 1260 q 257 1253 247 1258 l 388 1182 z "},"Ŧ":{"ha":775,"x_min":22,"x_max":749,"o":"m 521 374 l 521 129 q 481 28 521 63 q 385 -6 440 -6 q 291 28 331 -6 q 251 129 251 63 l 251 374 l 229 374 q 147 407 176 374 q 117 485 117 440 q 147 567 117 532 q 229 601 176 601 l 251 601 l 251 706 l 157 706 q 58 746 93 706 q 22 842 22 786 q 58 938 22 897 q 157 978 93 978 l 613 978 q 713 938 676 978 q 749 842 749 897 q 713 746 749 786 q 613 706 676 706 l 521 706 l 521 601 l 546 601 q 628 567 599 601 q 658 485 658 532 q 628 407 658 440 q 546 374 599 374 l 521 374 z "},"ŧ":{"ha":775,"x_min":22,"x_max":749,"o":"m 22 0 m 521 374 l 521 129 q 481 28 521 63 q 385 -6 440 -6 q 291 28 331 -6 q 251 129 251 63 l 251 374 l 229 374 q 147 407 176 374 q 117 485 117 440 q 147 567 117 532 q 229 601 176 601 l 251 601 l 251 706 l 157 706 q 58 746 93 706 q 22 842 22 786 q 58 938 22 897 q 157 978 93 978 l 613 978 q 713 938 676 978 q 749 842 749 897 q 713 746 749 786 q 613 706 676 706 l 521 706 l 521 601 l 546 601 q 628 567 599 601 q 658 485 658 532 q 628 407 658 440 q 546 374 599 374 l 521 374 z "},"Ũ":{"ha":1050,"x_min":56,"x_max":993,"o":"m 56 0 m 689 274 q 722 304 722 274 l 722 839 q 754 948 722 914 q 856 982 786 982 q 993 839 993 982 l 993 86 q 910 0 993 0 l 140 0 q 56 86 56 0 l 56 839 q 190 981 56 981 q 325 839 325 981 l 325 310 q 360 274 325 274 l 689 274 m 711 1231 q 736 1251 724 1246 q 757 1256 749 1256 q 806 1236 785 1256 q 828 1189 828 1217 q 811 1131 828 1157 q 769 1087 794 1106 q 711 1058 743 1068 q 649 1049 679 1049 q 585 1059 617 1049 q 523 1081 553 1069 q 465 1103 493 1093 q 413 1114 438 1114 q 378 1104 392 1114 q 336 1065 364 1094 q 313 1047 325 1053 q 290 1042 300 1042 q 243 1061 265 1042 q 221 1108 221 1081 q 238 1165 221 1139 q 280 1210 254 1192 q 338 1240 306 1229 q 400 1250 369 1250 q 460 1240 429 1250 q 520 1217 490 1229 q 578 1195 550 1206 q 633 1185 607 1185 q 672 1194 657 1185 q 711 1231 686 1203 z "},"ũ":{"ha":1050,"x_min":56,"x_max":993,"o":"m 56 0 m 689 274 q 722 304 722 274 l 722 839 q 754 948 722 914 q 856 982 786 982 q 993 839 993 982 l 993 86 q 910 0 993 0 l 140 0 q 56 86 56 0 l 56 839 q 190 981 56 981 q 325 839 325 981 l 325 310 q 360 274 325 274 l 689 274 m 711 1231 q 736 1251 724 1246 q 757 1256 749 1256 q 806 1236 785 1256 q 828 1189 828 1217 q 811 1131 828 1157 q 769 1087 794 1106 q 711 1058 743 1068 q 649 1049 679 1049 q 585 1059 617 1049 q 523 1081 553 1069 q 465 1103 493 1093 q 413 1114 438 1114 q 378 1104 392 1114 q 336 1065 364 1094 q 313 1047 325 1053 q 290 1042 300 1042 q 243 1061 265 1042 q 221 1108 221 1081 q 238 1165 221 1139 q 280 1210 254 1192 q 338 1240 306 1229 q 400 1250 369 1250 q 460 1240 429 1250 q 520 1217 490 1229 q 578 1195 550 1206 q 633 1185 607 1185 q 672 1194 657 1185 q 711 1231 686 1203 z "},"Ū":{"ha":1050,"x_min":56,"x_max":993,"o":"m 56 0 m 689 274 q 722 304 722 274 l 722 839 q 754 948 722 914 q 856 982 786 982 q 993 839 993 982 l 993 86 q 910 0 993 0 l 140 0 q 56 86 56 0 l 56 839 q 190 981 56 981 q 325 839 325 981 l 325 310 q 360 274 325 274 l 689 274 m 335 1054 q 267 1081 292 1054 q 243 1144 243 1108 q 267 1211 243 1182 q 335 1240 292 1240 l 714 1240 q 781 1211 757 1240 q 806 1144 806 1182 q 781 1081 806 1108 q 714 1054 757 1054 l 335 1054 z "},"ū":{"ha":1050,"x_min":56,"x_max":993,"o":"m 56 0 m 689 274 q 722 304 722 274 l 722 839 q 754 948 722 914 q 856 982 786 982 q 993 839 993 982 l 993 86 q 910 0 993 0 l 140 0 q 56 86 56 0 l 56 839 q 190 981 56 981 q 325 839 325 981 l 325 310 q 360 274 325 274 l 689 274 m 335 1054 q 267 1081 292 1054 q 243 1144 243 1108 q 267 1211 243 1182 q 335 1240 292 1240 l 714 1240 q 781 1211 757 1240 q 806 1144 806 1182 q 781 1081 806 1108 q 714 1054 757 1054 l 335 1054 z "},"Ŭ":{"ha":1050,"x_min":56,"x_max":993,"o":"m 56 0 m 689 274 q 722 304 722 274 l 722 839 q 754 948 722 914 q 856 982 786 982 q 993 839 993 982 l 993 86 q 910 0 993 0 l 140 0 q 56 86 56 0 l 56 839 q 190 981 56 981 q 325 839 325 981 l 325 310 q 360 274 325 274 l 689 274 m 690 1260 q 739 1238 718 1260 q 760 1188 760 1217 q 736 1122 760 1150 q 677 1073 713 1093 q 601 1042 642 1053 q 525 1032 560 1032 q 448 1042 489 1032 q 372 1073 407 1053 q 313 1122 336 1093 q 289 1188 289 1150 q 310 1238 289 1217 q 358 1260 331 1260 q 406 1246 390 1260 q 434 1215 421 1232 q 466 1183 447 1197 q 525 1169 485 1169 q 583 1183 564 1169 q 615 1215 601 1197 q 643 1246 628 1232 q 690 1260 658 1260 z "},"ŭ":{"ha":1050,"x_min":56,"x_max":993,"o":"m 56 0 m 689 274 q 722 304 722 274 l 722 839 q 754 948 722 914 q 856 982 786 982 q 993 839 993 982 l 993 86 q 910 0 993 0 l 140 0 q 56 86 56 0 l 56 839 q 190 981 56 981 q 325 839 325 981 l 325 310 q 360 274 325 274 l 689 274 m 690 1260 q 739 1238 718 1260 q 760 1188 760 1217 q 736 1122 760 1150 q 677 1073 713 1093 q 601 1042 642 1053 q 525 1032 560 1032 q 448 1042 489 1032 q 372 1073 407 1053 q 313 1122 336 1093 q 289 1188 289 1150 q 310 1238 289 1217 q 358 1260 331 1260 q 406 1246 390 1260 q 434 1215 421 1232 q 466 1183 447 1197 q 525 1169 485 1169 q 583 1183 564 1169 q 615 1215 601 1197 q 643 1246 628 1232 q 690 1260 658 1260 z "},"Ů":{"ha":1050,"x_min":56,"x_max":993,"o":"m 56 0 m 689 274 q 722 304 722 274 l 722 839 q 754 948 722 914 q 856 982 786 982 q 993 839 993 982 l 993 86 q 910 0 993 0 l 140 0 q 56 86 56 0 l 56 839 q 190 981 56 981 q 325 839 325 981 l 325 310 q 360 274 325 274 l 689 274 m 371 1136 q 383 1194 371 1167 q 415 1241 394 1221 q 465 1272 436 1261 q 525 1283 493 1283 q 585 1272 557 1283 q 633 1241 613 1261 q 666 1194 654 1221 q 678 1136 678 1167 q 666 1078 678 1106 q 633 1032 654 1051 q 585 1001 613 1013 q 525 989 557 989 q 465 1001 493 989 q 415 1032 436 1013 q 383 1078 394 1051 q 371 1136 371 1106 m 465 1135 q 483 1091 465 1110 q 525 1072 501 1072 q 567 1091 550 1072 q 585 1135 585 1110 q 567 1179 585 1161 q 525 1197 550 1197 q 483 1179 501 1197 q 465 1135 465 1161 z "},"ů":{"ha":1050,"x_min":56,"x_max":993,"o":"m 56 0 m 689 274 q 722 304 722 274 l 722 839 q 754 948 722 914 q 856 982 786 982 q 993 839 993 982 l 993 86 q 910 0 993 0 l 140 0 q 56 86 56 0 l 56 839 q 190 981 56 981 q 325 839 325 981 l 325 310 q 360 274 325 274 l 689 274 m 371 1136 q 383 1194 371 1167 q 415 1241 394 1221 q 465 1272 436 1261 q 525 1283 493 1283 q 585 1272 557 1283 q 633 1241 613 1261 q 666 1194 654 1221 q 678 1136 678 1167 q 666 1078 678 1106 q 633 1032 654 1051 q 585 1001 613 1013 q 525 989 557 989 q 465 1001 493 989 q 415 1032 436 1013 q 383 1078 394 1051 q 371 1136 371 1106 m 465 1135 q 483 1091 465 1110 q 525 1072 501 1072 q 567 1091 550 1072 q 585 1135 585 1110 q 567 1179 585 1161 q 525 1197 550 1197 q 483 1179 501 1197 q 465 1135 465 1161 z "},"Ű":{"ha":1050,"x_min":56,"x_max":993,"o":"m 56 0 m 689 274 q 722 304 722 274 l 722 839 q 754 948 722 914 q 856 982 786 982 q 993 839 993 982 l 993 86 q 910 0 993 0 l 140 0 q 56 86 56 0 l 56 839 q 190 981 56 981 q 325 839 325 981 l 325 310 q 360 274 325 274 l 689 274 m 713 1054 q 664 1032 690 1032 q 615 1053 636 1032 q 594 1103 594 1075 q 614 1149 594 1125 l 757 1296 q 801 1317 775 1317 q 851 1296 829 1317 q 872 1247 872 1275 q 868 1224 872 1236 q 853 1201 864 1213 l 713 1054 m 435 1054 q 386 1032 413 1032 q 338 1053 358 1032 q 317 1103 317 1075 q 336 1149 317 1129 l 479 1296 q 524 1317 497 1317 q 573 1296 551 1317 q 594 1247 594 1275 q 590 1224 594 1236 q 575 1201 586 1213 l 435 1054 z "},"ű":{"ha":1050,"x_min":56,"x_max":993,"o":"m 56 0 m 689 274 q 722 304 722 274 l 722 839 q 754 948 722 914 q 856 982 786 982 q 993 839 993 982 l 993 86 q 910 0 993 0 l 140 0 q 56 86 56 0 l 56 839 q 190 981 56 981 q 325 839 325 981 l 325 310 q 360 274 325 274 l 689 274 m 713 1054 q 664 1032 690 1032 q 615 1053 636 1032 q 594 1103 594 1075 q 614 1149 594 1125 l 757 1296 q 801 1317 775 1317 q 851 1296 829 1317 q 872 1247 872 1275 q 868 1224 872 1236 q 853 1201 864 1213 l 713 1054 m 435 1054 q 386 1032 413 1032 q 338 1053 358 1032 q 317 1103 317 1075 q 336 1149 317 1129 l 479 1296 q 524 1317 497 1317 q 573 1296 551 1317 q 594 1247 594 1275 q 590 1224 594 1236 q 575 1201 586 1213 l 435 1054 z "},"Ų":{"ha":1050,"x_min":56,"x_max":993,"o":"m 689 274 q 722 304 722 274 l 722 839 q 754 948 722 914 q 856 982 786 982 q 993 839 993 982 l 993 86 q 910 0 993 0 l 747 0 q 717 -11 726 0 q 708 -40 708 -22 q 727 -82 708 -72 q 808 -92 746 -92 q 901 -126 871 -92 q 931 -210 931 -161 q 901 -290 931 -256 q 815 -325 871 -325 q 696 -310 744 -325 q 617 -268 647 -294 q 575 -206 588 -242 q 563 -131 563 -171 q 571 -64 563 -99 q 594 0 579 -29 l 140 0 q 56 86 56 0 l 56 839 q 190 981 56 981 q 325 839 325 981 l 325 310 q 360 274 325 274 l 689 274 z "},"ų":{"ha":1050,"x_min":56,"x_max":993,"o":"m 56 0 m 689 274 q 722 304 722 274 l 722 839 q 754 948 722 914 q 856 982 786 982 q 993 839 993 982 l 993 86 q 910 0 993 0 l 747 0 q 717 -11 726 0 q 708 -40 708 -22 q 727 -82 708 -72 q 808 -92 746 -92 q 901 -126 871 -92 q 931 -210 931 -161 q 901 -290 931 -256 q 815 -325 871 -325 q 696 -310 744 -325 q 617 -268 647 -294 q 575 -206 588 -242 q 563 -131 563 -171 q 571 -64 563 -99 q 594 0 579 -29 l 140 0 q 56 86 56 0 l 56 839 q 190 981 56 981 q 325 839 325 981 l 325 310 q 360 274 325 274 l 689 274 z "},"Ŵ":{"ha":1199,"x_min":57,"x_max":1169,"o":"m 57 0 m 57 847 q 97 948 57 914 q 193 982 136 982 q 286 947 246 982 q 326 847 326 913 l 326 272 l 411 272 l 411 847 q 451 948 411 914 q 546 982 490 982 q 640 948 600 982 q 679 847 679 914 l 679 272 l 731 272 l 903 882 q 951 958 918 933 q 1025 982 985 982 q 1079 973 1053 982 q 1126 947 1106 964 q 1158 907 1146 931 q 1169 854 1169 883 q 1163 813 1169 836 l 964 103 q 940 51 956 71 q 904 20 924 32 q 864 4 885 8 q 825 0 843 0 l 193 0 q 57 136 57 0 l 57 847 m 542 1111 l 411 1040 q 393 1033 401 1035 q 375 1032 385 1032 q 326 1053 347 1032 q 306 1106 306 1075 q 315 1135 306 1117 q 343 1165 324 1154 l 506 1253 q 543 1260 529 1260 q 560 1258 551 1260 q 576 1253 569 1257 l 739 1165 q 767 1135 758 1154 q 776 1106 776 1117 q 756 1053 776 1075 q 707 1032 735 1032 q 672 1040 686 1032 l 542 1111 z "},"ŵ":{"ha":1199,"x_min":57,"x_max":1169,"o":"m 57 0 m 57 847 q 97 948 57 914 q 193 982 136 982 q 286 947 246 982 q 326 847 326 913 l 326 272 l 411 272 l 411 847 q 451 948 411 914 q 546 982 490 982 q 640 948 600 982 q 679 847 679 914 l 679 272 l 731 272 l 903 882 q 951 958 918 933 q 1025 982 985 982 q 1079 973 1053 982 q 1126 947 1106 964 q 1158 907 1146 931 q 1169 854 1169 883 q 1163 813 1169 836 l 964 103 q 940 51 956 71 q 904 20 924 32 q 864 4 885 8 q 825 0 843 0 l 193 0 q 57 136 57 0 l 57 847 m 542 1111 l 411 1040 q 393 1033 401 1035 q 375 1032 385 1032 q 326 1053 347 1032 q 306 1106 306 1075 q 315 1135 306 1117 q 343 1165 324 1154 l 506 1253 q 543 1260 529 1260 q 560 1258 551 1260 q 576 1253 569 1257 l 739 1165 q 767 1135 758 1154 q 776 1106 776 1117 q 756 1053 776 1075 q 707 1032 735 1032 q 672 1040 686 1032 l 542 1111 z "},"Ŷ":{"ha":800,"x_min":25,"x_max":775,"o":"m 25 0 m 521 913 q 573 965 542 949 q 636 982 604 982 q 688 972 663 982 q 732 944 713 961 q 763 902 751 926 q 775 850 775 878 q 753 776 775 813 l 536 424 l 536 129 q 496 28 536 63 q 401 -6 456 -6 q 306 28 346 -6 q 267 129 267 63 l 267 424 l 47 778 q 25 846 25 813 q 37 899 25 874 q 68 942 49 924 q 113 972 88 961 q 165 982 138 982 q 226 966 194 982 q 279 914 258 950 l 400 703 l 521 913 m 400 1111 l 269 1040 q 251 1033 260 1035 q 233 1032 243 1032 q 185 1053 206 1032 q 164 1106 164 1075 q 173 1135 164 1117 q 201 1165 182 1154 l 364 1253 q 401 1260 388 1260 q 419 1258 410 1260 q 435 1253 428 1257 l 597 1165 q 626 1135 617 1154 q 635 1106 635 1117 q 614 1053 635 1075 q 565 1032 593 1032 q 531 1040 544 1032 l 400 1111 z "},"ŷ":{"ha":800,"x_min":25,"x_max":775,"o":"m 25 0 m 521 913 q 573 965 542 949 q 636 982 604 982 q 688 972 663 982 q 732 944 713 961 q 763 902 751 926 q 775 850 775 878 q 753 776 775 813 l 536 424 l 536 129 q 496 28 536 63 q 401 -6 456 -6 q 306 28 346 -6 q 267 129 267 63 l 267 424 l 47 778 q 25 846 25 813 q 37 899 25 874 q 68 942 49 924 q 113 972 88 961 q 165 982 138 982 q 226 966 194 982 q 279 914 258 950 l 400 703 l 521 913 m 400 1111 l 269 1040 q 251 1033 260 1035 q 233 1032 243 1032 q 185 1053 206 1032 q 164 1106 164 1075 q 173 1135 164 1117 q 201 1165 182 1154 l 364 1253 q 401 1260 388 1260 q 419 1258 410 1260 q 435 1253 428 1257 l 597 1165 q 626 1135 617 1154 q 635 1106 635 1117 q 614 1053 635 1075 q 565 1032 593 1032 q 531 1040 544 1032 l 400 1111 z "},"Ÿ":{"ha":800,"x_min":25,"x_max":775,"o":"m 25 0 m 521 913 q 573 965 542 949 q 636 982 604 982 q 688 972 663 982 q 732 944 713 961 q 763 902 751 926 q 775 850 775 878 q 753 776 775 813 l 536 424 l 536 129 q 496 28 536 63 q 401 -6 456 -6 q 306 28 346 -6 q 267 129 267 63 l 267 424 l 47 778 q 25 846 25 813 q 37 899 25 874 q 68 942 49 924 q 113 972 88 961 q 165 982 138 982 q 226 966 194 982 q 279 914 258 950 l 400 703 l 521 913 m 128 1146 q 157 1220 128 1190 q 229 1250 186 1250 q 303 1220 274 1250 q 332 1146 332 1190 q 303 1074 332 1103 q 229 1046 274 1046 q 157 1074 186 1046 q 128 1146 128 1103 m 467 1146 q 497 1220 467 1190 q 571 1250 528 1250 q 642 1220 614 1250 q 671 1146 671 1190 q 642 1074 671 1103 q 571 1046 614 1046 q 497 1074 528 1046 q 467 1146 467 1103 z "},"Ź":{"ha":860,"x_min":40,"x_max":822,"o":"m 40 0 m 686 271 q 786 231 750 271 q 822 136 822 192 q 786 40 822 81 q 686 0 750 0 l 172 0 q 73 35 106 0 q 40 117 40 71 q 48 172 40 144 q 78 228 56 199 l 443 706 l 179 706 q 80 746 115 706 q 44 842 44 786 q 80 938 44 897 q 179 978 115 978 l 686 978 q 744 968 719 978 q 785 942 769 958 q 808 904 800 925 q 815 863 815 883 q 807 806 815 828 q 783 765 799 785 l 428 271 l 686 271 m 478 1054 q 429 1032 456 1032 q 381 1053 401 1032 q 360 1103 360 1075 q 379 1149 360 1129 l 522 1296 q 567 1317 540 1317 q 616 1296 594 1317 q 638 1247 638 1275 q 633 1224 638 1236 q 618 1201 629 1213 l 478 1054 z "},"ź":{"ha":860,"x_min":40,"x_max":822,"o":"m 40 0 m 686 271 q 786 231 750 271 q 822 136 822 192 q 786 40 822 81 q 686 0 750 0 l 172 0 q 73 35 106 0 q 40 117 40 71 q 48 172 40 144 q 78 228 56 199 l 443 706 l 179 706 q 80 746 115 706 q 44 842 44 786 q 80 938 44 897 q 179 978 115 978 l 686 978 q 744 968 719 978 q 785 942 769 958 q 808 904 800 925 q 815 863 815 883 q 807 806 815 828 q 783 765 799 785 l 428 271 l 686 271 m 478 1054 q 429 1032 456 1032 q 381 1053 401 1032 q 360 1103 360 1075 q 379 1149 360 1129 l 522 1296 q 567 1317 540 1317 q 616 1296 594 1317 q 638 1247 638 1275 q 633 1224 638 1236 q 618 1201 629 1213 l 478 1054 z "},"Ż":{"ha":860,"x_min":40,"x_max":822,"o":"m 40 0 m 686 271 q 786 231 750 271 q 822 136 822 192 q 786 40 822 81 q 686 0 750 0 l 172 0 q 73 35 106 0 q 40 117 40 71 q 48 172 40 144 q 78 228 56 199 l 443 706 l 179 706 q 80 746 115 706 q 44 842 44 786 q 80 938 44 897 q 179 978 115 978 l 686 978 q 744 968 719 978 q 785 942 769 958 q 808 904 800 925 q 815 863 815 883 q 807 806 815 828 q 783 765 799 785 l 428 271 l 686 271 m 328 1146 q 357 1220 328 1190 q 429 1250 386 1250 q 503 1220 474 1250 q 532 1146 532 1190 q 503 1074 532 1103 q 429 1046 474 1046 q 357 1074 386 1046 q 328 1146 328 1103 z "},"ż":{"ha":860,"x_min":40,"x_max":822,"o":"m 40 0 m 686 271 q 786 231 750 271 q 822 136 822 192 q 786 40 822 81 q 686 0 750 0 l 172 0 q 73 35 106 0 q 40 117 40 71 q 48 172 40 144 q 78 228 56 199 l 443 706 l 179 706 q 80 746 115 706 q 44 842 44 786 q 80 938 44 897 q 179 978 115 978 l 686 978 q 744 968 719 978 q 785 942 769 958 q 808 904 800 925 q 815 863 815 883 q 807 806 815 828 q 783 765 799 785 l 428 271 l 686 271 m 328 1146 q 357 1220 328 1190 q 429 1250 386 1250 q 503 1220 474 1250 q 532 1146 532 1190 q 503 1074 532 1103 q 429 1046 474 1046 q 357 1074 386 1046 q 328 1146 328 1103 z "},"Ž":{"ha":860,"x_min":40,"x_max":822,"o":"m 40 0 m 686 271 q 786 231 750 271 q 822 136 822 192 q 786 40 822 81 q 686 0 750 0 l 172 0 q 73 35 106 0 q 40 117 40 71 q 48 172 40 144 q 78 228 56 199 l 443 706 l 179 706 q 80 746 115 706 q 44 842 44 786 q 80 938 44 897 q 179 978 115 978 l 686 978 q 744 968 719 978 q 785 942 769 958 q 808 904 800 925 q 815 863 815 883 q 807 806 815 828 q 783 765 799 785 l 428 271 l 686 271 m 431 1182 l 561 1253 q 578 1259 569 1258 q 596 1260 586 1260 q 644 1238 624 1260 q 665 1188 665 1217 q 628 1126 665 1144 l 465 1040 q 428 1032 450 1032 q 394 1040 408 1032 l 232 1126 q 203 1153 211 1138 q 194 1188 194 1168 q 215 1238 194 1217 q 264 1260 236 1260 q 282 1259 274 1260 q 300 1253 290 1258 l 431 1182 z "},"ž":{"ha":860,"x_min":40,"x_max":822,"o":"m 40 0 m 686 271 q 786 231 750 271 q 822 136 822 192 q 786 40 822 81 q 686 0 750 0 l 172 0 q 73 35 106 0 q 40 117 40 71 q 48 172 40 144 q 78 228 56 199 l 443 706 l 179 706 q 80 746 115 706 q 44 842 44 786 q 80 938 44 897 q 179 978 115 978 l 686 978 q 744 968 719 978 q 785 942 769 958 q 808 904 800 925 q 815 863 815 883 q 807 806 815 828 q 783 765 799 785 l 428 271 l 686 271 m 431 1182 l 561 1253 q 578 1259 569 1258 q 596 1260 586 1260 q 644 1238 624 1260 q 665 1188 665 1217 q 628 1126 665 1144 l 465 1040 q 428 1032 450 1032 q 394 1040 408 1032 l 232 1126 q 203 1153 211 1138 q 194 1188 194 1168 q 215 1238 194 1217 q 264 1260 236 1260 q 282 1259 274 1260 q 300 1253 290 1258 l 431 1182 z "},"Ș":{"ha":793,"x_min":40,"x_max":756,"o":"m 40 0 m 756 311 q 451 0 756 0 l 183 0 q 125 12 150 0 q 83 42 100 24 q 58 85 67 61 q 50 136 50 110 q 58 185 50 161 q 84 228 67 210 q 127 259 101 247 q 186 271 153 271 l 467 271 q 508 287 494 271 q 521 321 521 303 q 508 357 521 340 q 467 374 494 374 l 328 374 q 113 443 185 374 q 40 664 40 513 q 347 978 40 978 l 564 978 q 625 966 599 978 q 669 935 651 954 q 697 892 688 917 q 706 843 706 868 q 697 793 706 818 q 669 749 688 768 q 624 717 651 729 q 563 706 597 706 l 329 706 q 289 690 301 706 q 276 654 276 674 q 289 620 276 636 q 329 604 301 604 l 468 604 q 685 533 615 604 q 756 311 756 463 m 407 -261 q 376 -310 397 -294 q 328 -325 356 -325 q 263 -303 290 -325 q 236 -246 236 -282 q 240 -219 236 -228 l 276 -86 q 356 -21 296 -21 q 422 -48 400 -21 q 444 -114 444 -75 q 442 -128 444 -119 l 407 -261 z "},"ș":{"ha":793,"x_min":40,"x_max":756,"o":"m 40 0 m 756 311 q 451 0 756 0 l 183 0 q 125 12 150 0 q 83 42 100 24 q 58 85 67 61 q 50 136 50 110 q 58 185 50 161 q 84 228 67 210 q 127 259 101 247 q 186 271 153 271 l 467 271 q 508 287 494 271 q 521 321 521 303 q 508 357 521 340 q 467 374 494 374 l 328 374 q 113 443 185 374 q 40 664 40 513 q 347 978 40 978 l 564 978 q 625 966 599 978 q 669 935 651 954 q 697 892 688 917 q 706 843 706 868 q 697 793 706 818 q 669 749 688 768 q 624 717 651 729 q 563 706 597 706 l 329 706 q 289 690 301 706 q 276 654 276 674 q 289 620 276 636 q 329 604 301 604 l 468 604 q 685 533 615 604 q 756 311 756 463 m 407 -261 q 376 -310 397 -294 q 328 -325 356 -325 q 263 -303 290 -325 q 236 -246 236 -282 q 240 -219 236 -228 l 276 -86 q 356 -21 296 -21 q 422 -48 400 -21 q 444 -114 444 -75 q 442 -128 444 -119 l 407 -261 z "},"Ț":{"ha":775,"x_min":22,"x_max":749,"o":"m 22 0 m 521 129 q 481 28 521 63 q 385 -6 440 -6 q 291 28 331 -6 q 251 129 251 63 l 251 706 l 157 706 q 58 746 93 706 q 22 842 22 786 q 58 938 22 897 q 157 978 93 978 l 613 978 q 713 938 676 978 q 749 842 749 897 q 713 746 749 786 q 613 706 676 706 l 521 706 l 521 129 m 415 -261 q 385 -310 406 -294 q 336 -325 364 -325 q 272 -303 299 -325 q 244 -246 244 -282 q 249 -219 244 -228 l 285 -86 q 364 -21 304 -21 q 431 -48 408 -21 q 453 -114 453 -75 q 450 -128 453 -119 l 415 -261 z "},"ț":{"ha":775,"x_min":22,"x_max":749,"o":"m 22 0 m 521 129 q 481 28 521 63 q 385 -6 440 -6 q 291 28 331 -6 q 251 129 251 63 l 251 706 l 157 706 q 58 746 93 706 q 22 842 22 786 q 58 938 22 897 q 157 978 93 978 l 613 978 q 713 938 676 978 q 749 842 749 897 q 713 746 749 786 q 613 706 676 706 l 521 706 l 521 129 m 415 -261 q 385 -310 406 -294 q 336 -325 364 -325 q 272 -303 299 -325 q 244 -246 244 -282 q 249 -219 244 -228 l 285 -86 q 364 -21 304 -21 q 431 -48 408 -21 q 453 -114 453 -75 q 450 -128 453 -119 l 415 -261 z "},"ˆ":{"ha":549,"x_min":39,"x_max":510,"o":"m 275 1111 l 144 1040 q 126 1033 135 1035 q 108 1032 118 1032 q 60 1053 81 1032 q 39 1106 39 1075 q 48 1135 39 1117 q 76 1165 57 1154 l 239 1253 q 276 1260 263 1260 q 294 1258 285 1260 q 310 1253 303 1257 l 472 1165 q 501 1135 492 1154 q 510 1106 510 1117 q 489 1053 510 1075 q 440 1032 468 1032 q 406 1040 419 1032 l 275 1111 z "},"ˇ":{"ha":549,"x_min":39,"x_max":510,"o":"m 275 1182 l 406 1253 q 422 1259 414 1258 q 440 1260 431 1260 q 489 1238 468 1260 q 510 1188 510 1217 q 472 1126 510 1144 l 310 1040 q 272 1032 294 1032 q 239 1040 253 1032 l 76 1126 q 47 1153 56 1138 q 39 1188 39 1168 q 60 1238 39 1217 q 108 1260 81 1260 q 126 1259 118 1260 q 144 1253 135 1258 l 275 1182 z "},"˘":{"ha":549,"x_min":39,"x_max":510,"o":"m 440 1260 q 489 1238 468 1260 q 510 1188 510 1217 q 486 1122 510 1150 q 427 1073 463 1093 q 351 1042 392 1053 q 275 1032 310 1032 q 198 1042 239 1032 q 122 1073 157 1053 q 63 1122 86 1093 q 39 1188 39 1150 q 60 1238 39 1217 q 108 1260 81 1260 q 156 1246 140 1260 q 184 1215 171 1232 q 216 1183 197 1197 q 275 1169 235 1169 q 333 1183 314 1169 q 365 1215 351 1197 q 393 1246 378 1232 q 440 1260 408 1260 z "},"˙":{"ha":283,"x_min":39,"x_max":243,"o":"m 39 1146 q 68 1220 39 1190 q 140 1250 97 1250 q 214 1220 185 1250 q 243 1146 243 1190 q 214 1074 243 1103 q 140 1046 185 1046 q 68 1074 97 1046 q 39 1146 39 1103 z "},"˚":{"ha":385,"x_min":39,"x_max":346,"o":"m 39 1136 q 51 1194 39 1167 q 83 1241 63 1221 q 133 1272 104 1261 q 193 1283 161 1283 q 253 1272 225 1283 q 301 1241 281 1261 q 334 1194 322 1221 q 346 1136 346 1167 q 334 1078 346 1106 q 301 1032 322 1051 q 253 1001 281 1013 q 193 989 225 989 q 133 1001 161 989 q 83 1032 104 1013 q 51 1078 63 1051 q 39 1136 39 1106 m 133 1135 q 151 1091 133 1110 q 193 1072 169 1072 q 235 1091 218 1072 q 253 1135 253 1110 q 235 1179 253 1161 q 193 1197 218 1197 q 151 1179 169 1197 q 133 1135 133 1161 z "},"˛":{"ha":446,"x_min":39,"x_max":407,"o":"m 174 85 q 215 47 215 85 q 210 22 215 32 q 200 1 206 11 q 190 -19 194 -8 q 185 -49 185 -31 q 203 -83 185 -75 q 285 -92 222 -92 q 377 -126 347 -92 q 407 -210 407 -161 q 377 -290 407 -256 q 292 -325 347 -325 q 172 -310 221 -325 q 94 -268 124 -294 q 51 -206 64 -242 q 39 -131 39 -171 q 49 -56 39 -94 q 78 13 60 -18 q 122 65 97 44 q 174 85 146 85 z "},"˜":{"ha":685,"x_min":39,"x_max":646,"o":"m 529 1231 q 554 1251 542 1246 q 575 1256 567 1256 q 624 1236 603 1256 q 646 1189 646 1217 q 629 1131 646 1157 q 587 1087 613 1106 q 529 1058 561 1068 q 467 1049 497 1049 q 403 1059 435 1049 q 341 1081 371 1069 q 283 1103 311 1093 q 231 1114 256 1114 q 196 1104 210 1114 q 154 1065 182 1094 q 131 1047 143 1053 q 108 1042 118 1042 q 61 1061 83 1042 q 39 1108 39 1081 q 56 1165 39 1139 q 98 1210 72 1192 q 156 1240 124 1229 q 218 1250 188 1250 q 278 1240 247 1250 q 338 1217 308 1229 q 397 1195 368 1206 q 451 1185 425 1185 q 490 1194 475 1185 q 529 1231 504 1203 z "},"˝":{"ha":635,"x_min":39,"x_max":594,"o":"m 435 1054 q 386 1032 413 1032 q 338 1053 358 1032 q 317 1103 317 1075 q 336 1149 317 1125 l 479 1296 q 524 1317 497 1317 q 573 1296 551 1317 q 594 1247 594 1275 q 590 1224 594 1236 q 575 1201 586 1213 l 435 1054 m 157 1054 q 108 1032 135 1032 q 60 1053 81 1032 q 39 1103 39 1075 q 58 1149 39 1129 l 201 1296 q 246 1317 219 1317 q 295 1296 274 1317 q 317 1247 317 1275 q 313 1224 317 1236 q 297 1201 308 1213 l 157 1054 z "},"Δ":{"ha":932,"x_min":19,"x_max":914,"o":"m 914 122 q 901 72 914 94 q 868 34 889 50 q 821 9 847 18 q 768 0 794 0 l 165 0 q 112 8 138 0 q 65 32 86 17 q 32 70 44 47 q 19 122 19 93 q 22 153 19 142 q 32 176 25 164 l 356 901 q 401 960 372 939 q 483 982 429 982 q 564 960 538 982 q 606 900 590 938 l 901 176 q 910 151 907 164 q 914 122 914 138 m 361 271 l 582 271 l 479 569 l 361 271 z "},"Ω":{"ha":896,"x_min":63,"x_max":836,"o":"m 142 0 q 63 79 63 0 q 142 153 63 153 l 190 153 q 145 216 168 181 q 104 295 122 251 q 75 393 86 339 q 64 513 64 447 q 153 867 64 746 q 449 989 243 989 q 744 867 654 989 q 835 513 835 746 q 824 393 835 447 q 794 295 813 339 q 754 216 776 251 q 710 153 732 181 l 756 153 q 836 82 836 153 q 756 0 836 0 l 544 0 q 474 69 474 0 q 482 122 474 103 q 503 158 490 142 q 532 197 517 175 q 560 256 547 218 q 582 355 574 294 q 590 513 590 415 q 588 624 590 572 q 574 713 586 675 q 532 772 561 750 q 449 793 503 793 q 369 774 397 793 q 327 719 340 754 q 311 637 314 685 q 308 531 308 589 q 317 365 308 429 q 338 261 325 301 q 366 199 351 221 q 394 158 381 176 q 415 122 407 140 q 424 69 424 103 q 358 0 424 0 l 142 0 z "},"Ẁ":{"ha":1199,"x_min":57,"x_max":1169,"o":"m 57 0 m 57 847 q 97 948 57 914 q 193 982 136 982 q 286 947 246 982 q 326 847 326 913 l 326 272 l 411 272 l 411 847 q 451 948 411 914 q 546 982 490 982 q 640 948 600 982 q 679 847 679 914 l 679 272 l 731 272 l 903 882 q 951 958 918 933 q 1025 982 985 982 q 1079 973 1053 982 q 1126 947 1106 964 q 1158 907 1146 931 q 1169 854 1169 883 q 1163 813 1169 836 l 964 103 q 940 51 956 71 q 904 20 924 32 q 864 4 885 8 q 825 0 843 0 l 193 0 q 57 136 57 0 l 57 847 m 351 1201 q 336 1224 340 1213 q 332 1247 332 1236 q 353 1296 332 1275 q 403 1317 375 1317 q 447 1296 428 1317 l 590 1149 q 610 1103 610 1129 q 589 1053 610 1075 q 540 1032 568 1032 q 492 1054 514 1032 l 351 1201 z "},"ẁ":{"ha":1199,"x_min":57,"x_max":1169,"o":"m 57 0 m 57 847 q 97 948 57 914 q 193 982 136 982 q 286 947 246 982 q 326 847 326 913 l 326 272 l 411 272 l 411 847 q 451 948 411 914 q 546 982 490 982 q 640 948 600 982 q 679 847 679 914 l 679 272 l 731 272 l 903 882 q 951 958 918 933 q 1025 982 985 982 q 1079 973 1053 982 q 1126 947 1106 964 q 1158 907 1146 931 q 1169 854 1169 883 q 1163 813 1169 836 l 964 103 q 940 51 956 71 q 904 20 924 32 q 864 4 885 8 q 825 0 843 0 l 193 0 q 57 136 57 0 l 57 847 m 351 1201 q 336 1224 340 1213 q 332 1247 332 1236 q 353 1296 332 1275 q 403 1317 375 1317 q 447 1296 428 1317 l 590 1149 q 610 1103 610 1129 q 589 1053 610 1075 q 540 1032 568 1032 q 492 1054 514 1032 l 351 1201 z "},"Ẃ":{"ha":1199,"x_min":57,"x_max":1169,"o":"m 57 0 m 57 847 q 97 948 57 914 q 193 982 136 982 q 286 947 246 982 q 326 847 326 913 l 326 272 l 411 272 l 411 847 q 451 948 411 914 q 546 982 490 982 q 640 948 600 982 q 679 847 679 914 l 679 272 l 731 272 l 903 882 q 951 958 918 933 q 1025 982 985 982 q 1079 973 1053 982 q 1126 947 1106 964 q 1158 907 1146 931 q 1169 854 1169 883 q 1163 813 1169 836 l 964 103 q 940 51 956 71 q 904 20 924 32 q 864 4 885 8 q 825 0 843 0 l 193 0 q 57 136 57 0 l 57 847 m 589 1054 q 540 1032 567 1032 q 492 1053 513 1032 q 471 1103 471 1075 q 490 1149 471 1129 l 633 1296 q 678 1317 651 1317 q 727 1296 706 1317 q 749 1247 749 1275 q 744 1224 749 1236 q 729 1201 740 1213 l 589 1054 z "},"ẃ":{"ha":1199,"x_min":57,"x_max":1169,"o":"m 57 0 m 57 847 q 97 948 57 914 q 193 982 136 982 q 286 947 246 982 q 326 847 326 913 l 326 272 l 411 272 l 411 847 q 451 948 411 914 q 546 982 490 982 q 640 948 600 982 q 679 847 679 914 l 679 272 l 731 272 l 903 882 q 951 958 918 933 q 1025 982 985 982 q 1079 973 1053 982 q 1126 947 1106 964 q 1158 907 1146 931 q 1169 854 1169 883 q 1163 813 1169 836 l 964 103 q 940 51 956 71 q 904 20 924 32 q 864 4 885 8 q 825 0 843 0 l 193 0 q 57 136 57 0 l 57 847 m 589 1054 q 540 1032 567 1032 q 492 1053 513 1032 q 471 1103 471 1075 q 490 1149 471 1129 l 633 1296 q 678 1317 651 1317 q 727 1296 706 1317 q 749 1247 749 1275 q 744 1224 749 1236 q 729 1201 740 1213 l 589 1054 z "},"Ẅ":{"ha":1199,"x_min":57,"x_max":1169,"o":"m 57 0 m 57 847 q 97 948 57 914 q 193 982 136 982 q 286 947 246 982 q 326 847 326 913 l 326 272 l 411 272 l 411 847 q 451 948 411 914 q 546 982 490 982 q 640 948 600 982 q 679 847 679 914 l 679 272 l 731 272 l 903 882 q 951 958 918 933 q 1025 982 985 982 q 1079 973 1053 982 q 1126 947 1106 964 q 1158 907 1146 931 q 1169 854 1169 883 q 1163 813 1169 836 l 964 103 q 940 51 956 71 q 904 20 924 32 q 864 4 885 8 q 825 0 843 0 l 193 0 q 57 136 57 0 l 57 847 m 269 1146 q 299 1220 269 1190 q 371 1250 328 1250 q 444 1220 415 1250 q 474 1146 474 1190 q 444 1074 474 1103 q 371 1046 415 1046 q 299 1074 328 1046 q 269 1146 269 1103 m 608 1146 q 639 1220 608 1190 q 713 1250 669 1250 q 784 1220 756 1250 q 813 1146 813 1190 q 784 1074 813 1103 q 713 1046 756 1046 q 639 1074 669 1046 q 608 1146 608 1103 z "},"ẅ":{"ha":1199,"x_min":57,"x_max":1169,"o":"m 57 0 m 57 847 q 97 948 57 914 q 193 982 136 982 q 286 947 246 982 q 326 847 326 913 l 326 272 l 411 272 l 411 847 q 451 948 411 914 q 546 982 490 982 q 640 948 600 982 q 679 847 679 914 l 679 272 l 731 272 l 903 882 q 951 958 918 933 q 1025 982 985 982 q 1079 973 1053 982 q 1126 947 1106 964 q 1158 907 1146 931 q 1169 854 1169 883 q 1163 813 1169 836 l 964 103 q 940 51 956 71 q 904 20 924 32 q 864 4 885 8 q 825 0 843 0 l 193 0 q 57 136 57 0 l 57 847 m 269 1146 q 299 1220 269 1190 q 371 1250 328 1250 q 444 1220 415 1250 q 474 1146 474 1190 q 444 1074 474 1103 q 371 1046 415 1046 q 299 1074 328 1046 q 269 1146 269 1103 m 608 1146 q 639 1220 608 1190 q 713 1250 669 1250 q 784 1220 756 1250 q 813 1146 813 1190 q 784 1074 813 1103 q 713 1046 756 1046 q 639 1074 669 1046 q 608 1146 608 1103 z "},"Ỳ":{"ha":800,"x_min":25,"x_max":775,"o":"m 25 0 m 521 913 q 573 965 542 949 q 636 982 604 982 q 688 972 663 982 q 732 944 713 961 q 763 902 751 926 q 775 850 775 878 q 753 776 775 813 l 536 424 l 536 129 q 496 28 536 63 q 401 -6 456 -6 q 306 28 346 -6 q 267 129 267 63 l 267 424 l 47 778 q 25 846 25 813 q 37 899 25 874 q 68 942 49 924 q 113 972 88 961 q 165 982 138 982 q 226 966 194 982 q 279 914 258 950 l 400 703 l 521 913 m 211 1201 q 196 1224 200 1213 q 192 1247 192 1236 q 213 1296 192 1275 q 263 1317 235 1317 q 307 1296 288 1317 l 450 1149 q 469 1103 469 1129 q 449 1053 469 1075 q 400 1032 428 1032 q 351 1054 374 1032 l 211 1201 z "},"ỳ":{"ha":800,"x_min":25,"x_max":775,"o":"m 25 0 m 521 913 q 573 965 542 949 q 636 982 604 982 q 688 972 663 982 q 732 944 713 961 q 763 902 751 926 q 775 850 775 878 q 753 776 775 813 l 536 424 l 536 129 q 496 28 536 63 q 401 -6 456 -6 q 306 28 346 -6 q 267 129 267 63 l 267 424 l 47 778 q 25 846 25 813 q 37 899 25 874 q 68 942 49 924 q 113 972 88 961 q 165 982 138 982 q 226 966 194 982 q 279 914 258 950 l 400 703 l 521 913 m 211 1201 q 196 1224 200 1213 q 192 1247 192 1236 q 213 1296 192 1275 q 263 1317 235 1317 q 307 1296 288 1317 l 450 1149 q 469 1103 469 1129 q 449 1053 469 1075 q 400 1032 428 1032 q 351 1054 374 1032 l 211 1201 z "},"–":{"ha":860,"x_min":26,"x_max":835,"o":"m 139 374 q 56 407 86 374 q 26 485 26 440 q 56 567 26 532 q 139 601 86 601 l 721 601 q 804 567 774 601 q 835 485 835 532 q 804 407 835 440 q 721 374 774 374 l 139 374 z "},"—":{"ha":1203,"x_min":26,"x_max":1178,"o":"m 139 374 q 56 407 86 374 q 26 485 26 440 q 56 567 26 532 q 139 601 86 601 l 1064 601 q 1147 567 1117 601 q 1178 485 1178 532 q 1147 407 1178 440 q 1064 374 1117 374 l 139 374 z "},"‘":{"ha":354,"x_min":33,"x_max":319,"o":"m 35 892 q 33 910 33 901 q 33 925 33 918 q 69 1009 33 975 q 156 1043 106 1043 q 224 1019 193 1043 q 267 950 254 996 l 315 767 q 319 729 319 746 q 283 651 319 682 q 194 619 246 619 q 128 641 158 619 q 85 710 97 663 l 35 892 z "},"’":{"ha":354,"x_min":33,"x_max":319,"o":"m 268 710 q 225 641 256 663 q 158 619 194 619 q 70 651 107 619 q 33 729 33 682 q 38 767 33 746 l 88 950 q 197 1043 113 1043 q 288 1005 257 1043 q 319 913 319 967 q 317 892 319 906 l 268 710 z "},"‚":{"ha":354,"x_min":33,"x_max":319,"o":"m 268 -150 q 225 -217 256 -196 q 158 -239 194 -239 q 70 -208 107 -239 q 33 -129 33 -178 q 38 -93 33 -112 l 88 92 q 197 182 113 182 q 290 144 260 182 q 319 53 319 107 q 317 33 319 47 l 268 -150 z "},"“":{"ha":681,"x_min":33,"x_max":647,"o":"m 363 892 q 360 913 360 906 q 392 1005 360 967 q 482 1043 424 1043 q 551 1019 521 1043 q 593 950 581 996 l 643 767 q 647 729 647 746 q 610 651 647 682 q 521 619 572 619 q 454 641 485 619 q 411 710 424 663 l 363 892 m 35 892 q 33 910 33 901 q 33 925 33 918 q 69 1009 33 975 q 156 1043 106 1043 q 224 1019 193 1043 q 267 950 254 996 l 315 767 q 319 729 319 746 q 283 651 319 682 q 194 619 246 619 q 128 641 158 619 q 85 710 97 663 l 35 892 z "},"”":{"ha":681,"x_min":33,"x_max":647,"o":"m 268 710 q 225 641 256 663 q 158 619 194 619 q 70 651 107 619 q 33 729 33 682 q 38 767 33 746 l 88 950 q 197 1043 113 1043 q 288 1005 257 1043 q 319 913 319 967 q 317 892 319 906 l 268 710 m 594 710 q 552 641 583 663 q 485 619 521 619 q 397 651 433 619 q 360 729 360 682 q 365 767 360 756 l 414 950 q 456 1019 426 996 q 524 1043 485 1043 q 615 1005 582 1043 q 647 913 647 967 q 644 892 647 906 l 594 710 z "},"„":{"ha":681,"x_min":33,"x_max":647,"o":"m 268 -150 q 225 -217 256 -196 q 158 -239 194 -239 q 70 -208 107 -239 q 33 -129 33 -178 q 38 -93 33 -112 l 88 92 q 197 182 113 182 q 290 144 260 182 q 319 53 319 107 q 317 33 319 47 l 268 -150 m 594 -150 q 552 -217 582 -196 q 485 -239 522 -239 q 397 -208 433 -239 q 360 -129 360 -178 q 365 -93 360 -103 l 414 92 q 524 182 438 182 q 617 144 586 182 q 647 53 647 107 q 644 33 647 47 l 594 -150 z "},"†":{"ha":586,"x_min":31,"x_max":522,"o":"m 353 668 l 335 147 q 276 93 332 93 q 218 147 218 93 l 197 668 l 83 668 q 31 719 31 668 q 83 768 31 768 l 189 768 l 189 908 q 276 982 189 982 q 365 908 365 982 l 365 768 l 474 768 q 522 718 522 768 q 474 668 522 668 l 353 668 z "},"‡":{"ha":615,"x_min":46,"x_max":557,"o":"m 221 349 l 239 506 l 219 656 l 99 656 q 46 711 46 656 q 99 761 46 761 l 210 761 l 210 907 q 301 982 210 982 q 390 907 390 982 l 390 761 l 506 761 q 557 710 557 761 q 506 656 557 656 l 378 656 l 361 506 l 378 349 l 500 349 q 557 296 557 349 q 500 243 557 243 l 392 243 l 392 99 q 300 24 392 24 q 210 99 210 24 l 210 243 l 97 243 q 46 296 46 243 q 97 349 46 349 l 221 349 z "},"•":{"ha":676,"x_min":39,"x_max":636,"o":"m 39 575 q 62 692 39 638 q 125 786 85 746 q 219 850 165 826 q 336 874 274 874 q 453 850 399 874 q 548 786 507 826 q 613 692 589 746 q 636 575 636 638 q 613 458 636 513 q 548 364 589 404 q 453 301 507 324 q 336 278 399 278 q 219 301 274 278 q 125 364 165 324 q 62 458 85 404 q 39 575 39 513 z "},"…":{"ha":1176,"x_min":72,"x_max":1107,"o":"m 72 0 m 343 129 q 332 77 343 101 q 302 35 321 53 q 258 6 283 17 q 207 -6 233 -6 q 155 6 179 -6 q 113 35 131 17 q 83 77 94 53 q 72 129 72 101 q 83 181 72 157 q 113 224 94 206 q 155 253 131 243 q 207 264 179 264 q 258 253 233 264 q 302 224 283 243 q 332 181 321 206 q 343 129 343 157 m 725 129 q 714 77 725 101 q 684 35 703 53 q 640 6 665 17 q 589 -6 615 -6 q 537 6 561 -6 q 494 35 513 17 q 465 77 476 53 q 454 129 454 101 q 465 181 454 157 q 494 224 476 206 q 537 253 513 243 q 589 264 561 264 q 640 253 615 264 q 684 224 665 243 q 714 181 703 206 q 725 129 725 157 m 1107 129 q 1096 77 1107 101 q 1066 35 1085 53 q 1022 6 1047 17 q 971 -6 997 -6 q 919 6 943 -6 q 876 35 894 17 q 847 77 858 53 q 836 129 836 101 q 847 181 836 157 q 876 224 858 206 q 919 253 894 243 q 971 264 943 264 q 1022 253 997 264 q 1066 224 1047 243 q 1096 181 1085 206 q 1107 129 1107 157 z "},"‰":{"ha":1460,"x_min":64,"x_max":1421,"o":"m 1421 188 q 1406 112 1421 147 q 1363 49 1390 76 q 1300 6 1336 22 q 1224 -10 1264 -10 q 1142 6 1179 -10 q 1078 47 1106 21 q 1037 110 1051 74 q 1022 188 1022 146 q 1038 266 1022 229 q 1081 330 1054 303 q 1145 373 1108 357 q 1224 389 1182 389 q 1300 373 1264 389 q 1363 329 1336 357 q 1406 265 1390 301 q 1421 188 1421 228 m 1146 188 q 1169 133 1146 156 q 1224 111 1192 111 q 1278 133 1256 111 q 1300 188 1300 156 q 1278 242 1300 219 q 1224 264 1256 264 q 1169 242 1192 264 q 1146 188 1146 219 m 818 982 q 854 974 836 982 q 887 953 872 967 q 910 923 901 940 q 919 888 919 906 q 899 831 919 857 l 304 35 q 232 -6 274 -6 q 193 3 211 -6 q 162 24 175 11 q 140 55 149 38 q 132 90 132 72 q 154 147 132 117 l 749 940 q 818 982 779 982 m 463 786 q 447 712 463 747 q 405 649 432 676 q 342 606 378 622 q 264 589 306 589 q 183 604 219 589 q 120 647 147 619 q 78 709 93 674 q 64 786 64 744 q 80 865 64 828 q 123 928 96 901 q 186 972 150 956 q 264 988 222 988 q 342 972 306 988 q 405 928 378 956 q 447 864 432 900 q 463 786 463 828 m 188 786 q 210 733 188 754 q 264 711 232 711 q 319 733 296 711 q 342 786 342 754 q 319 842 342 819 q 264 864 296 864 q 210 842 232 864 q 188 786 188 819 m 981 188 q 965 112 981 147 q 923 49 950 76 q 860 6 896 22 q 782 -10 824 -10 q 701 6 738 -10 q 637 47 664 21 q 595 110 610 74 q 581 188 581 146 q 597 266 581 229 q 640 330 613 303 q 703 373 667 357 q 782 389 740 389 q 860 373 824 389 q 923 329 896 357 q 965 265 950 301 q 981 188 981 228 m 706 188 q 728 133 706 156 q 782 111 750 111 q 836 133 814 111 q 858 188 858 156 q 836 242 858 219 q 782 264 814 264 q 728 242 750 264 q 706 188 706 219 z "},"‹":{"ha":418,"x_min":39,"x_max":378,"o":"m 357 343 q 373 317 368 331 q 378 292 378 303 q 356 238 378 257 q 306 218 333 218 q 253 239 278 218 l 63 432 q 39 475 39 456 q 63 533 39 510 l 253 725 q 306 749 276 749 q 356 726 333 749 q 378 675 378 703 q 357 622 378 643 l 218 482 l 357 343 z "},"›":{"ha":418,"x_min":39,"x_max":378,"o":"m 201 482 l 63 622 q 39 675 39 646 q 62 726 39 703 q 113 749 85 749 q 165 725 142 749 l 357 533 q 374 508 369 521 q 378 482 378 496 q 374 456 378 467 q 357 432 369 444 l 165 239 q 140 223 154 228 q 113 218 126 218 q 62 240 85 218 q 39 292 39 261 q 44 317 39 303 q 63 343 50 331 l 201 482 z "},"⁄":{"ha":325,"x_min":-243,"x_max":544,"o":"m 443 982 q 479 974 461 982 q 512 953 497 967 q 535 923 526 940 q 544 888 544 906 q 539 859 544 872 q 522 831 533 846 l -72 35 q -144 -6 -103 -6 q -182 3 -164 -6 q -214 24 -200 11 q -235 55 -228 38 q -243 90 -243 72 q -238 117 -243 103 q -222 147 -233 132 l 374 940 q 405 971 389 960 q 443 982 421 982 z "},"⁰":{"ha":629,"x_min":56,"x_max":656,"o":"m 56 486 m 57 784 q 80 900 57 846 q 144 994 103 954 q 239 1057 185 1034 q 356 1079 293 1079 q 473 1057 418 1079 q 568 994 527 1034 q 632 900 608 954 q 656 784 656 846 q 632 667 656 721 q 568 573 608 613 q 473 510 527 533 q 356 487 418 487 q 239 510 293 487 q 144 573 185 533 q 80 667 103 613 q 57 784 57 721 m 221 781 q 232 729 221 753 q 261 687 242 704 q 304 659 279 669 q 357 649 328 649 q 410 659 385 649 q 453 687 434 669 q 482 729 472 704 q 493 781 493 753 q 482 834 493 809 q 453 877 472 859 q 410 904 434 894 q 357 914 385 914 q 304 904 328 914 q 261 877 279 894 q 232 834 242 859 q 221 781 221 809 z "},"⁴":{"ha":569,"x_min":54,"x_max":510,"o":"m 54 486 m 511 568 q 487 507 511 528 q 430 487 463 487 q 373 507 397 487 q 349 568 349 528 l 349 702 l 137 702 q 56 784 56 702 l 56 999 q 80 1059 56 1039 q 137 1079 105 1079 q 194 1059 170 1079 q 218 999 218 1039 l 218 849 l 349 849 l 349 999 q 373 1059 349 1039 q 430 1079 397 1079 q 487 1059 463 1079 q 511 999 511 1039 l 511 568 z "},"⁵":{"ha":582,"x_min":56,"x_max":525,"o":"m 56 490 m 526 678 q 344 490 526 490 l 144 490 q 56 572 56 490 q 79 633 56 613 q 145 653 102 653 l 340 653 q 385 686 385 653 q 340 720 385 720 l 94 720 q 70 730 79 720 q 61 758 61 739 l 61 1053 q 71 1071 61 1065 q 92 1077 81 1077 l 441 1077 q 517 995 517 1077 q 439 914 517 914 l 216 914 l 216 854 l 354 854 q 483 812 440 854 q 526 678 526 769 z "},"⁶":{"ha":579,"x_min":54,"x_max":522,"o":"m 54 490 m 523 677 q 340 490 523 490 l 227 490 q 96 537 137 490 q 55 681 55 583 l 55 891 q 240 1077 55 1077 l 422 1077 q 499 995 499 1077 q 479 934 499 954 q 421 914 458 914 l 247 914 q 223 905 232 914 q 214 879 214 896 l 214 849 q 231 855 222 854 q 249 857 240 857 l 350 857 q 523 677 523 857 m 342 653 q 377 694 377 653 q 342 737 377 737 l 247 737 q 214 694 214 737 q 247 653 214 653 l 342 653 z "},"⁷":{"ha":588,"x_min":54,"x_max":529,"o":"m 54 486 m 256 530 q 221 497 241 506 q 184 487 202 487 q 153 493 168 487 q 128 509 139 499 q 110 533 116 519 q 103 564 103 547 q 106 584 103 571 q 119 611 110 598 l 316 914 l 136 914 q 76 938 96 914 q 55 995 55 962 q 76 1053 55 1029 q 136 1077 96 1077 l 455 1077 q 509 1058 488 1077 q 531 1004 531 1039 q 527 979 531 992 q 516 952 524 965 l 256 530 z "},"⁸":{"ha":589,"x_min":54,"x_max":532,"o":"m 54 490 m 201 490 q 134 502 162 490 q 89 536 106 514 q 63 586 71 557 q 56 649 56 615 q 63 699 56 674 q 82 743 70 724 q 113 774 95 762 q 153 789 131 787 q 87 837 108 799 q 66 925 66 875 q 73 986 66 958 q 97 1034 81 1014 q 136 1066 113 1054 q 190 1077 160 1077 l 399 1077 q 453 1065 430 1077 q 491 1033 476 1054 q 515 985 507 1013 q 523 925 523 957 q 502 837 523 875 q 436 789 481 799 q 477 774 459 787 q 507 743 495 762 q 526 699 520 724 q 533 648 533 674 q 525 586 533 614 q 500 536 517 557 q 455 502 482 514 q 388 490 427 490 l 201 490 m 243 914 q 218 903 226 914 q 211 879 211 892 q 219 850 211 863 q 243 838 227 838 l 346 838 q 370 850 361 838 q 378 879 378 863 q 371 903 378 892 q 346 914 363 914 l 243 914 m 243 719 q 218 709 226 719 q 211 686 211 699 q 218 664 211 674 q 243 653 226 653 l 346 653 q 371 664 363 653 q 378 686 378 674 q 371 709 378 699 q 346 719 363 719 l 243 719 z "},"⁹":{"ha":579,"x_min":54,"x_max":522,"o":"m 54 490 m 56 889 q 238 1077 56 1077 l 351 1077 q 482 1030 441 1077 q 523 885 523 984 l 523 675 q 339 490 523 490 l 157 490 q 80 572 80 490 q 100 633 80 613 q 158 653 121 653 l 331 653 q 355 662 346 653 q 365 687 365 670 l 365 716 q 348 712 357 713 q 330 710 338 710 l 228 710 q 56 889 56 710 m 236 914 q 201 873 201 914 q 236 829 201 829 l 332 829 q 365 873 365 829 q 332 914 365 914 l 236 914 z "},"₀":{"ha":617,"x_min":56,"x_max":656,"o":"m 56 0 m 57 196 q 80 312 57 259 q 144 406 103 366 q 239 469 185 446 q 356 492 293 492 q 473 469 418 492 q 568 406 527 446 q 632 312 608 366 q 656 196 656 259 q 632 79 656 134 q 568 -15 608 25 q 473 -78 527 -55 q 356 -101 418 -101 q 239 -78 293 -101 q 144 -15 185 -55 q 80 79 103 25 q 57 196 57 134 m 221 194 q 232 141 221 165 q 261 99 242 117 q 304 71 279 81 q 357 61 328 61 q 410 71 385 61 q 453 99 434 81 q 482 141 472 117 q 493 194 493 165 q 482 247 493 222 q 453 289 472 271 q 410 317 434 307 q 357 327 385 327 q 304 317 328 327 q 261 289 279 307 q 232 247 242 271 q 221 194 221 222 z "}}}
